<svg height="564pt" viewBox="-25 -18 564 564.00077" width="564pt" xmlns="http://www.w3.org/2000/svg"><path d="m134.960938 375.242188h-53.484376c-9.421874 0-17.058593-7.636719-17.058593-17.058594 0-9.417969 7.636719-17.054688 17.058593-17.054688h53.484376c1.296874 0 2.347656-.210937 3.101562-.4375v-24.703125c-.753906-.234375-1.804688-.445312-3.101562-.445312h-53.484376c-9.421874 0-17.058593-7.636719-17.058593-17.054688s7.636719-17.054687 17.058593-17.054687h53.484376c20.871093 0 37.21875 13.6875 37.21875 31.171875v31.464843c0 17.480469-16.347657 31.171876-37.21875 31.171876zm4.519531-58.605469h.089843zm0 0"/><path d="m134.960938 434.941406h-53.484376c-9.421874 0-17.058593-7.640625-17.058593-17.058594 0-9.421874 7.636719-17.058593 17.058593-17.058593h53.484376c1.296874 0 2.347656-.203125 3.101562-.4375v-24.703125c-.753906-.234375-1.804688-.441406-3.101562-.441406h-53.484376c-9.421874 0-17.058593-7.636719-17.058593-17.058594 0-9.417969 7.636719-17.054688 17.058593-17.054688h53.484376c20.871093 0 37.21875 13.691406 37.21875 31.171875v31.464844c0 17.480469-16.347657 31.175781-37.21875 31.175781zm4.519531-58.609375h.089843zm0 0"/><path d="m176.445312 528.75c-97.578124 0-176.964843-79.386719-176.964843-176.957031 0-97.578125 79.386719-176.964844 176.964843-176.964844 23.25 0 45.871094 4.449219 67.203126 13.21875 4.359374 1.789063 6.441406 6.769531 4.652343 11.125-1.785156 4.363281-6.796875 6.414063-11.125 4.648437-19.28125-7.921874-39.714843-11.933593-60.730469-11.933593-88.175781 0-159.90625 71.730469-159.90625 159.90625 0 88.167969 71.730469 159.902343 159.90625 159.902343 88.167969 0 159.902344-71.734374 159.902344-159.902343 0-23.324219-4.910156-45.800781-14.574218-66.808594-1.976563-4.269531-.105469-9.34375 4.179687-11.304687 4.269531-1.976563 9.335937-.101563 11.3125 4.175781 10.707031 23.253906 16.136719 48.132812 16.136719 73.9375 0 97.570312-79.386719 176.957031-176.957032 176.957031zm0 0"/><path d="m368.328125 289.957031c-79.945313 0-144.980469-65.03125-144.980469-144.976562 0-79.945313 65.035156-144.980469 144.980469-144.980469s144.980469 65.035156 144.980469 144.980469c0 79.945312-65.035156 144.976562-144.980469 144.976562zm0-272.902343c-70.539063 0-127.921875 57.382812-127.921875 127.925781 0 70.539062 57.382812 127.921875 127.921875 127.921875 70.542969 0 127.925781-57.382813 127.925781-127.921875 0-70.542969-57.382812-127.925781-127.925781-127.925781zm0 0"/><path d="m308.628906 93.8125c0 9.417969-7.636718 17.054688-17.054687 17.054688-9.421875 0-17.058594-7.636719-17.058594-17.054688s7.636719-17.058594 17.058594-17.058594c9.417969 0 17.054687 7.640625 17.054687 17.058594zm0 0"/><path d="m462.136719 93.8125c0 9.417969-7.636719 17.054688-17.054688 17.054688s-17.054687-7.636719-17.054687-17.054688 7.636718-17.058594 17.054687-17.058594 17.054688 7.640625 17.054688 17.058594zm0 0"/><path d="m228.183594 434.941406h-30.417969c-9.425781 0-17.0625-7.640625-17.0625-17.058594v-119.394531c0-9.417969 7.636719-17.054687 17.0625-17.054687h30.417969c39.65625 0 71.917968 32.261718 71.917968 71.914062v9.675782c0 39.652343-32.261718 71.917968-71.917968 71.917968zm-13.363282-34.117187h13.363282c20.847656 0 37.804687-16.953125 37.804687-37.800781v-9.675782c0-20.847656-16.957031-37.800781-37.804687-37.800781h-13.363282zm0 0"/><path d="m442.523438 149.851562c-1.402344-2.96875-2.6875-4.855468-5.972657-4.871093h-136.449219c-.007812 0 1.46875-.515625 1.457032-.515625-3.265625 0-6.246094 1.863281-7.671875 4.804687-1.429688 2.9375-1.046875 6.453125.988281 9.019531 7.773438 9.808594 36.054688 41.816407 73.527344 41.816407 35.761718 0 62.996094-28.832031 73.039062-41.226563 2.074219-2.546875 2.488282-6.058594 1.082032-9.027344zm-74.195313 29.242188c-14.128906 0-25.585937-3.816406-25.585937-8.527344 0-4.714844 11.457031-8.53125 25.585937-8.53125s25.582031 3.816406 25.582031 8.53125c0 4.710938-11.453125 8.527344-25.582031 8.527344zm0 0"/></svg>