<svg height="437pt" viewBox="-34 0 437 437" width="437pt" xmlns="http://www.w3.org/2000/svg"><path d="m263.363281 339c-3.402343 0-6.300781-2.5-6.800781-6l-5.699219-45.398438c-.5-3.703124 2.199219-7.203124 5.898438-7.601562 3.699219-.5 7.101562 2.199219 7.601562 5.898438l5.699219 45.402343c.5 3.699219-2.199219 7.199219-5.902344 7.597657-.199218 0-.5.101562-.796875.101562zm0 0"/><path d="m102.460938 361.898438h-20.5c-3.800782 0-6.800782-3.097657-6.800782-6.796876 0-3.703124 3.101563-6.800781 6.800782-6.800781h14.5l8-63.601562c.5-3.699219 3.902343-6.398438 7.601562-5.898438s6.398438 3.898438 5.898438 7.597657l-8.699219 69.601562c-.5 3.300781-3.398438 5.898438-6.800781 5.898438zm0 0"/><path d="m47.863281 361.898438c-3.800781 0-6.800781-3.097657-6.800781-6.796876l.300781-181c0-3.800781 3.097657-6.800781 6.796875-6.800781 3.703125.300781 6.800782 3.097657 6.800782 6.800781l-.300782 181c0 3.699219-3.097656 6.796876-6.796875 6.796876zm0 0"/><path d="m320.0625 105.300781c-3.5 0-6.5-2.601562-6.800781-6.199219-6.699219-70.601562-73.800781-85.402343-129-85.402343-54.398438 0-121 14.5-128.800781 83.402343-.398438 3.699219-3.800782 6.398438-7.597657 6-3.703125-.402343-6.402343-3.800781-6-7.601562 7-61.601562 57.5-95.5 142.296875-95.5 85.902344 0 136.601563 34.699219 142.601563 97.699219.398437 3.800781-2.398438 7.101562-6.199219 7.402343 0 .199219-.199219.199219-.5.199219zm0 0"/><path d="m320.863281 345.699219c-3.800781 0-6.800781-3-6.800781-6.800781l-.300781-161.398438c0-3.800781 3-6.800781 6.800781-6.800781s6.800781 3 6.800781 6.800781l.296875 161.398438c.101563 3.800781-3 6.800781-6.796875 6.800781zm0 0"/><path d="m157.0625 341.398438h-50.699219c-3.800781 0-6.800781-3.097657-6.800781-6.796876 0-3.703124 3.097656-6.800781 6.800781-6.800781h43.796875v-9.5c0-3.800781 3.101563-6.800781 6.800782-6.800781 3.800781 0 6.800781 3.101562 6.800781 6.800781v16.300781c.101562 3.699219-2.898438 6.796876-6.699219 6.796876zm0 0"/><path d="m341.363281 437h-314c-3.800781 0-6.800781-3.101562-6.800781-6.800781v-44.5c0-16.097657 7.800781-31.597657 21.300781-42.597657 2.898438-2.402343 7.199219-1.902343 9.597657 1 2.402343 2.898438 1.902343 7.199219-1 9.597657-10.5 8.5-16.300782 19.800781-16.300782 31.902343v37.597657h300.402344v-43.5c0-21.199219-20.601562-38.398438-46-38.398438h-76.902344c-3.796875 0-6.796875-3.101562-6.796875-6.800781v-14.300781c0-3.800781 3.097657-6.800781 6.796875-6.800781 3.703125 0 6.800782 3.101562 6.800782 6.800781v7.5h70.101562c32.898438 0 59.597656 23.402343 59.597656 52.101562v50.300781c0 3.796876-3 6.898438-6.796875 6.898438zm0 0"/><path d="m75.160156 430.101562c-3.796875 0-6.796875-3.101562-6.796875-6.800781v-20.5c0-3.800781 3.097657-6.800781 6.796875-6.800781 3.800782 0 6.800782 3.101562 6.800782 6.800781v20.5c0 3.800781-3.097657 6.800781-6.800782 6.800781zm0 0"/><path d="m293.5625 430.101562c-3.800781 0-6.800781-3.101562-6.800781-6.800781v-20.5c0-3.800781 3.101562-6.800781 6.800781-6.800781 3.800781 0 6.800781 3.101562 6.800781 6.800781v20.5c.097657 3.800781-3 6.800781-6.800781 6.800781zm0 0"/><path d="m300.460938 198c-2.5 0-4.898438-1.398438-6.097657-3.800781-1.703125-3.398438-.300781-7.5 3.097657-9.199219 27.800781-13.898438 46-67.699219 53.699218-95.101562l-24.097656 15c-7.601562 4.703124-14.601562 10.300781-20.902344 16.601562-2.699218 2.699219-7 2.699219-9.699218 0-2.699219-2.699219-2.699219-7 0-9.699219 7-7 14.902343-13.300781 23.300781-18.5l38.5-24.101562c2.300781-1.5 5.300781-1.398438 7.5.199219 2.199219 1.601562 3.300781 4.300781 2.800781 7-.902344 4-21.699219 99-65.101562 120.703124-1 .699219-2 .898438-3 .898438zm0 0"/><path d="m68.261719 198c-1 0-2.101563-.199219-3-.699219-43.398438-21.699219-64.199219-116.699219-65.101563-120.699219-.597656-2.703124.5-5.402343 2.800782-7 2.199218-1.601562 5.199218-1.703124 7.5-.203124l38.5 24.101562c8.199218 5.101562 15.800781 11.101562 22.601562 17.800781 2.699219 2.597657 2.699219 7 .097656 9.699219-2.597656 2.699219-7 2.699219-9.699218.101562-6.097657-6-12.898438-11.402343-20.199219-16l-24.101563-15c7.703125 27.398438 25.902344 81.199219 53.703125 95.097657 3.398438 1.699219 4.699219 5.800781 3.097657 9.199219-1.199219 2.203124-3.699219 3.601562-6.199219 3.601562zm0 0"/><path d="m184.363281 334.601562c-29.902343 0-116.101562-62.5-116.101562-122.902343l-6.800781-105.699219c0-20.898438 16.699218-37.601562 37.199218-37.601562.402344 0 .703125 0 1.101563.101562l30.699219 4.800781c.300781 0 .5.097657.800781.199219 34.800781 9.898438 71.5 9.898438 106.300781 0 .300781-.101562.5-.101562.800781-.199219l30.699219-4.800781c.300781-.101562.699219-.101562 1.097656-.101562 20.5 0 37.203125 16.703124 37.203125 37.203124l-7 106.5c.097657 60-86.101562 122.5-116 122.5zm-86.203125-252.601562c-12.699218.300781-23 10.699219-23 23.5l6.800782 105.699219c0 51.601562 77.5 109.699219 102.402343 109.699219 24.898438 0 102.398438-58.097657 102.398438-109.199219l6.800781-106.597657c0-12.402343-10.300781-22.800781-23-23.101562l-29.699219 4.699219c-37 10.402343-76 10.402343-113 0zm0 0"/><path d="m191.160156 273.101562h-13.699218c-7.5 0-13.699219-6.101562-13.699219-13.703124 0-7.5 6.101562-13.699219 13.699219-13.699219h13.699218c7.5 0 13.703125 6.101562 13.703125 13.699219 0 7.601562-6.101562 13.703124-13.703125 13.703124zm0 0"/><path d="m211.660156 266.300781h-54.597656c-3.800781 0-6.800781-3.101562-6.800781-6.800781s3.101562-6.800781 6.800781-6.800781h54.597656c3.800782 0 6.800782 3.101562 6.800782 6.800781s-3 6.800781-6.800782 6.800781zm0 0"/><path d="m184.363281 232.199219c-.703125 0-1.5-.097657-2.203125-.398438l-20.5-6.800781c-2.398437-.800781-4.199218-2.898438-4.597656-5.398438l-6.800781-41c-.601563-3.703124 1.898437-7.203124 5.601562-7.902343 3.699219-.597657 7.199219 1.902343 7.898438 5.601562l6.199219 36.898438 14.402343 4.800781 14.398438-4.800781 6.199219-36.898438c.601562-3.699219 4.101562-6.199219 7.902343-5.601562 3.699219.601562 6.199219 4.101562 5.597657 7.902343l-6.800782 41c-.398437 2.5-2.199218 4.597657-4.597656 5.398438l-20.5 6.800781c-.699219.199219-1.5.398438-2.199219.398438zm0 0"/><path d="m137.460938 191.800781c-3.097657 0-6.097657-.199219-8.800782-.300781-2.097656-.101562-4.097656-.199219-5.699218-.199219-12.699219 0-26.898438-12.199219-33.300782-24.101562-1.097656-2-1.097656-4.5 0-6.5 5.800782-10.800781 18.300782-17.199219 33.300782-17.199219 13.601562 0 34.402343 20.300781 40.101562 30.898438 1.097656 2 1.097656 4.5 0 6.5-5 9.203124-15.800781 10.902343-25.601562 10.902343zm-33.699219-27.699219c5.199219 7.296876 13.699219 13.5 19.101562 13.5 1.898438 0 4.097657.097657 6.5.296876 5.597657.300781 14.199219.800781 18.898438-1.199219-7-9.199219-20.601563-19.5-25.398438-19.5-3.203125-.097657-13.300781.402343-19.101562 6.902343zm0 0"/><path d="m231.261719 191.800781c-9.800781 0-20.601563-1.699219-25.601563-11-1.097656-2-1.097656-4.5 0-6.5 5.703125-10.601562 26.601563-30.902343 40.101563-30.902343 15 0 27.5 6.402343 33.300781 17.203124 1.097656 2 1.097656 4.5 0 6.5-6.402344 11.796876-20.601562 24.097657-33.300781 24.097657-1.699219 0-3.601563.101562-5.699219.199219-2.699219.203124-5.699219.402343-8.800781.402343zm-10.800781-15.199219c4.601562 2 13.199218 1.5 18.902343 1.199219 2.398438-.101562 4.597657-.300781 6.5-.300781 5.398438 0 13.898438-6.199219 19.097657-13.5-5.800782-6.5-15.898438-7-19.097657-7-4.902343.101562-18.402343 10.300781-25.402343 19.601562zm0 0"/><path d="m184.363281 409.601562c-37.601562 0-68.300781-30.601562-68.300781-68.300781 0-3.800781 3.097656-6.800781 6.800781-6.800781 3.796875 0 6.796875 3.101562 6.796875 6.800781 0 30.097657 24.5 54.597657 54.601563 54.597657 30.101562 0 54.601562-24.5 54.601562-54.597657 0-3.800781 3.097657-6.800781 6.796875-6.800781 3.703125 0 6.800782 3.101562 6.800782 6.800781.199218 37.699219-30.5 68.300781-68.097657 68.300781zm0 0"/><path d="m157.0625 136.601562c-1.199219 0-2.402344-.300781-3.5-1-2.902344-1.800781-4-5.402343-2.699219-8.5.097657-1.300781.097657-12.101562-25.902343-39.203124-2.597657-2.699219-2.5-7 .199218-9.699219 2.703125-2.597657 7-2.5 9.703125.199219 34.097657 35.300781 31.097657 50.101562 28.199219 54.800781-1.5 2.199219-3.699219 3.402343-6 3.402343zm-5.800781-10.402343c-.101563 0-.101563 0 0 0zm0 0"/><path d="m212.261719 136.601562c-2.300781 0-4.5-1.203124-5.800781-3.300781-2.898438-4.699219-5.898438-19.5 28.199218-54.800781 2.601563-2.699219 6.902344-2.800781 9.703125-.199219 2.699219 2.597657 2.796875 6.898438.199219 9.699219-26.101562 27-26.101562 37.898438-25.902344 39.199219 1.300782 3.101562.203125 6.699219-2.699218 8.5-1.300782.601562-2.5.902343-3.699219.902343zm5.800781-10.402343"/><path d="m47.863281 389.199219c-3.800781 0-6.800781-3.097657-6.800781-6.800781v-61.398438c0-3.800781 3.097656-6.800781 6.800781-6.800781 3.699219 0 6.796875 3.101562 6.796875 6.800781v53.699219c11.800782-3 20.5-13.699219 20.5-26.398438v-27.300781c0-3.800781 3.101563-6.800781 6.800782-6.800781 3.800781 0 6.800781 3.101562 6.800781 6.800781v27.300781c0 22.5-18.300781 40.898438-40.898438 40.898438zm0 0"/></svg>