<svg height="581pt" viewBox="-18 -18 581.33275 581" width="581pt" xmlns="http://www.w3.org/2000/svg"><path d="m127.734375 187.429688c-4.707031 0-8.515625-3.804688-8.515625-8.511719v-170.316407c0-3.699218 2.394531-6.976562 5.910156-8.105468 3.53125-1.121094 7.378906.144531 9.53125 3.15625l42.578125 59.613281c2.738281 3.824219 1.847657 9.144531-1.976562 11.875-3.816407 2.730469-9.140625 1.839844-11.875-1.984375l-27.136719-37.984375v143.746094c0 4.707031-3.8125 8.511719-8.515625 8.511719zm0 0"/><path d="m417.265625 187.429688c-4.707031 0-8.515625-3.804688-8.515625-8.511719v-143.746094l-27.136719 37.988281c-2.722656 3.835938-8.050781 4.726563-11.875 1.984375-3.824219-2.730469-4.714843-8.050781-1.976562-11.878906l42.578125-59.609375c2.152344-3.011719 6-4.28125 9.527344-3.15625 3.519531 1.128906 5.914062 4.402344 5.914062 8.105469v170.3125c0 4.707031-3.808594 8.511719-8.515625 8.511719zm0 0"/><path d="m536.480469 545.085938h-527.964844c-4.707031 0-8.515625-3.808594-8.515625-8.515626v-79.796874c0-17.066407 12.175781-31.738282 28.9375-34.878907l141.933594-26.609375c4.671875-.847656 9.070312 2.175782 9.933594 6.789063.878906 4.625-2.167969 9.074219-6.792969 9.9375l-141.925781 26.613281c-8.726563 1.636719-15.050782 9.269531-15.050782 18.140625v71.289063h510.933594v-71.558594c0-8.769532-6.234375-16.375-14.835938-18.097656l-140.128906-28.035157c-4.609375-.917969-7.601562-5.402343-6.679687-10.015625.914062-4.625 5.414062-7.636718 10.015625-6.683594l140.136718 28.035157c16.527344 3.304687 28.523438 17.941406 28.523438 34.796875v80.070312c0 4.710938-3.8125 8.519532-8.519531 8.519532zm0 0"/><path d="m315.078125 476.960938h-85.15625c-2.484375 0-4.847656-1.089844-6.460937-2.972657l-102.191407-119.222656c-1.328125-1.539063-2.050781-3.511719-2.050781-5.539063v-178.828124c0-84.515626 68.765625-153.277344 153.28125-153.277344s153.28125 68.761718 153.28125 153.277344v178.828124c0 2.027344-.722656 4-2.054688 5.539063l-102.1875 119.222656c-1.613281 1.882813-3.976562 2.972657-6.460937 2.972657zm-81.238281-17.03125h77.320312l97.589844-113.855469v-175.675781c0-75.125-61.125-136.25-136.25-136.25-75.128906 0-136.25 61.125-136.25 136.25v175.675781zm183.425781-110.703126h.085937zm0 0"/><path d="m246.953125 272.585938-42.578125-42.578126h-31.9375l9.734375 14.59375c7.398437 11.105469 18.910156 18.8125 31.992187 21.429688zm0 0"/><path d="m300.175781 272.585938 42.578125-42.578126h31.9375l-9.734375 14.59375c-7.398437 11.105469-18.910156 18.8125-31.992187 21.429688zm0 0"/><path d="m289.53125 323.679688h-34.0625c-9.402344 0-17.027344-7.625-17.027344-17.03125 0-9.402344 7.625-17.027344 17.027344-17.027344h34.0625c9.40625 0 17.035156 7.625 17.035156 17.027344 0 9.40625-7.628906 17.03125-17.035156 17.03125zm0 0"/><path d="m195.851562 434.382812c-1.191406 0-2.40625-.25-3.5625-.78125-4.273437-1.972656-6.132812-7.035156-4.164062-11.304687l51.09375-110.703125c1.96875-4.261719 7.015625-6.128906 11.300781-4.164062 4.277344 1.972656 6.140625 7.035156 4.164063 11.304687l-51.089844 110.703125c-1.441406 3.117188-4.523438 4.945312-7.742188 4.945312zm0 0"/><path d="m349.148438 434.382812c-3.21875 0-6.300782-1.828124-7.742188-4.945312l-51.09375-110.703125c-1.972656-4.269531-.109375-9.332031 4.167969-11.304687 4.289062-1.96875 9.332031-.097657 11.300781 4.164062l51.09375 110.703125c1.972656 4.269531.105469 9.332031-4.167969 11.304687-1.152343.53125-2.371093.78125-3.558593.78125zm0 0"/><path d="m272.5 298.132812c-4.707031 0-8.519531-3.804687-8.519531-8.511718v-45.835938l-63.417969-31.703125c-2.214844-1.117187-3.847656-3.148437-4.445312-5.554687l-34.0625-136.25c-1.148438-4.5625 1.628906-9.179688 6.195312-10.320313 4.550781-1.167969 9.179688 1.625 10.320312 6.191407l33.113282 132.449218 64.625 32.3125c2.886718 1.445313 4.707031 4.390625 4.707031 7.613282v51.097656c0 4.707031-3.808594 8.511718-8.515625 8.511718zm0 0"/><path d="m272.5 298.132812c-4.707031 0-8.519531-3.804687-8.519531-8.511718v-51.097656c0-3.222657 1.824219-6.167969 4.707031-7.613282l64.628906-32.3125 33.113282-132.449218c1.140624-4.566407 5.746093-7.367188 10.320312-6.191407 4.566406 1.132813 7.34375 5.757813 6.195312 10.320313l-34.0625 136.25c-.597656 2.410156-2.230468 4.4375-4.449218 5.554687l-63.417969 31.703125v45.835938c0 4.707031-3.808594 8.511718-8.515625 8.511718zm0 0"/><path d="m272.5 511.023438c-82.09375 0-149.359375-42.765626-153.113281-97.363282-.316407-4.6875 3.214843-8.753906 7.917969-9.078125 4.6875-.167969 8.753906 3.214844 9.082031 7.917969 3.089843 44.933594 64.148437 81.496094 136.113281 81.496094 72.664062 0 133.753906-36.9375 136.175781-82.332032.257813-4.699218 4.269531-8.375 8.964844-8.046874 4.695313.257812 8.300781 4.261718 8.050781 8.964843-2.949218 55.203125-70.238281 98.441407-153.191406 98.441407zm0 0"/><path d="m150.445312 468.445312-14.195312 51.097657 42.578125-38.324219zm0 0"/><path d="m394.554688 468.445312 14.195312 51.097657-42.578125-38.324219zm0 0"/><path d="m272.5 545.085938-17.03125-42.578126h34.0625zm0 0"/></svg>