<svg height="581pt" viewBox="-86 -18 581 581.33275" width="581pt" xmlns="http://www.w3.org/2000/svg"><path d="m46.695312 434.296875c-.003906 0-.011718 0-.015624 0-4.703126-.007813-8.511719-3.824219-8.5-8.523437l.441406-306.5625c2.480468-67.035157 56.289062-119.210938 122.503906-119.210938h77.699219c66.214843 0 120.023437 52.175781 122.5 118.785156l.4375 299.96875c.011719 4.695313-3.800781 8.515625-8.5 8.523438-.007813 0-.011719 0-.011719 0-4.703125 0-8.507812-3.796875-8.515625-8.503906l-.433594-299.542969c-2.132812-57.226563-48.460937-102.199219-105.476562-102.199219h-77.699219c-57.011719 0-103.34375 44.972656-105.472656 102.386719l-.445313 306.371093c-.003906 4.699219-3.816406 8.507813-8.511719 8.507813zm0 0"/><path d="m163.742188 425.78125h-29.644532c-4.703125 0-8.519531-3.808594-8.519531-8.515625s3.816406-8.515625 8.519531-8.515625h29.644532c4.703124 0 8.511718 3.808594 8.511718 8.515625s-3.808594 8.515625-8.511718 8.515625zm0 0"/><path d="m395.835938 545h-391.71875c-4.703126 0-8.515626-3.8125-8.515626-8.519531v-55.449219c0-27.730469 17.703126-52.582031 46.195313-64.847656 4.308594-1.835938 9.332031.132812 11.195313 4.460937 1.855468 4.320313-.132813 9.332031-4.453126 11.191407-22.148437 9.527343-35.910156 28.382812-35.910156 49.195312v46.9375h374.691406v-54.238281c0-26.4375-25.734374-47.949219-57.363281-47.949219h-93.0625c-4.703125 0-8.515625-3.808594-8.515625-8.515625s3.8125-8.515625 8.515625-8.515625h93.0625c41.019531 0 74.394531 29.148438 74.394531 64.980469v62.75c0 4.707031-3.8125 8.519531-8.515624 8.519531zm0 0"/><path d="m63.726562 536.480469c-4.703124 0-8.519531-3.804688-8.519531-8.511719v-17.03125c0-4.703125 3.816407-8.515625 8.519531-8.515625 4.699219 0 8.515626 3.8125 8.515626 8.515625v17.03125c0 4.707031-3.816407 8.511719-8.515626 8.511719zm0 0"/><path d="m336.226562 536.480469c-4.703124 0-8.519531-3.804688-8.519531-8.511719v-25.546875c0-4.707031 3.816407-8.515625 8.519531-8.515625 4.699219 0 8.515626 3.808594 8.515626 8.515625v25.546875c0 4.707031-3.816407 8.511719-8.515626 8.511719zm0 0"/><path d="m199.976562 485.390625c-23.476562 0-42.578124-19.105469-42.578124-42.574219v-55.574218c0-4.707032 3.808593-8.511719 8.515624-8.511719 4.703126 0 8.511719 3.804687 8.511719 8.511719v55.574218c0 14.085938 11.460938 25.539063 25.550781 25.539063 14.085938 0 25.546876-11.453125 25.546876-25.539063v-55.945312c0-4.707032 3.808593-8.515625 8.515624-8.515625 4.703126 0 8.511719 3.808593 8.511719 8.515625v55.945312c0 23.46875-19.097656 42.574219-42.574219 42.574219zm0 0"/><path d="m199.976562 400.230469c-63.011718 0-136.25-70.671875-136.25-161.789063v-25.550781c0-4.707031 3.8125-8.515625 8.515626-8.515625 152.324218 0 246.953124-35.890625 246.953124-93.671875 0-4.707031 3.808594-8.511719 8.511719-8.511719 4.707031 0 8.519531 3.804688 8.519531 8.511719v127.738281c0 91.117188-73.242187 161.789063-136.25 161.789063zm-119.222656-178.859375v17.070312c0 65.570313 53.183594 144.761719 119.222656 144.761719 66.039063 0 119.21875-79.191406 119.21875-144.761719v-82.335937c-34.078124 40.644531-117.878906 64.210937-238.441406 65.265625zm0 0"/><path d="m285.128906 217.144531c0 7.058594-5.714844 12.777344-12.769531 12.777344s-12.777344-5.71875-12.777344-12.777344c0-7.050781 5.722657-12.769531 12.777344-12.769531s12.769531 5.71875 12.769531 12.769531zm0 0"/><path d="m199.976562 545c-4.703124 0-8.519531-3.8125-8.519531-8.519531v-59.605469c0-4.707031 3.816407-8.519531 8.519531-8.519531 4.699219 0 8.515626 3.8125 8.515626 8.519531v59.605469c0 4.707031-3.816407 8.519531-8.515626 8.519531zm0 0"/><path d="m208.492188 298.046875h-17.035157c-9.402343 0-17.03125-7.625-17.03125-17.03125s7.628907-17.035156 17.03125-17.035156h17.035157c9.40625 0 17.03125 7.628906 17.03125 17.035156s-7.625 17.03125-17.03125 17.03125zm0 0"/><path d="m234.039062 289.53125h-68.125c-4.707031 0-8.515624-3.808594-8.515624-8.515625s3.808593-8.515625 8.515624-8.515625h68.125c4.703126 0 8.511719 3.808594 8.511719 8.515625s-3.808593 8.515625-8.511719 8.515625zm0 0"/><path d="m46.695312 519.453125c-4.703124 0-8.515624-3.808594-8.515624-8.515625v-119.21875c0-4.707031 3.8125-8.515625 8.515624-8.515625 4.703126 0 8.511719 3.808594 8.511719 8.515625v110.230469c38.269531-4.253907 68.125-36.785157 68.125-76.167969v-34.0625c0-4.707031 3.816407-8.515625 8.519531-8.515625 4.699219 0 8.515626 3.808594 8.515626 8.515625v34.0625c0 51.652344-42.023438 93.671875-93.671876 93.671875zm0 0"/></svg>