<svg height="581pt" viewBox="-18 -27 581.33275 581" width="581pt" xmlns="http://www.w3.org/2000/svg"><path d="m129.097656 402.761719c-4.019531 0-7.59375-2.851563-8.363281-6.941407-.863281-4.625 2.179687-9.074218 6.804687-9.941406l49.507813-9.277344c4.636719-.882812 9.070313 2.175782 9.9375 6.792969.867187 4.625-2.179687 9.070313-6.800781 9.9375l-49.507813 9.28125c-.53125.101563-1.058593.148438-1.578125.148438zm0 0"/><path d="m536.480469 527.5625h-527.964844c-4.707031 0-8.515625-3.8125-8.515625-8.519531v-26.035157c0-48.214843 34.402344-89.660156 81.789062-98.554687 4.652344-.871094 9.070313 2.175781 9.9375 6.792969.867188 4.625-2.175781 9.074218-6.796874 9.941406-39.339844 7.382812-67.898438 41.796875-67.898438 81.820312v17.523438h510.9375v-18.453125c0-39.535156-28.144531-73.863281-66.914062-81.621094-4.609376-.925781-7.601563-5.410156-6.683594-10.023437.925781-4.613282 5.378906-7.640625 10.023437-6.679688 46.707031 9.347656 80.605469 50.699219 80.605469 98.324219v26.964844c0 4.707031-3.8125 8.519531-8.519531 8.519531zm0 0"/><path d="m417.273438 401.53125c-.550782 0-1.113282-.050781-1.675782-.167969l-49.316406-9.863281c-4.613281-.917969-7.601562-5.402344-6.675781-10.015625.914062-4.621094 5.367187-7.65625 10.015625-6.679687l49.316406 9.859374c4.609375.925782 7.597656 5.410157 6.675781 10.023438-.804687 4.050781-4.367187 6.84375-8.339843 6.84375zm0 0"/><path d="m391.71875 449.941406c-4.703125 0-8.515625-3.8125-8.515625-8.519531v-95.523437c0-4.707032 3.8125-8.519532 8.515625-8.519532s8.511719 3.8125 8.511719 8.519532v95.523437c0 4.707031-3.808594 8.519531-8.511719 8.519531zm0 0"/><path d="m153.28125 449.941406c-4.703125 0-8.515625-3.8125-8.515625-8.519531v-95.523437c0-4.707032 3.8125-8.519532 8.515625-8.519532 4.699219 0 8.515625 3.8125 8.515625 8.519532v95.523437c0 4.707031-3.816406 8.519531-8.515625 8.519531zm0 0"/><path d="m118.097656 195.449219c-7.988281 0-15.074218-4.789063-18.042968-12.207031l-11.546876-28.863282c-.367187-.917968-1.238281-1.507812-2.226562-1.507812-9.542969 0-17.664062-6.957032-19.1875-16.3125l-25.042969-90.0625c-2.046875-7.363282.90625-15.050782 7.347657-19.152344 6.4375-4.109375 14.664062-3.519531 20.464843 1.445312l35.472657 30.410157h39.429687c4.703125 0 8.515625 3.8125 8.515625 8.519531s-3.8125 8.515625-8.515625 8.515625h-42.574219c-2.039062 0-4.003906-.726563-5.546875-2.054687l-37.867187-32.457032 24.867187 90.792969c.117188.398437.199219.808594.25 1.210937.148438 1.210938 1.171875 2.117188 2.386719 2.117188 7.984375 0 15.070312 4.789062 18.039062 12.203125l11.546876 28.867187c.367187.914063 1.238281 1.503907 2.230468 1.503907 4.703125 0 8.515625 3.8125 8.515625 8.519531s-3.8125 8.511719-8.515625 8.511719zm0 0"/><path d="m427.5625 195.292969c-4.074219 0-7.675781-2.929688-8.386719-7.074219-.789062-4.644531 2.332031-9.039062 6.960938-9.828125.816406-.140625 1.503906-.707031 1.816406-1.472656l11.539063-28.859375c2.972656-7.421875 10.0625-12.210938 18.046874-12.210938 1.210938 0 2.238282-.910156 2.386719-2.117187.050781-.402344.132813-.8125.246094-1.210938l25.191406-90.578125-38.191406 32.242188c-1.546875 1.324218-3.515625 2.050781-5.546875 2.050781h-42.578125c-4.699219 0-8.515625-3.808594-8.515625-8.515625s3.816406-8.519531 8.515625-8.519531h39.429687l35.46875-30.398438c5.8125-4.980469 14.039063-5.546875 20.464844-1.457031 6.449219 4.101562 9.402344 11.789062 7.355469 19.152344l-25.046875 90.0625c-1.519531 9.355468-9.644531 16.3125-19.183594 16.3125-.988281 0-1.863281.589844-2.230468 1.515625l-11.539063 28.847656c-2.492187 6.230469-8.148437 10.800781-14.753906 11.933594-.484375.082031-.972657.125-1.449219.125zm0 0"/><path d="m394.695312 352.433594c-2.75 0-5.449218-1.332032-7.09375-3.792969-2.605468-3.90625-1.554687-9.195313 2.359376-11.808594l27.304687-18.207031v-165.753906c0-75.125-64.941406-136.25-144.765625-136.25s-144.765625 61.125-144.765625 136.25v165.753906l27.089844 18.0625c3.914062 2.613281 4.96875 7.90625 2.363281 11.8125-2.617188 3.90625-7.898438 4.957031-11.8125 2.359375l-30.882812-20.59375c-2.367188-1.574219-3.789063-4.234375-3.789063-7.078125v-170.316406c0-84.511719 72.582031-153.277344 161.796875-153.277344s161.796875 68.765625 161.796875 153.277344v170.316406c0 2.84375-1.421875 5.503906-3.789063 7.085938l-31.09375 20.726562c-1.453124.96875-3.09375 1.433594-4.71875 1.433594zm0 0"/><path d="m317.8125 443.480469c-1.449219 0-2.910156-.085938-4.382812-.25l-3.152344-.011719c-4.703125-.007812-8.503906-3.832031-8.492188-8.53125.015625-4.695312 3.820313-8.496094 8.515625-8.496094h.019531l3.65625.003906c.359376 0 .710938.027344 1.066407.066407 7.882812 1.0625 15.757812-2.679688 18.296875-8.605469.199218-.457031.4375-.898438.710937-1.3125l36.878907-56.101562c.191406-.300782.402343-.582032.632812-.847657 8.953125-10.519531 12.957031-23.34375 11.265625-36.109375l-3.597656-40.96875-105.058594 21.027344c-1.105469.214844-2.238281.214844-3.339844 0l-105.050781-21.027344-3.554688 40.574219c-1.734374 13.144531 2.269532 25.984375 11.242188 36.515625.222656.261719.4375.542969.628906.835938l36.792969 55.929687c.273437.425781.511719.863281.707031 1.332031 2.570313 5.980469 10.53125 9.734375 18.464844 8.578125.394531-.046875.585938-.15625 1.175781-.070312l4.808594.003906c4.703125.007813 8.507813 3.824219 8.5 8.53125-.007813 4.703125-3.820313 8.503906-8.515625 8.503906-.003906 0-.007812 0-.019531 0l-4.253907-.011719c-15.050781 1.863282-29.722656-5.695312-35.472656-18.078124l-36.140625-54.929688c-11.882812-14.179688-17.160156-31.558594-14.839843-49.007812l4.339843-49.667969c.210938-2.417969 1.4375-4.625 3.378907-6.082031 1.933593-1.445313 4.402343-2.011719 6.777343-1.527344l112.699219 22.570312 112.703125-22.570312c2.371094-.445313 4.84375.085937 6.78125 1.527344 1.9375 1.457031 3.164063 3.664062 3.375 6.078124l4.390625 50.070313c2.269531 17.066406-2.992188 34.429687-14.871094 48.601563l-36.21875 55.101562c-5.21875 11.25-17.386718 18.355469-30.847656 18.355469zm0 0"/><path d="m306.566406 331.699219h-68.125c-4.707031 0-8.519531-3.804688-8.519531-8.511719s3.8125-8.519531 8.519531-8.519531h68.125c4.699219 0 8.511719 3.8125 8.511719 8.519531s-3.8125 8.511719-8.511719 8.511719zm0 0"/><path d="m246.953125 246.542969-42.578125-42.574219h-31.9375l9.734375 14.589844c7.398437 11.105468 18.910156 18.816406 31.992187 21.433594zm0 0"/><path d="m300.175781 246.542969 42.578125-42.574219h31.9375l-9.734375 14.589844c-7.398437 11.105468-18.910156 18.816406-31.992187 21.433594zm0 0"/><path d="m315.8125 156.332031-31.816406-71.585937h-22.992188l-31.816406 71.585937-15.558594-6.917969 36.304688-81.695312h45.132812l36.304688 81.695312zm0 0"/><path d="m238.441406 110.292969h68.125v17.03125h-68.125zm0 0"/><path d="m306.566406 459.4375h-68.125c-4.707031 0-8.519531-3.8125-8.519531-8.519531v-34.058594c0-4.707031 3.8125-8.519531 8.519531-8.519531h68.125c4.699219 0 8.511719 3.8125 8.511719 8.519531v34.058594c0 4.707031-3.8125 8.519531-8.511719 8.519531zm-59.613281-17.03125h51.09375v-17.035156h-51.09375zm0 0"/><path d="m127.734375 527.5625h-42.578125c-4.703125 0-8.515625-3.8125-8.515625-8.519531v-127.730469c0-4.707031 3.8125-8.519531 8.515625-8.519531h42.578125c4.703125 0 8.515625 3.8125 8.515625 8.519531v127.730469c0 4.707031-3.8125 8.519531-8.515625 8.519531zm-34.0625-17.03125h25.546875v-110.703125h-25.546875zm0 0"/><path d="m459.84375 527.5625h-42.578125c-4.699219 0-8.515625-3.8125-8.515625-8.519531v-127.730469c0-4.707031 3.816406-8.519531 8.515625-8.519531h42.578125c4.703125 0 8.511719 3.8125 8.511719 8.519531v127.730469c0 4.707031-3.808594 8.519531-8.511719 8.519531zm-34.0625-17.03125h25.546875v-110.703125h-25.546875zm0 0"/><path d="m442.816406 118.8125h-17.035156c-4.703125 0-8.515625-3.8125-8.515625-8.519531s3.8125-8.511719 8.515625-8.511719h17.035156c4.699219 0 8.511719 3.804688 8.511719 8.511719s-3.8125 8.519531-8.511719 8.519531zm0 0"/><path d="m119.21875 118.8125h-17.027344c-4.707031 0-8.519531-3.8125-8.519531-8.519531s3.8125-8.511719 8.519531-8.511719h17.027344c4.703125 0 8.515625 3.804688 8.515625 8.511719s-3.8125 8.519531-8.515625 8.519531zm0 0"/></svg>