<svg height="581pt" viewBox="-18 -18 581 581.33275" width="581pt" xmlns="http://www.w3.org/2000/svg"><path d="m417.359375 281.015625c-2.363281 0-4.734375-.242187-7.046875-.734375-4.605469-.953125-7.558594-5.46875-6.597656-10.066406.949218-4.601563 5.46875-7.59375 10.070312-6.597656 10.425782 2.140624 20.601563-6.085938 20.601563-16.664063 0-9.390625-7.644531-17.03125-17.035157-17.03125-.988281 0-1.96875.082031-2.917968.238281-4.625.800782-9.027344-2.320312-9.816406-6.957031-.800782-4.632813 2.316406-9.035156 6.960937-9.824219 1.875-.320312 3.804687-.488281 5.78125-.488281 18.78125 0 34.058594 15.277344 34.058594 34.0625s-15.277344 34.0625-34.058594 34.0625zm0 0"/><path d="m127.824219 281.015625c-18.785157 0-34.0625-15.277344-34.0625-34.0625s15.277343-34.0625 34.0625-34.0625c1.898437 0 3.761719.15625 5.582031.449219 4.640625.765625 7.792969 5.140625 7.039062 9.78125-.777343 4.632812-5.167968 7.742187-9.785156 7.035156-.921875-.160156-1.871094-.234375-2.835937-.234375-9.386719 0-17.03125 7.640625-17.03125 17.03125s7.644531 17.027344 17.03125 17.027344c1.171875 0 2.328125-.113281 3.433593-.335938 4.648438-.925781 9.117188 2.027344 10.058594 6.628907.945313 4.605468-2.023437 9.113281-6.628906 10.050781-2.238281.460937-4.539062.691406-6.863281.691406zm0 0"/><path d="m272.589844 545c-4.707032 0-8.515625-3.8125-8.515625-8.519531v-25.542969c0-4.703125 3.808593-8.515625 8.515625-8.515625 4.707031 0 8.519531 3.8125 8.519531 8.515625v25.542969c0 4.707031-3.8125 8.519531-8.519531 8.519531zm0 0"/><path d="m536.578125 545h-527.96875c-4.707031 0-8.5195312-3.8125-8.5195312-8.519531v-79.796875c0-17.066406 12.1796872-31.730469 28.9414062-34.875l87.277344-13.660156c4.664062-.679688 9.003906 2.460937 9.726562 7.105468.726563 4.648438-2.449218 9-7.097656 9.726563l-87.023438 13.609375c-8.464843 1.589844-14.792968 9.21875-14.792968 18.09375v71.285156h510.9375v-71.558594c0-8.765625-6.234375-16.382812-14.835938-18.101562l-87.050781-13.527344c-4.652344-.722656-7.835937-5.074219-7.113281-9.714844.726562-4.648437 5.09375-7.777344 9.722656-7.117187l87.414062 13.589843c16.902344 3.378907 28.890626 18.019532 28.890626 34.871094v80.070313c.003906 4.707031-3.800782 8.519531-8.507813 8.519531zm0 0"/><path d="m161.886719 353.277344v56.367187l-25.546875 3.996094"/><path d="m136.332031 422.15625c-4.125 0-7.75-3.003906-8.40625-7.203125-.726562-4.648437 2.449219-9 7.105469-9.726563l18.339844-2.863281v-49.085937c0-4.707032 3.808594-8.511719 8.515625-8.511719s8.519531 3.804687 8.519531 8.511719v56.367187c0 4.203125-3.054688 7.769531-7.203125 8.421875l-25.546875 3.992188c-.441406.0625-.890625.097656-1.324219.097656zm0 0"/><path d="m410.902344 413.789062-27.609375-4.292968v-53.058594"/><path d="m410.910156 422.304688c-.425781 0-.871094-.035157-1.308594-.101563l-27.613281-4.289063c-4.148437-.652343-7.207031-4.21875-7.207031-8.417968v-53.0625c0-4.707032 3.804688-8.519532 8.511719-8.519532s8.519531 3.8125 8.519531 8.519532v45.773437l20.394531 3.164063c4.652344.722656 7.835938 5.074218 7.113281 9.722656-.65625 4.210938-4.28125 7.210938-8.410156 7.210938zm0 0"/><path d="m119.3125 468.355469c-4.707031 0-8.519531-3.804688-8.519531-8.511719v-68.125c0-4.707031 3.8125-8.515625 8.519531-8.515625s8.511719 3.808594 8.511719 8.515625v68.125c0 4.707031-3.804688 8.511719-8.511719 8.511719zm0 0"/><path d="m425.871094 468.355469c-4.707032 0-8.511719-3.804688-8.511719-8.511719v-68.125c0-4.707031 3.804687-8.515625 8.511719-8.515625 4.707031 0 8.515625 3.808594 8.515625 8.515625v68.125c0 4.707031-3.808594 8.511719-8.515625 8.511719zm0 0"/><path d="m383.292969 356.441406v60.824219l-110.703125 17.03125-110.703125-17.03125v-60.824219c-26.320313 9.171875-42.574219 21.582032-42.574219 35.277344 0 28.21875 68.625 51.097656 153.277344 51.097656s153.28125-22.878906 153.28125-51.097656c0-13.695312-16.253906-26.105469-42.578125-35.277344zm0 0"/><path d="m272.589844 451.328125c-78.433594 0-161.796875-20.890625-161.796875-59.609375 0-12.082031 8.375-29.40625 48.292969-43.316406 2.613281-.90625 5.488281-.503906 7.734374 1.09375 2.246094 1.601562 3.585938 4.1875 3.585938 6.945312v53.515625l102.183594 15.726563 102.191406-15.726563v-53.515625c0-2.757812 1.335938-5.34375 3.582031-6.945312 2.238281-1.585938 5.113281-2 7.738281-1.09375 39.910157 13.910156 48.285157 31.234375 48.285157 43.316406 0 38.71875-83.359375 59.609375-161.796875 59.609375zm110.703125-34.0625h.082031zm8.519531-48.324219v45.632813c16.578125-7.371094 25.546875-15.675781 25.546875-22.855469 0-7.292969-9.53125-15.636719-25.546875-22.777344zm-238.441406 0c-16.015625 7.140625-25.546875 15.484375-25.546875 22.777344 0 7.179688 8.964843 15.480469 25.546875 22.855469zm0 0"/><path d="m230.011719 398.589844c-.480469 0-.964844-.042969-1.457031-.125-58.367188-10.074219-100.730469-60.441406-100.730469-119.761719v-147.140625c0-63.15625 51.375-114.53125 114.53125-114.53125h27.964843c4.707032 0 8.515626 3.808594 8.515626 8.515625s-3.808594 8.519531-8.515626 8.519531h-27.964843c-53.765625 0-97.496094 43.730469-97.496094 97.496094v147.140625c0 51.011719 36.414063 94.320313 86.589844 102.980469 4.636719.796875 7.746093 5.203125 6.949219 9.835937-.714844 4.148438-4.320313 7.070313-8.386719 7.070313zm0 0"/><path d="m315.167969 398.589844c-4.0625 0-7.664063-2.917969-8.378907-7.070313-.800781-4.632812 2.308594-9.039062 6.941407-9.835937 21.714843-3.753906 41.375-14.113282 56.855469-29.964844 3.292968-3.375 8.683593-3.414062 12.042968-.144531 3.367188 3.285156 3.433594 8.675781.148438 12.039062-18.015625 18.445313-40.882813 30.492188-66.152344 34.851563-.492188.082031-.972656.125-1.457031.125zm0 0"/><path d="m230.011719 208.632812c0 7.054688-5.71875 12.773438-12.769531 12.773438-7.054688 0-12.777344-5.71875-12.777344-12.773438 0-7.054687 5.722656-12.777343 12.777344-12.777343 7.050781 0 12.769531 5.722656 12.769531 12.777343zm0 0"/><path d="m332.199219 545h-119.214844c-4.707031 0-8.519531-3.8125-8.519531-8.519531 0-37.5625 30.5625-68.125 68.125-68.125s68.125 30.5625 68.125 68.125c0 4.707031-3.808594 8.519531-8.515625 8.519531zm-109.996094-17.03125h100.777344c-4.070313-24.132812-25.113281-42.578125-50.390625-42.578125-25.269532 0-46.320313 18.445313-50.386719 42.578125zm0 0"/><path d="m434.398438 545c-2.894532 0-5.714844-1.472656-7.316407-4.132812l-25.539062-42.578126c-2.421875-4.035156-1.117188-9.261718 2.917969-11.683593 4.039062-2.421875 9.261718-1.109375 11.679687 2.917969l25.546875 42.578124c2.421875 4.035157 1.117188 9.269532-2.917969 11.683594-1.371093.824219-2.886719 1.214844-4.371093 1.214844zm0 0"/><path d="m468.457031 545c-2.890625 0-5.710937-1.472656-7.308593-4.132812l-25.546876-42.578126c-2.421874-4.035156-1.109374-9.261718 2.917969-11.683593 4.035157-2.417969 9.273438-1.109375 11.683594 2.917969l25.550781 42.578124c2.414063 4.035157 1.109375 9.269532-2.921875 11.683594-1.371093.824219-2.882812 1.214844-4.375 1.214844zm0 0"/><path d="m400.332031 545c-2.894531 0-5.710937-1.472656-7.308593-4.132812l-25.546876-42.578126c-2.421874-4.035156-1.109374-9.261718 2.917969-11.683593 4.035157-2.417969 9.261719-1.109375 11.683594 2.917969l25.550781 42.578124c2.414063 4.035157 1.109375 9.269532-2.921875 11.683594-1.371093.824219-2.882812 1.214844-4.375 1.214844zm0 0"/><path d="m110.785156 545c-1.488281 0-3.003906-.390625-4.371094-1.214844-4.035156-2.421875-5.339843-7.648437-2.921874-11.683594l25.542968-42.578124c2.417969-4.035157 7.648438-5.339844 11.6875-2.917969 4.035156 2.421875 5.339844 7.648437 2.917969 11.683593l-25.546875 42.578126c-1.59375 2.660156-4.414062 4.132812-7.308594 4.132812zm0 0"/><path d="m76.722656 545c-1.484375 0-3-.390625-4.375-1.214844-4.035156-2.421875-5.339844-7.648437-2.917968-11.683594l25.546874-42.578124c2.421876-4.035157 7.640626-5.339844 11.683594-2.917969 4.035156 2.421875 5.335938 7.648437 2.921875 11.683593l-25.550781 42.578126c-1.59375 2.660156-4.414062 4.132812-7.308594 4.132812zm0 0"/><path d="m144.847656 545c-1.484375 0-3-.390625-4.375-1.214844-4.035156-2.421875-5.339844-7.648437-2.917968-11.683594l25.546874-42.578124c2.421876-4.035157 7.640626-5.339844 11.683594-2.917969 4.035156 2.421875 5.339844 7.648437 2.917969 11.683593l-25.546875 42.578126c-1.59375 2.660156-4.414062 4.132812-7.308594 4.132812zm0 0"/><path d="m377.761719 364.875c-7.589844 0-15.148438-2.253906-21.863281-6.738281l-28.421876-18.941407c-3.035156-2.019531-4.445312-5.753906-3.503906-9.28125l14.613282-54.8125-67.394532-11.230468c-4.105468-.683594-7.117187-4.234375-7.117187-8.402344v-246.953125c0-4.707031 3.808593-8.515625 8.515625-8.515625h5.921875c76.558593 0 138.847656 62.289062 138.847656 138.847656v186.402344c0 14.828125-7.8125 27.859375-20.886719 34.859375-5.949218 3.183594-12.347656 4.765625-18.710937 4.765625zm-35.765625-36.464844 23.355468 15.558594c7.027344 4.691406 15.640626 5.105469 23.09375 1.125 7.445313-3.988281 11.882813-11.402344 11.882813-19.84375v-186.402344c0-66.308594-53.238281-120.40625-119.21875-121.792968v231.203124l69.523437 11.585938c2.367188.390625 4.457032 1.769531 5.761719 3.78125 1.296875 2.023438 1.6875 4.488281 1.0625 6.8125zm0 0"/><path d="m357.746094 187.34375s-8.511719 51.097656-53.132813 30.777344c0 0-4.101562-29.25 53.132813-30.777344zm0 0"/><path d="m289.621094 102.191406c0 9.402344-7.625 17.027344-17.03125 17.027344-9.402344 0-17.027344-7.625-17.027344-17.027344 0-9.410156 7.625-17.035156 17.027344-17.035156 9.40625 0 17.03125 7.625 17.03125 17.035156zm0 0"/><path d="m298.136719 357.65625h-51.09375l-17.03125 34.0625h85.15625zm0 0"/><path d="m315.167969 400.230469h-85.15625c-2.953125 0-5.683594-1.527344-7.238281-4.039063-1.554688-2.507812-1.703126-5.640625-.375-8.28125l17.027343-34.0625c1.449219-2.882812 4.390625-4.707031 7.617188-4.707031h51.09375c3.226562 0 6.171875 1.820313 7.617187 4.707031l17.03125 34.0625c1.324219 2.636719 1.183594 5.773438-.371094 8.28125-1.558593 2.515625-4.292968 4.039063-7.246093 4.039063zm-71.375-17.027344h57.601562l-8.519531-17.03125h-40.5625zm0 0"/><path d="m306.65625 315.078125h-68.125c-4.707031 0-8.519531-3.804687-8.519531-8.511719 0-4.707031 3.8125-8.519531 8.519531-8.519531h68.125c4.707031 0 8.511719 3.8125 8.511719 8.519531 0 4.707032-3.804688 8.511719-8.511719 8.511719zm0 0"/></svg>