<svg height="581pt" viewBox="-18 -18 581 581.3303" width="581pt" xmlns="http://www.w3.org/2000/svg"><path d="m129.773438 420.09375c-4.019532 0-7.589844-2.851562-8.359376-6.945312-.863281-4.625 2.175782-9.074219 6.800782-9.933594l20.679687-3.878906c4.597657-.878907 9.066407 2.175781 9.933594 6.796874.863281 4.625-2.175781 9.074219-6.800781 9.933594l-20.675782 3.875c-.53125.101563-1.054687.152344-1.578124.152344zm0 0"/><path d="m536.566406 544.996094h-527.964844c-4.703124 0-8.5117182-3.804688-8.5117182-8.511719v-26.039063c0-48.214843 34.3945312-89.660156 81.7851562-98.546874 4.640625-.875 9.074219 2.167968 9.941406 6.789062.867188 4.625-2.179687 9.074219-6.796875 9.9375-39.34375 7.386719-67.902343 41.796875-67.902343 81.820312v17.523438h510.933593v-18.453125c0-39.539063-28.144531-73.863281-66.914062-81.621094-4.613281-.925781-7.601563-5.410156-6.679688-10.023437.921875-4.613282 5.398438-7.636719 10.023438-6.675782 46.703125 9.34375 80.601562 50.695313 80.601562 98.320313v26.96875c0 4.707031-3.816406 8.511719-8.515625 8.511719zm0 0"/><path d="m415.636719 418.621094c-.554688 0-1.117188-.050782-1.675781-.164063l-21.1875-4.234375c-4.609376-.921875-7.601563-5.40625-6.679688-10.019531.914062-4.601563 5.398438-7.644531 10.011719-6.679687l21.1875 4.234374c4.609375.917969 7.605469 5.402344 6.683593 10.015626-.808593 4.046874-4.363281 6.847656-8.339843 6.847656zm0 0"/><path d="m391.804688 458.863281c-4.707032 0-8.519532-3.808593-8.519532-8.515625v-82.339844c0-4.707031 3.8125-8.511718 8.519532-8.511718 4.703124 0 8.511718 3.804687 8.511718 8.511718v82.339844c0 4.707032-3.808594 8.515625-8.511718 8.515625zm0 0"/><path d="m153.367188 458.863281c-4.703126 0-8.515626-3.808593-8.515626-8.515625v-78.777344c0-4.707031 3.8125-8.515624 8.515626-8.515624 4.703124 0 8.515624 3.808593 8.515624 8.515624v78.777344c0 4.707032-3.8125 8.515625-8.515624 8.515625zm0 0"/><path d="m144.851562 544.996094h-59.609374c-4.699219 0-8.515626-3.804688-8.515626-8.511719v-127.734375c0-4.707031 3.816407-8.511719 8.515626-8.511719h42.578124c4.269532 0 7.875 3.15625 8.4375 7.390625l17.035157 127.734375c.324219 2.425781-.414063 4.878907-2.035157 6.734375-1.617187 1.847656-3.953124 2.898438-6.40625 2.898438zm-51.089843-17.027344h41.367187l-14.765625-110.703125h-26.601562zm0 0"/><path d="m459.929688 544.996094h-59.613282c-2.449218 0-4.789062-1.050782-6.40625-2.898438-1.617187-1.855468-2.359375-4.308594-2.03125-6.734375l17.027344-127.734375c.566406-4.230468 4.175781-7.390625 8.441406-7.390625h42.582032c4.699218 0 8.511718 3.804688 8.511718 8.511719v127.734375c0 4.707031-3.8125 8.511719-8.511718 8.511719zm-49.886719-17.027344h41.367187v-110.703125h-26.609375zm0 0"/><path d="m423.324219 197.585938c-.738281 0-1.496094-.09375-2.246094-.304688-4.539063-1.238281-7.214844-5.917969-5.972656-10.460938l18.511719-67.8125c3.113281-11.386718-3.78125-23.285156-16.035157-27.675781l-203.355469-73.308593-23.71875 16.519531c-3.859374 2.683593-9.167968 1.734375-11.855468-2.121094-2.6875-3.859375-1.734375-9.164063 2.125-11.851563l27.332031-19.035156c2.265625-1.5937498 5.160156-1.96875 7.757813-1.019531l207.476562 74.796875c20.695312 7.414062 32.183594 28.136719 26.707031 48.1875l-18.515625 67.816406c-1.03125 3.777344-4.46875 6.269532-8.210937 6.269532zm0 0"/><path d="m126.023438 224.496094c-3.878907 0-7.382813-2.671875-8.289063-6.613282l-24.621094-107.070312c-4.058593-17.652344 4.921875-35.8125 21.871094-44.414062l7.96875-5.542969c3.851563-2.6875 9.167969-1.738281 11.855469 2.117187 2.683594 3.859375 1.738281 9.164063-2.125 11.851563l-8.480469 5.90625c-.355469.246093-.734375.472656-1.128906.660156-10.347657 5.058594-15.722657 15.34375-13.359375 25.613281l24.613281 107.070313c1.054687 4.578125-1.804687 9.144531-6.386719 10.203125-.636718.148437-1.285156.21875-1.917968.21875zm0 0"/><path d="m327.511719 435.363281c-1.816407 0-3.648438-.09375-5.488281-.292969l-51.351563-4.058593-47.519531 3.894531c-17.390625 1.953125-34.214844-5.175781-41.140625-17.433594l-43.875-54.925781c-14.398438-14.128906-20.871094-31.535156-18.273438-49.15625l-.023437-194.167969c0-2.675781 1.257812-5.203125 3.40625-6.8125 2.132812-1.613281 4.90625-2.132812 7.488281-1.363281l115.089844 33.484375 169.335937-33.65625c2.484375-.535156 5.089844.148438 7.058594 1.769531 1.96875 1.613281 3.113281 4.035157 3.113281 6.578125l-.023437 194.1875c2.601562 17.605469-3.855469 35-18.238282 49.132813l-43.992187 55.097656c-6.148437 10.863281-20.171875 17.722656-35.566406 17.722656zm-56.851563-21.40625c.226563 0 .449219.003907.667969.023438l52.265625 4.132812c11.988281 1.308594 21.960938-3.660156 24.816406-9.140625.25-.488281.554688-.945312.894532-1.378906l44.785156-56.097656c.226562-.28125.472656-.550782.734375-.808594 10.738281-10.394531 15.558593-22.917969 13.5625-35.273438-.070313-.449218-.109375-.902343-.109375-1.359374l.027344-184.453126-161.203126 32.03125c-1.339843.257813-2.726562.210938-4.039062-.175781l-106.195312-30.890625.027343 183.472656c0 .453126-.039062.90625-.109375 1.359376-1.992187 12.367187 2.835938 24.894531 13.59375 35.296874.253906.253907.503906.527344.730469.808594l44.675781 55.929688c.34375.429687.640625.886718.898438 1.378906 2.886718 5.542969 12.96875 10.542969 24.816406 9.136719l48.464844-3.96875c.234375-.019531.460937-.023438.695312-.023438zm0 0"/><path d="m315.164062 332.113281h-85.15625c-4.703124 0-8.515624-3.8125-8.515624-8.519531s3.8125-8.511719 8.515624-8.511719h85.15625c4.699219 0 8.515626 3.804688 8.515626 8.511719s-3.816407 8.519531-8.515626 8.519531zm0 0"/><path d="m127.820312 306.566406h-19.109374c-12.9375 0-23.46875-10.53125-23.46875-23.46875v-72.28125c0-12.941406 10.53125-23.464844 23.46875-23.464844h19.109374c4.703126 0 8.515626 3.804688 8.515626 8.511719v102.1875c0 4.703125-3.8125 8.515625-8.515626 8.515625zm-19.109374-102.191406c-3.554688 0-6.4375 2.886719-6.4375 6.4375v72.28125c0 3.550781 2.882812 6.4375 6.4375 6.4375h10.597656v-85.15625zm0 0"/><path d="m436.460938 306.566406h-19.113282c-4.703125 0-8.515625-3.8125-8.515625-8.519531v-102.183594c0-4.707031 3.8125-8.515625 8.515625-8.515625h19.113282c12.9375 0 23.46875 10.527344 23.46875 23.464844v72.28125c0 12.941406-10.53125 23.472656-23.46875 23.472656zm-10.597657-17.03125h10.597657c3.546874 0 6.433593-2.882812 6.433593-6.4375v-72.28125c0-3.550781-2.886719-6.433594-6.433593-6.433594h-10.597657zm0 0"/><path d="m323.679688 93.675781c-1.011719 0-2.035157-.175781-3.035157-.554687l-169.859375-64.710938-14.699218 58.8125c-1.140626 4.570313-5.765626 7.347656-10.332032 6.195313-4.5625-1.140625-7.332031-5.765625-6.199218-10.320313l17.035156-68.125c.589844-2.363281 2.167968-4.359375 4.324218-5.492187 2.152344-1.121094 4.695313-1.28125 6.964844-.402344l178.828125 68.125c4.394531 1.667969 6.601563 6.59375 4.925781 10.992187-1.289062 3.394532-4.527343 5.480469-7.953124 5.480469zm0 0"/><path d="m417.347656 272.5h-289.527344c-4.703124 0-8.511718-3.804688-8.511718-8.511719v-85.152343c0-4.707032 3.808594-8.519532 8.511718-8.519532h289.527344c4.707032 0 8.515625 3.8125 8.515625 8.519532v85.152343c0 4.707031-3.808593 8.511719-8.515625 8.511719zm-281.011718-17.027344h272.496093v-68.125h-272.496093zm0 0"/><path d="m362 238.441406h-178.828125c-7.054687 0-12.773437-5.722656-12.773437-12.777344 0-7.050781 5.71875-12.769531 12.773437-12.769531h178.828125c7.054688 0 12.769531 5.71875 12.769531 12.769531 0 7.054688-5.714843 12.777344-12.769531 12.777344zm0 0"/></svg>