<svg height="581pt" viewBox="-18 -27 581.33569 581" width="581pt" xmlns="http://www.w3.org/2000/svg"><path d="m536.480469 527.5625h-527.964844c-4.707031 0-8.515625-3.8125-8.515625-8.519531 0-51.648438 42.023438-93.667969 93.671875-93.667969h85.15625c4.699219 0 8.515625 3.808594 8.515625 8.515625s-3.816406 8.515625-8.515625 8.515625h-85.15625c-39.378906 0-71.921875 29.855469-76.167969 68.125h509.996094c-4.25-38.269531-36.789062-68.125-76.167969-68.125h-85.160156c-4.703125 0-8.515625-3.808594-8.515625-8.515625s3.8125-8.515625 8.515625-8.515625h85.160156c51.648438 0 93.671875 42.019531 93.671875 93.667969-.007812 4.707031-3.816406 8.519531-8.523437 8.519531zm0 0"/><path d="m393.960938 348.160156c-2.675782 0-5.308594-1.257812-6.964844-3.601562-2.707032-3.839844-1.796875-9.15625 2.046875-11.875l19.710937-13.910156v-165.894532c0-19.046875-3.855468-37.46875-11.445312-54.75-1.890625-4.304687.066406-9.328125 4.371094-11.222656 4.320312-1.855469 9.339843.0625 11.21875 4.375 8.546874 19.457031 12.878906 40.179688 12.878906 61.597656v170.308594c0 2.773438-1.339844 5.363281-3.601563 6.960938l-23.3125 16.457031c-1.496093 1.046875-3.207031 1.554687-4.902343 1.554687zm0 0"/><path d="m152.613281 349.265625c-1.695312 0-3.414062-.507813-4.902343-1.554687l-24.886719-17.5625c-2.265625-1.597657-3.605469-4.1875-3.605469-6.960938v-170.308594c0-18.484375 3.253906-36.546875 9.671875-53.703125 1.644531-4.394531 6.570313-6.605469 10.960937-4.988281 4.398438 1.644531 6.636719 6.550781 4.988282 10.960938-5.699219 15.234374-8.589844 31.292968-8.589844 47.730468v165.894532l21.277344 15.015624c3.84375 2.710938 4.757812 8.027344 2.046875 11.871094-1.65625 2.347656-4.292969 3.605469-6.960938 3.605469zm0 0"/><path d="m161.792969 68.101562c-1.941407 0-3.890625-.65625-5.488281-2-3.59375-3.035156-4.046876-8.410156-1.019532-12.003906 29.222656-34.636718 71.941406-54.503906 117.214844-54.503906 43.78125 0 85.574219 18.792969 114.664062 51.550781 3.117188 3.519531 2.800782 8.898438-.71875 12.027344-3.507812 3.125-8.898437 2.808594-12.019531-.714844-25.855469-29.125-63.007812-45.828125-101.925781-45.828125-40.238281 0-78.21875 17.664063-104.195312 48.449219-1.683594 1.992187-4.085938 3.023437-6.511719 3.023437zm0 0"/><path d="m364.476562 194.871094s-28.21875 33.824218-64.914062 26.871094c0 0-2.804688-31.023438 64.914062-26.871094zm0 0"/><path d="m179.757812 194.828125s28.167969 33.863281 64.875 26.957031c0 0 2.851563-31.019531-64.875-26.957031zm0 0"/><path d="m317.808594 443.476562c-1.445313 0-2.90625-.082031-4.378906-.246093l-81.679688-.191407c-14.980469 1.886719-29.714844-5.699218-35.46875-18.082031l-36.136719-54.925781c-11.890625-14.179688-17.160156-31.558594-14.847656-49.007812l4.355469-41.304688c.363281-3.425781 2.746094-6.285156 6.039062-7.265625l114.375-34.066406c1.589844-.480469 3.273438-.480469 4.863282 0l114.382812 34.066406c3.292969.980469 5.671875 3.839844 6.035156 7.261719l4.386719 41.550781c2.285156 17.226563-2.976563 34.585937-14.859375 48.757813l-36.214844 55.097656c-5.21875 11.257812-17.386718 18.355468-30.851562 18.355468zm-86.589844-17.472656h.019531l82.738281.195313c.355469 0 .710938.023437 1.058594.0625 7.910156 1.050781 15.753906-2.683594 18.304688-8.605469.199218-.457031.4375-.898438.710937-1.3125l36.875-56.101562c.191407-.300782.40625-.578126.632813-.847657 8.957031-10.519531 12.957031-23.34375 11.261718-36.105469l-3.816406-36.136718-106.503906-31.726563-106.503906 31.726563-3.78125 35.882812c-1.730469 12.996094 2.28125 25.839844 11.25 36.367188.226562.265625.441406.546875.628906.839844l36.796875 55.925781c.269531.421875.507813.867187.703125 1.328125 2.574219 5.988281 10.515625 9.722656 18.46875 8.585937.378906-.046875.769531-.078125 1.15625-.078125zm0 0"/><path d="m306.5625 314.667969h-68.125c-4.707031 0-8.515625-3.804688-8.515625-8.511719s3.808594-8.515625 8.515625-8.515625h68.125c4.703125 0 8.511719 3.808594 8.511719 8.515625s-3.808594 8.511719-8.511719 8.511719zm0 0"/><path d="m178.828125 467.953125c-4.703125 0-8.515625-3.808594-8.515625-8.515625v-76.644531c0-4.707031 3.8125-8.511719 8.515625-8.511719 4.699219 0 8.515625 3.804688 8.515625 8.511719v76.644531c0 4.707031-3.816406 8.515625-8.515625 8.515625zm0 0"/><path d="m366.171875 467.953125c-4.703125 0-8.519531-3.808594-8.519531-8.515625v-76.644531c0-4.707031 3.816406-8.511719 8.519531-8.511719 4.699219 0 8.515625 3.804688 8.515625 8.511719v76.644531c0 4.707031-3.816406 8.515625-8.515625 8.515625zm0 0"/><path d="m366.734375 121.074219c-4.699219 0-8.511719-3.8125-8.511719-8.519531 0-4.707032 3.8125-8.511719 8.511719-8.511719 23.128906 0 41.949219-25.566407 42-57.023438-5.058594 7.105469-11.617187 13.199219-19.398437 17.863281-17.429688 10.460938-38.320313 12.363282-57.304688 5.199219l-2.914062-1.101562c-4.398438-1.660157-6.621094-6.578125-4.957032-10.972657 1.667969-4.410156 6.570313-6.613281 10.976563-4.957031l2.910156 1.097657c14.082031 5.304687 29.582031 3.890624 42.53125-3.863282 12.390625-7.4375 20.554687-19.761718 22.394531-33.828125.503906-3.839843 3.597656-7.324219 7.441406-7.804687 3.832032-.515625 7.585938 1.210937 9.023438 4.804687 4.195312 10.480469 6.324219 21.730469 6.324219 33.441407 0 40.90625-26.476563 74.175781-59.027344 74.175781zm0 0"/><path d="m169.742188 121.074219c-32.546876 0-59.027344-33.269531-59.027344-74.183594 0-11.707031 2.132812-22.957031 6.328125-33.433594 1.445312-3.617187 5.125-5.789062 9.023437-5.273437 3.859375.507812 6.878906 3.578125 7.335938 7.441406 1.945312 14.894531 10.105468 27.21875 22.5 34.652344 12.960937 7.757812 28.460937 9.179687 42.542968 3.867187l2.898438-1.097656c4.394531-1.65625 9.3125.546875 10.976562 4.957031 1.664063 4.394532-.558593 9.308594-4.960937 10.972656l-2.902344 1.101563c-19.007812 7.167969-39.878906 5.261719-57.3125-5.199219-7.78125-4.664062-14.339843-10.761718-19.398437-17.863281.050781 31.460937 18.867187 57.023437 41.996094 57.023437 4.703124 0 8.519531 3.808594 8.519531 8.515626 0 4.707031-3.816407 8.519531-8.519531 8.519531zm0 0"/></svg>