<svg height="581pt" viewBox="-44 -18 581 581.33275" width="581pt" xmlns="http://www.w3.org/2000/svg"><path d="m407.175781 227.355469c-4.707031 0-8.511719-3.8125-8.511719-8.519531v-61.296876c0-64.464843-47.820312-120.410156-111.355468-130.386718l-2.933594.007812s-.007812 0-.019531 0c-4.695313 0-8.507813-3.800781-8.515625-8.496094-.003906-4.699218 3.796875-8.523437 8.503906-8.535156l3.59375-.007812h.019531c.433594 0 .859375.035156 1.28125.101562 72.09375 10.957032 126.457031 74.285156 126.457031 147.316406v61.296876c0 4.707031-3.8125 8.519531-8.519531 8.519531zm0 0"/><path d="m83.582031 225.523438c-4.707031 0-8.511719-3.808594-8.511719-8.515626v-59.46875c0-73.1875 52.324219-135.011718 124.414063-147.003906.457031-.074218.914063-.117187 1.378906-.117187l4.46875-.011719h.015625c4.695313 0 8.507813 3.800781 8.515625 8.503906.011719 4.707032-3.800781 8.523438-8.496093 8.53125l-3.761719.007813c-63.492188 10.890625-109.503907 65.492187-109.503907 130.089843v59.46875c0 4.707032-3.8125 8.515626-8.519531 8.515626zm0 0"/><path d="m287.957031 136.25c-4.707031 0-8.511719-3.8125-8.511719-8.515625v-92.171875c0-10.222656-8.308593-18.53125-18.53125-18.53125h-31.066406c-10.21875 0-18.527344 8.308594-18.527344 18.53125v92.171875c0 4.703125-3.8125 8.515625-8.519531 8.515625s-8.515625-3.8125-8.515625-8.515625v-92.171875c0-19.613281 15.953125-35.5625 35.5625-35.5625h31.066406c19.613282 0 35.5625 15.949219 35.5625 35.5625v92.171875c0 4.703125-3.8125 8.515625-8.519531 8.515625zm0 0"/><path d="m483.820312 545h-476.875c-4.707031 0-8.515624-3.8125-8.515624-8.519531 0-57.570313 30.984374-111.265625 80.871093-140.128907 4.082031-2.375 9.285157-.960937 11.636719 3.101563 2.355469 4.074219.964844 9.28125-3.105469 11.636719-42.167969 24.40625-69.253906 68.628906-72.125 116.878906h459.347657c-2.898438-49.222656-30.804688-93.929688-74.28125-118.097656-4.105469-2.285156-5.585938-7.464844-3.300782-11.582032 2.277344-4.09375 7.457032-5.605468 11.582032-3.304687 51.371093 28.558594 83.277343 82.78125 83.277343 141.496094 0 4.707031-3.804687 8.519531-8.511719 8.519531zm0 0"/><path d="m245.378906 425.78125c-.261718 0-.519531-.007812-.789062-.035156l-183.183594-17.03125c-9.390625-.273438-18.386719-4.351563-24.683594-11.976563-6.296875-7.628906-8.824218-17.574219-6.945312-27.292969l62.355468-209.011718c1.28125-23.59375 35.617188-41.214844 80.863282-41.214844 32.488281 0 59.34375 9.082031 72.382812 22.925781 13.039063-13.84375 39.902344-22.925781 72.386719-22.925781 45.246094 0 79.582031 17.621094 80.863281 41.203125l62.152344 208.210937c2.082031 10.53125-.449219 20.476563-6.742188 28.105469-6.296874 7.636719-15.582031 12.011719-25.46875 12.011719l-182.402343 16.996094c-.261719.027344-.519531.035156-.789063.035156zm-72.382812-289.53125c-39.566406 0-63.867188 14.875-63.867188 25.546875 0 .824219-.117187 1.648437-.355468 2.4375l-62.480469 209.277344c-.707031 3.878906.515625 8.695312 3.570312 12.394531 3.050781 3.695312 7.542969 5.8125 12.332031 5.8125l183.183594 16.996094 182.398438-16.964844c5.582031-.035156 10.070312-2.15625 13.125-5.84375 3.050781-3.703125 4.273437-8.515625 3.367187-13.214844l-62.277343-208.457031c-.246094-.789063-.363282-1.613281-.363282-2.4375 0-10.671875-24.300781-25.546875-63.863281-25.546875-39.566406 0-63.867187 14.875-63.867187 25.546875 0 4.707031-3.8125 8.519531-8.519532 8.519531-4.707031 0-8.511718-3.8125-8.511718-8.519531 0-10.671875-24.300782-25.546875-63.871094-25.546875zm225.667968 25.546875h.082032zm0 0"/><path d="m339.050781 391.105469h-187.34375c-3.257812 0-6.238281-1.867188-7.664062-4.808594-1.421875-2.933594-1.042969-6.425781.980469-8.992187l76.640624-97.039063c2.917969-3.683594 8.273438-4.304687 11.96875-1.402344 3.679688 2.917969 4.3125 8.273438 1.402344 11.960938l-65.746094 83.246093h152.183594l-65.734375-83.226562c-2.90625-3.691406-2.273437-9.046875 1.410157-11.964844 3.699218-2.910156 9.050781-2.273437 11.960937 1.402344l76.628906 97.023438c2.015625 2.566406 2.402344 6.058593.980469 8.992187-1.429688 2.941406-4.40625 4.808594-7.667969 4.808594zm0 0"/><path d="m313.503906 289.53125h-45.769531c-4.707031 0-8.515625-3.808594-8.515625-8.515625s3.808594-8.515625 8.515625-8.515625h45.769531c4.707032 0 8.519532 3.808594 8.519532 8.515625s-3.8125 8.515625-8.519532 8.515625zm0 0"/><path d="m218.015625 289.53125h-40.761719c-4.707031 0-8.511718-3.808594-8.511718-8.515625s3.804687-8.515625 8.511718-8.515625h40.761719c4.707031 0 8.511719 3.808594 8.511719 8.515625s-3.808594 8.515625-8.511719 8.515625zm0 0"/><path d="m245.378906 298.046875c-17.019531 0-30.867187-13.847656-30.867187-30.867187 0-15.71875 12.027343-45.773438 30.867187-45.773438 18.847656 0 30.871094 30.054688 30.871094 45.773438 0 17.019531-13.84375 30.867187-30.871094 30.867187zm0-59.605469c-4.636718 0-13.835937 17.457032-13.835937 28.738282 0 7.632812 6.203125 13.835937 13.835937 13.835937 7.636719 0 13.839844-6.203125 13.839844-13.835937 0-11.28125-9.195312-28.738282-13.839844-28.738282zm0 0"/><path d="m117.648438 214.808594c0-22.769532 8.511718-61.527344 62.265624-61.527344 26.753907 0 48.4375 18.460938 48.4375 41.230469s-21.683593 41.230469-48.4375 41.230469c-26.746093 0-62.265624 1.835937-62.265624-20.933594zm0 0"/><path d="m373.117188 214.808594c0-22.769532-8.515626-61.527344-62.273438-61.527344-26.746094 0-48.433594 18.460938-48.433594 41.230469s21.6875 41.230469 48.433594 41.230469 62.273438 1.835937 62.273438-20.933594zm0 0"/><path d="m185.773438 383.203125c-4.707032 0-8.519532-3.804687-8.519532-8.511719v-34.066406c0-4.707031 3.8125-8.519531 8.519532-8.519531 4.707031 0 8.511718 3.8125 8.511718 8.519531v34.066406c0 4.707032-3.804687 8.511719-8.511718 8.511719zm0 0"/><path d="m304.992188 383.203125c-4.707032 0-8.515626-3.804687-8.515626-8.511719v-34.066406c0-4.707031 3.808594-8.519531 8.515626-8.519531 4.707031 0 8.511718 3.8125 8.511718 8.519531v34.066406c0 4.707032-3.804687 8.511719-8.511718 8.511719zm0 0"/><path d="m211.320312 383.203125c-4.707031 0-8.519531-3.804687-8.519531-8.511719v-68.125c0-4.707031 3.8125-8.519531 8.519531-8.519531 4.707032 0 8.511719 3.8125 8.511719 8.519531v68.125c0 4.707032-3.804687 8.511719-8.511719 8.511719zm0 0"/><path d="m279.445312 383.203125c-4.707031 0-8.519531-3.804687-8.519531-8.511719v-68.125c0-4.707031 3.8125-8.519531 8.519531-8.519531 4.707032 0 8.511719 3.8125 8.511719 8.519531v68.125c0 4.707032-3.804687 8.511719-8.511719 8.511719zm0 0"/><path d="m245.378906 383.203125c-4.707031 0-8.511718-3.804687-8.511718-8.511719v-85.160156c0-4.707031 3.804687-8.515625 8.511718-8.515625 4.707032 0 8.519532 3.808594 8.519532 8.515625v85.160156c0 4.707032-3.8125 8.511719-8.519532 8.511719zm0 0"/><path d="m151.707031 391.71875c-3.566406 0-6.882812-2.253906-8.074219-5.820312l-25.546874-76.640626c-1.484376-4.46875.925781-9.289062 5.378906-10.773437 4.503906-1.484375 9.285156.925781 10.773437 5.378906l25.546875 76.644531c1.488282 4.46875-.925781 9.285157-5.382812 10.769532-.898438.300781-1.804688.441406-2.695313.441406zm0 0"/><path d="m339.050781 391.71875c-.890625 0-1.796875-.140625-2.691406-.441406-4.460937-1.476563-6.871094-6.300782-5.382813-10.769532l25.550782-76.644531c1.484375-4.453125 6.269531-6.863281 10.765625-5.378906 4.460937 1.484375 6.871093 6.304687 5.382812 10.773437l-25.550781 76.640626c-1.1875 3.566406-4.503906 5.820312-8.074219 5.820312zm0 0"/><path d="m211.320312 417.265625h68.125v119.214844h-68.125zm0 0"/><path d="m279.445312 545h-68.125c-4.707031 0-8.519531-3.8125-8.519531-8.519531v-119.214844c0-4.707031 3.8125-8.515625 8.519531-8.515625h68.125c4.707032 0 8.511719 3.808594 8.511719 8.515625v119.214844c0 4.707031-3.804687 8.519531-8.511719 8.519531zm-59.613281-17.03125h51.09375v-102.1875h-51.09375zm0 0"/><path d="m398.664062 510.9375h-51.09375c-4.707031 0-8.519531-3.808594-8.519531-8.515625s3.8125-8.515625 8.519531-8.515625h51.09375c4.707032 0 8.511719 3.808594 8.511719 8.515625s-3.804687 8.515625-8.511719 8.515625zm0 0"/><path d="m398.664062 476.875h-51.09375c-4.707031 0-8.519531-3.8125-8.519531-8.519531s3.8125-8.511719 8.519531-8.511719h51.09375c4.707032 0 8.511719 3.804688 8.511719 8.511719s-3.804687 8.519531-8.511719 8.519531zm0 0"/></svg>