<svg height="581pt" viewBox="-18 -22 581.33569 581" width="581pt" xmlns="http://www.w3.org/2000/svg"><path d="m430.3125 451.167969c-1.261719 0-2.542969-.28125-3.75-.871094-4.21875-2.082031-5.953125-7.183594-3.875-11.40625l59.753906-121.265625-15.273437-7.523438-66.328125 134.589844c-2.074219 4.210938-7.171875 5.949219-11.402344 3.878906-4.21875-2.078124-5.953125-7.1875-3.875-11.410156l70.09375-142.230468c2.078125-4.207032 7.183594-5.929688 11.402344-3.871094l30.550781 15.050781c2.023437 1 3.574219 2.757813 4.304687 4.90625.726563 2.132813.574219 4.472656-.425781 6.5l-63.523437 128.910156c-1.480469 2.996094-4.507813 4.742188-7.652344 4.742188zm0 0"/><path d="m150.515625 446.832031c-3.148437 0-6.164063-1.75-7.648437-4.75l-65.042969-131.980469-15.273438 7.523438 57.46875 116.625c2.078125 4.21875.34375 9.328125-3.875 11.40625-4.230469 2.0625-9.332031.332031-11.402343-3.871094l-61.230469-124.269531c-.996094-2.027344-1.148438-4.367187-.421875-6.507813.726562-2.140624 2.273437-3.90625 4.300781-4.902343l30.550781-15.054688c4.230469-2.058593 9.328125-.328125 11.402344 3.875l68.804688 139.621094c2.074218 4.226563.339843 9.332031-3.878907 11.40625-1.210937.597656-2.496093.878906-3.753906.878906zm0 0"/><path d="m536.480469 536.328125h-527.964844c-4.707031 0-8.515625-3.8125-8.515625-8.519531 0-51.648438 42.023438-93.671875 93.671875-93.671875h68.125v-55.347657c0-4.707031 3.808594-8.515624 8.515625-8.515624 4.703125 0 8.515625 3.808593 8.515625 8.515624v63.867188c0 4.707031-3.8125 8.511719-8.515625 8.511719h-76.640625c-39.378906 0-71.921875 29.855469-76.167969 68.125h509.996094c-4.25-38.269531-36.789062-68.125-76.167969-68.125h-76.644531c-4.703125 0-8.515625-3.804688-8.515625-8.511719v-63.867188c0-4.707031 3.8125-8.515624 8.515625-8.515624s8.519531 3.808593 8.519531 8.515624v55.347657h68.125c51.648438 0 93.671875 42.023437 93.671875 93.671875-.007812 4.707031-3.816406 8.519531-8.523437 8.519531zm0 0"/><path d="m272.5 451.167969c-78.632812 0-161.796875-122.558594-161.796875-238.433594 0-59.269531 10.882813-104.390625 36.398437-150.878906 22.265626-40.5625 65.628907-62.011719 125.398438-62.011719 59.765625 0 103.128906 21.449219 125.398438 62.011719 25.511718 46.488281 36.398437 91.609375 36.398437 150.878906 0 115.875-83.167969 238.433594-161.796875 238.433594zm0-434.289063c-53.9375 0-91.101562 17.882813-110.46875 53.175782-24.042969 43.804687-34.300781 86.472656-34.300781 142.679687 0 105.527344 75.765625 221.402344 144.769531 221.402344 69 0 144.765625-115.875 144.765625-221.402344 0-56.207031-10.257813-98.875-34.292969-142.679687-19.375-35.292969-56.539062-53.175782-110.472656-53.175782zm0 0"/><path d="m178.835938 144.601562c-.152344 0-.304688 0-.453126-.011718-4.695312-.25-8.296874-4.25-8.058593-8.945313.023437-.425781 1.945312-42.601562-18.238281-68.058593-2.925782-3.683594-2.304688-9.039063 1.382812-11.957032 3.679688-2.945312 9.039062-2.3125 11.964844 1.378906 24.230468 30.558594 22.003906 77.554688 21.894531 79.542969-.242187 4.539063-4 8.050781-8.492187 8.050781zm0 0"/><path d="m195.851562 408.589844c-1.277343 0-2.578124-.292969-3.800781-.894532-4.210937-2.105468-5.914062-7.222656-3.808593-11.425781 31.285156-62.582031 1.785156-108.773437.515624-110.714843-2.574218-3.917969-1.5-9.191407 2.410157-11.78125 3.914062-2.601563 9.175781-1.546876 11.773437 2.359374 1.5 2.253907 36.394532 56.035157.535156 127.75-1.496093 2.988282-4.5 4.707032-7.625 4.707032zm0 0"/><path d="m389.871094 149.039062c-7.707032-17.839843-20.460938-21.460937-32.21875-21.460937-11.863282 0-33.222656 3.859375-40.9375 21.953125-7.582032 17.765625-10.152344 33.960938-10.152344 54.007812 0 40.464844 22.304688 85.835938 42.578125 85.835938 22.300781 0 51.089844-45.371094 51.089844-85.835938 0-20.230468-2.65625-36.660156-10.359375-54.5zm-15.839844 63.515626-19.773438-4.863282c-7.160156-1.757812-14.925781-.707031-20.859374 3.605469-.074219.046875-.148438.101563-.214844.152344-4.433594 3.289062-10.890625-.597657-9.359375-5.84375 2.351562-7.902344 8.316406-14.511719 16.28125-17.050781 17.746093-5.652344 34.140625 6.960937 34.582031 23.476562.011719.335938-.324219.601562-.65625.523438zm0 0"/><path d="m228.285156 149.53125c-7.71875-18.09375-29.074218-21.953125-40.941406-21.953125-11.757812 0-24.507812 3.621094-32.210938 21.460937-7.710937 17.839844-10.367187 34.269532-10.367187 54.5 0 40.464844 28.789063 85.835938 51.089844 85.835938 20.28125 0 42.582031-45.371094 42.582031-85.835938 0-20.046874-2.570312-36.242187-10.152344-54.007812zm-16.46875 61.917969c-.070312-.050781-.136718-.105469-.210937-.152344-5.941407-4.3125-13.707031-5.363281-20.863281-3.605469l-19.769532 4.863282c-.332031.078124-.667968-.1875-.660156-.523438.441406-16.515625 16.832031-29.128906 34.578125-23.476562 7.964844 2.539062 13.929687 9.148437 16.285156 17.054687 1.535157 5.242187-4.925781 9.128906-9.359375 5.839844zm0 0"/><path d="m366.160156 144.609375c-4.492187 0-8.25-3.519531-8.492187-8.058594-.105469-1.988281-2.335938-48.980469 21.898437-79.542969 2.921875-3.683593 8.289063-4.304687 11.960938-1.378906 3.6875 2.917969 4.308594 8.273438 1.382812 11.957032-20.265625 25.574218-18.257812 67.628906-18.238281 68.054687.253906 4.695313-3.351563 8.707031-8.042969 8.964844-.15625.003906-.3125.003906-.46875.003906zm0 0"/><path d="m349.144531 408.589844c-3.121093 0-6.128906-1.71875-7.625-4.707032-35.859375-71.714843-.964843-125.496093.535157-127.75 2.609374-3.914062 7.886718-4.96875 11.808593-2.359374 3.902344 2.601562 4.964844 7.875 2.375 11.78125-1.269531 1.941406-30.769531 48.132812.519531 110.714843 2.105469 4.207031.398438 9.320313-3.8125 11.425781-1.21875.601563-2.519531.894532-3.800781.894532zm0 0"/><path d="m204.375 493.75c-23.476562 0-42.578125-19.105469-42.578125-42.582031v-17.03125c0-4.707031 3.808594-8.511719 8.515625-8.511719 4.703125 0 8.515625 3.804688 8.515625 8.511719v17.03125c0 14.085937 11.460937 25.546875 25.546875 25.546875 4.699219 0 8.515625 3.8125 8.515625 8.519531s-3.816406 8.515625-8.515625 8.515625zm0 0"/></svg>