<svg height="498pt" viewBox="-19 -15 498 498.6652" width="498pt" xmlns="http://www.w3.org/2000/svg"><path d="m23.179688 189.5c-1.605469 0-3.183594-.445312-4.558594-1.324219-1.90625-1.203125-3.253906-3.117187-3.75-5.320312l-14.117188-62.796875c-1.726562-7.652344-.359375-15.503906 3.832032-22.128906 4.1875-6.617188 10.707031-11.21875 18.355468-12.929688l374.894532-84.289062c15.808593-3.527344 31.511718 6.40625 35.050781 22.1875l14.117187 62.789062c1.03125 4.59375-1.847656 9.148438-6.441406 10.183594l-415.515625 93.421875c-.613281.140625-1.242187.207031-1.867187.207031zm381.089843-172.464844c-.894531 0-1.800781.097656-2.703125.296875l-374.894531 84.289063c-3.207031.722656-5.9375 2.640625-7.695313 5.417968-1.753906 2.785157-2.324218 6.074219-1.601562 9.277344l12.246094 54.484375 398.894531-89.679687-12.246094-54.480469c-1.285156-5.714844-6.375-9.605469-12-9.605469zm0 0"/><path d="m46.242188 175.582031 49.859374-11.210937 9.988282-89.121094-49.859375 11.207031zm0 0"/><path d="m145.96875 153.164062 49.859375-11.210937 9.984375-89.125-49.859375 11.210937zm0 0"/><path d="m245.691406 130.742188 49.859375-11.210938 9.988281-89.121094-49.867187 11.207032zm0 0"/><path d="m355.398438 19.199219-9.988282 89.125 49.867188-11.210938 9.980468-89.125zm0 0"/><path d="m444.414062 467.5h-411.566406c-8.644531 0-15.679687-7.039062-15.679687-15.679688v-197.261718c0-4.707032 3.816406-8.519532 8.519531-8.519532h425.886719c4.703125 0 8.519531 3.8125 8.519531 8.519532v197.261718c0 8.640626-7.03125 15.679688-15.679688 15.679688zm-410.210937-17.035156h408.851563v-187.390625h-408.851563zm0 0"/><path d="m451.574219 263.074219h-425.886719c-4.703125 0-8.519531-3.808594-8.519531-8.515625v-76.660156c0-4.710938 3.816406-8.519532 8.519531-8.519532h425.886719c4.703125 0 8.519531 3.808594 8.519531 8.519532v76.660156c0 4.703125-3.816406 8.515625-8.519531 8.515625zm-417.371094-17.035157h408.851563v-59.621093h-408.851563zm0 0"/><path d="m315.289062 305.660156c0 9.414063-7.625 17.039063-17.03125 17.039063-9.414062 0-17.039062-7.625-17.039062-17.039063 0-9.40625 7.625-17.03125 17.039062-17.03125 9.40625 0 17.03125 7.625 17.03125 17.03125zm0 0"/><path d="m136.417969 305.660156c0 9.414063-7.625 17.039063-17.03125 17.039063-9.414063 0-17.039063-7.625-17.039063-17.039063 0-9.40625 7.625-17.03125 17.039063-17.03125 9.40625 0 17.03125 7.625 17.03125 17.03125zm0 0"/><path d="m264.183594 366.792969c-.136719-13.367188-119.113282-13.367188-119.25 0v.277343c0 22.535157 26.695312 40.804688 59.621094 40.804688 32.933593 0 59.628906-18.269531 59.628906-40.804688 0-.089843 0-.183593 0-.277343zm-59.621094 24.050781c-14.117188 0-25.554688-3.816406-25.554688-8.519531s11.4375-8.519531 25.554688-8.519531c14.109375 0 25.550781 3.816406 25.550781 8.519531s-11.4375 8.519531-25.550781 8.519531zm0 0"/></svg>