<svg height="581pt" viewBox="-18 -27 581.33569 581" width="581pt" xmlns="http://www.w3.org/2000/svg"><path d="m536.480469 527.5625h-527.964844c-4.707031 0-8.515625-3.8125-8.515625-8.519531 0-51.648438 42.023438-93.667969 93.671875-93.667969h76.640625v-42.445312c0-4.707032 3.8125-8.515626 8.515625-8.515626 4.699219 0 8.515625 3.808594 8.515625 8.515626v50.960937c0 4.707031-3.816406 8.515625-8.515625 8.515625h-85.15625c-39.378906 0-71.921875 29.855469-76.167969 68.125h509.996094c-4.25-38.269531-36.789062-68.125-76.167969-68.125h-85.160156c-4.703125 0-8.515625-3.808594-8.515625-8.515625v-49.179687c0-4.707032 3.8125-8.519532 8.515625-8.519532 4.707031 0 8.515625 3.8125 8.515625 8.519532v40.664062h76.644531c51.648438 0 93.671875 42.019531 93.671875 93.667969-.007812 4.707031-3.816406 8.519531-8.523437 8.519531zm0 0"/><path d="m391.726562 349.742188c-2.675781 0-5.304687-1.257813-6.964843-3.601563-2.710938-3.84375-1.796875-9.15625 2.042969-11.875l21.941406-15.492187v-165.894532c0-75.128906-61.121094-136.25-136.246094-136.25-75.128906 0-136.25 61.121094-136.25 136.25v165.894532l21.941406 15.488281c3.84375 2.71875 4.753906 8.035156 2.046875 11.875-2.710937 3.835937-8.027343 4.75-11.867187 2.046875l-25.546875-18.039063c-2.265625-1.59375-3.605469-4.183593-3.605469-6.957031v-170.308594c0-84.519531 68.757812-153.285156 153.28125-153.285156 84.519531 0 153.277344 68.765625 153.277344 153.285156v170.308594c0 2.773438-1.339844 5.363281-3.601563 6.960938l-25.546875 18.039062c-1.496094 1.042969-3.207031 1.554688-4.902344 1.554688zm0 0"/><path d="m373.46875 527.5625h-193.417969c-3.71875 0-7.007812-2.414062-8.125-5.957031-1.113281-3.542969.191407-7.40625 3.242188-9.535157l72.988281-51.09375c1.429688-1 3.136719-1.539062 4.882812-1.539062h43.789063c1.679687 0 3.324219.496094 4.726563 1.429688l76.636718 51.089843c3.125 2.082031 4.515625 5.964844 3.425782 9.558594-1.085938 3.59375-4.398438 6.046875-8.148438 6.046875zm-166.410156-17.03125h138.285156l-51.09375-34.066406h-38.527344zm0 0"/><path d="m317.808594 443.476562c-1.445313 0-2.90625-.082031-4.378906-.246093l-81.679688-.191407c-14.980469 1.863282-29.714844-5.699218-35.46875-18.082031l-36.136719-54.925781c-11.890625-14.179688-17.160156-31.558594-14.847656-49.007812l4.328125-66.515626c.160156-2.445312 1.367188-4.707031 3.316406-6.207031 1.945313-1.488281 4.441406-2.0625 6.851563-1.585937l112.707031 22.570312 112.703125-22.570312c2.40625-.46875 4.902344.097656 6.855469 1.585937 1.945312 1.5 3.152344 3.761719 3.320312 6.207031l4.382813 67.101563c2.257812 16.882813-3.003907 34.242187-14.886719 48.414063l-36.214844 55.097656c-5.21875 11.257812-17.386718 18.355468-30.851562 18.355468zm-86.589844-17.472656h.019531l82.738281.195313c.355469 0 .710938.023437 1.058594.0625 7.910156 1.070312 15.753906-2.671875 18.304688-8.605469.199218-.457031.4375-.898438.710937-1.3125l36.875-56.101562c.191407-.300782.40625-.578126.632813-.847657 8.957031-10.519531 12.957031-23.34375 11.261718-36.105469l-3.800781-57.964843-104.847656 20.984375c-1.109375.222656-2.238281.222656-3.34375 0l-104.839844-20.984375-3.75 57.378906c-1.753906 13.332031 2.257813 26.171875 11.222657 36.699219.230468.265625.445312.546875.632812.839844l36.789062 55.925781c.273438.421875.515626.867187.710938 1.328125 2.570312 5.988281 10.511719 9.742187 18.46875 8.585937.378906-.046875.769531-.078125 1.15625-.078125zm0 0"/><path d="m306.5625 314.667969h-68.125c-4.707031 0-8.515625-3.804688-8.515625-8.511719s3.808594-8.515625 8.515625-8.515625h68.125c4.703125 0 8.511719 3.808594 8.511719 8.515625s-3.808594 8.511719-8.511719 8.511719zm0 0"/><path d="m246.953125 229.515625-42.578125-42.578125h-31.9375l9.730469 14.59375c7.402343 11.105469 18.914062 18.8125 31.996093 21.429688zm0 0"/><path d="m300.175781 229.515625 42.578125-42.578125h31.933594l-9.730469 14.59375c-7.402343 11.105469-18.910156 18.8125-31.992187 21.429688zm0 0"/><path d="m434.296875 255.0625h-17.03125c-4.703125 0-8.519531-3.8125-8.519531-8.519531v-136.246094c0-3.144531 1.730468-6.027344 4.5-7.511719 2.753906-1.476562 6.125-1.308594 8.742187.425782l18.679688 12.460937 37.789062-52.898437c2.265625-3.1875 6.382813-4.390626 10.027344-2.988282 3.628906 1.421875 5.832031 5.125 5.351563 8.992188l-17.03125 136.246094c-.53125 4.261718-4.152344 7.460937-8.449219 7.460937h-11.265625l-14.886719 37.222656c-1.296875 3.234375-4.429687 5.355469-7.90625 5.355469zm-8.519531-17.03125h2.75l14.890625-37.222656c1.296875-3.234375 4.429687-5.355469 7.90625-5.355469h9.515625l11.925781-95.410156-23.019531 32.234375c-2.675782 3.734375-7.835938 4.679687-11.65625 2.136718l-12.3125-8.210937zm0 0"/><path d="m127.730469 255.0625h-17.027344c-3.480469 0-6.609375-2.121094-7.910156-5.355469l-14.890625-37.222656h-11.261719c-4.296875 0-7.917969-3.199219-8.449219-7.460937l-17.035156-136.246094c-.480469-3.867188 1.726562-7.570313 5.355469-8.992188 3.625-1.414062 7.757812-.199218 10.03125 2.980469l37.78125 52.90625 18.6875-12.460937c2.609375-1.738282 5.96875-1.90625 8.734375-.425782 2.769531 1.484375 4.503906 4.367188 4.503906 7.511719v136.246094c0 4.707031-3.8125 8.519531-8.519531 8.519531zm-11.257813-17.03125h2.746094v-111.828125l-12.308594 8.210937c-3.839844 2.542969-8.984375 1.59375-11.65625-2.136718l-23.023437-32.234375 11.925781 95.410156h9.515625c3.480469 0 6.609375 2.121094 7.910156 5.355469zm0 0"/><path d="m178.828125 467.953125c-4.703125 0-8.515625-3.808594-8.515625-8.515625v-42.578125c0-4.707031 3.8125-8.519531 8.515625-8.519531 4.699219 0 8.515625 3.8125 8.515625 8.519531v42.578125c0 4.707031-3.816406 8.515625-8.515625 8.515625zm0 0"/><path d="m366.171875 467.953125c-4.703125 0-8.519531-3.808594-8.519531-8.515625v-42.578125c0-4.707031 3.816406-8.519531 8.519531-8.519531 4.699219 0 8.515625 3.8125 8.515625 8.519531v42.578125c0 4.707031-3.816406 8.515625-8.515625 8.515625zm0 0"/></svg>