<svg height="581pt" viewBox="-18 -18 581.33253 581" width="581pt" xmlns="http://www.w3.org/2000/svg"><path d="m536.410156 545.164062h-527.96875c-4.707031 0-8.5156248-3.804687-8.5156248-8.511718v-26.039063c0-48.214843 34.3945308-89.664062 81.7851568-98.554687l78.441406-14.703125c4.6875-.871094 9.078125 2.179687 9.9375 6.792969.871094 4.625-2.175782 9.074218-6.792969 9.941406l-78.441406 14.699218c-39.34375 7.390626-67.902344 41.800782-67.902344 81.824219v17.523438h510.941406v-18.453125c0-39.539063-28.144531-73.867188-66.921875-81.625l-79.503906-15.898438c-4.605469-.925781-7.59375-5.410156-6.675781-10.023437s5.394531-7.617188 10.019531-6.679688l79.503906 15.902344c46.703125 9.347656 80.609375 50.695313 80.609375 98.324219v26.96875c0 4.707031-3.808593 8.511718-8.515625 8.511718zm0 0"/><path d="m272.425781 502.585938c-62.511719 0-113.597656-48.921876-116.300781-111.375l-.390625-8.882813c-.210937-4.695313 3.433594-8.671875 8.132813-8.882813 4.769531-.226562 8.683593 3.4375 8.882812 8.132813l.386719 8.894531c2.304687 53.320313 45.917969 95.085938 99.289062 95.085938 53.367188 0 96.980469-41.765625 99.285157-95.078125l.382812-8.84375c.210938-4.695313 4.265625-8.402344 8.875-8.136719 4.695312.199219 8.339844 4.175781 8.140625 8.875l-.382813 8.835938c-2.707031 62.453124-53.789062 111.375-116.300781 111.375zm0 0"/><path d="m127.144531 230.238281c-3.871093 0-7.386719-2.667969-8.292969-6.613281l-25.898437-112.648438c-4.054687-17.65625 4.925781-35.816406 21.875-44.414062l93.121094-64.867188c2.261719-1.570312 5.144531-1.96875 7.753906-1.023437l207.480469 74.796875c20.691406 7.414062 32.175781 28.132812 26.714844 48.183594l-25.949219 95.027344c-1.238281 4.542968-5.917969 7.160156-10.460938 5.976562-4.53125-1.242188-7.210937-5.921875-5.972656-10.464844l25.945313-95.019531c3.105468-11.382813-3.789063-23.289063-16.039063-27.675781l-203.351563-73.304688-90.019531 62.699219c-.355469.25-.738281.472656-1.128906.664063-10.355469 5.058593-15.730469 15.34375-13.367187 25.609374l25.898437 112.652344c1.058594 4.582032-1.808594 9.144532-6.394531 10.203125-.640625.152344-1.28125.21875-1.914063.21875zm0 0"/><path d="m417.191406 281.183594c-4.707031 0-8.515625-3.8125-8.515625-8.519532 0-4.707031 3.808594-8.515624 8.515625-8.515624 9.390625 0 17.03125-7.640626 17.03125-17.03125 0-9.390626-7.640625-17.03125-17.03125-17.03125-1.058594 0-2.082031.09375-3.085937.273437-4.621094.867187-9.046875-2.246094-9.878907-6.882813-.835937-4.628906 2.253907-9.042968 6.882813-9.878906 1.972656-.351562 4.011719-.539062 6.082031-.539062 18.785156 0 34.058594 15.273437 34.058594 34.058594 0 18.785156-15.273438 34.066406-34.058594 34.066406zm0 0"/><path d="m125.355469 281.082031c-.257813 0-.515625-.011719-.773438-.035156-17.664062-1.585937-30.984375-16.171875-30.984375-33.929687 0-18.785157 15.273438-34.058594 34.058594-34.058594 1.21875 0 2.421875.0625 3.601562.179687 4.671876.480469 8.082032 4.65625 7.609376 9.339844-.476563 4.675781-4.457032 8.058594-9.339844 7.605469-9.75-1.097656-18.898438 6.917968-18.898438 16.933594 0 8.734374 6.800782 16.1875 15.484375 16.96875 4.683594.421874 8.140625 4.5625 7.71875 9.246093-.402343 4.425781-4.117187 7.75-8.476562 7.75zm0 0"/><path d="m327.355469 435.523438c-1.8125 0-3.644531-.085938-5.492188-.285157l-51.359375-4.058593-47.519531 3.890624c-17.265625 1.96875-34.210937-5.171874-41.136719-17.433593l-43.867187-54.925781c-14.460938-14.1875-20.921875-31.667969-18.25-49.359376l8.472656-194.347656c.117187-2.628906 1.457031-5.074218 3.613281-6.589844 2.15625-1.53125 4.910156-1.976562 7.449219-1.15625l45.003906 14.121094c4.480469 1.402344 6.976563 6.183594 5.574219 10.675782-1.410156 4.476562-6.191406 6.988281-10.683594 5.574218l-34.429687-10.800781-8.003907 183.753906c-.019531.320313-.050781.65625-.105468.976563-1.996094 12.363281 2.835937 24.898437 13.601562 35.304687.257813.246094.507813.523438.730469.808594l44.664063 55.921875c.339843.433594.652343.894531.902343 1.378906 2.882813 5.546875 12.980469 10.546875 24.820313 9.140625l48.46875-3.964843c.4375-.035157.90625-.035157 1.363281 0l52.265625 4.132812c11.992188 1.347656 21.957031-3.660156 24.816406-9.140625.246094-.488281.550782-.945313.894532-1.378906l44.785156-56.101563c.21875-.28125.472656-.558594.730468-.808594 10.734376-10.382812 15.558594-22.914062 13.570313-35.273437-.046875-.324219-.082031-.65625-.097656-.984375l-8.058594-184.820312-153.050781 32.003906c-1.441406.316406-2.910156.234375-4.292969-.203125l-26.492187-8.308594c-4.492188-1.410156-6.988282-6.1875-5.578126-10.671875 1.390626-4.488281 6.152344-7 10.664063-5.578125l24.382813 7.640625 160.6875-33.601562c2.460937-.527344 5 .082031 6.96875 1.601562 1.976562 1.539062 3.175781 3.859375 3.285156 6.355469l8.476562 194.371093c2.664063 17.675782-3.789062 35.148438-18.222656 49.320313l-43.988281 55.105469c-6.132813 10.859375-20.167969 17.714844-35.5625 17.714844zm0 0"/><path d="m315 340.789062h-85.152344c-4.707031 0-8.519531-3.808593-8.519531-8.515624 0-4.707032 3.8125-8.511719 8.519531-8.511719h85.152344c4.707031 0 8.519531 3.804687 8.519531 8.511719 0 4.707031-3.8125 8.515624-8.519531 8.515624zm0 0"/><path d="m218.070312 207.679688c-8.582031 0-17.046874-2.273438-24.667968-6.71875-11.335938-6.613282-19.414063-17.226563-22.75-29.890626-6.894532-26.179687 8.800781-53.09375 34.96875-59.972656 4.558594-1.175781 9.207031 1.511719 10.40625 6.0625 1.199218 4.542969-1.515625 9.203125-6.066406 10.402344-8.261719 2.175781-15.203126 7.460938-19.515626 14.859375-4.316406 7.40625-5.496093 16.042969-3.328124 24.304687 2.179687 8.269532 7.460937 15.203126 14.863281 19.523438 7.414062 4.332031 16.066406 5.484375 24.300781 3.320312 1.292969-.339843 2.386719-1.164062 3.058594-2.316406.675781-1.15625.859375-2.507812.515625-3.800781-.339844-1.296875-1.164063-2.378906-2.316407-3.050781-1.160156-.667969-2.535156-.84375-3.800781-.519532-11.789062 3.085938-23.828125-3.953124-26.929687-15.699218-3.09375-11.757813 3.957031-23.839844 15.710937-26.925782l32.6875-8.609374c4.558594-1.175782 9.203125 1.515624 10.402344 6.066406 1.199219 4.546875-1.511719 9.203125-6.0625 10.402344l-32.695313 8.605468c-2.679687.707032-4.277343 3.449219-3.578124 6.128906.710937 2.660157 3.414062 4.269532 6.132812 3.566407 5.660156-1.507813 11.613281-.683594 16.710938 2.273437 5.082031 2.964844 8.71875 7.730469 10.203124 13.429688 1.507813 5.691406.703126 11.632812-2.273437 16.714844-2.964844 5.09375-7.738281 8.71875-13.433594 10.207031-4.152343 1.09375-8.359375 1.636719-12.542969 1.636719zm0 0"/><path d="m272.425781 315.242188c-2.082031 0-4.15625-.753907-5.800781-2.273438l-15.890625-14.757812h-54.953125c-28.171875 0-51.089844-22.917969-51.089844-51.09375 0-28.171876 22.917969-51.09375 51.089844-51.09375h153.285156c28.175782 0 51.09375 22.921874 51.09375 51.09375 0 28.175781-22.917968 51.09375-51.09375 51.09375h-54.953125l-15.890625 14.757812c-1.640625 1.519531-3.71875 2.273438-5.796875 2.273438zm-76.644531-102.183594c-18.785156 0-34.058594 15.273437-34.058594 34.058594 0 18.785156 15.273438 34.066406 34.058594 34.066406h58.296875c2.148437 0 4.214844.8125 5.800781 2.273437l12.550782 11.652344 12.546874-11.652344c1.578126-1.460937 3.648438-2.273437 5.796876-2.273437h58.292968c18.785156 0 34.058594-15.28125 34.058594-34.066406 0-18.785157-15.273438-34.058594-34.058594-34.058594zm0 0"/><path d="m364.402344 238.019531s-28.21875 33.828125-64.914063 26.875c0 0-2.804687-31.027343 64.914063-26.875zm0 0"/><path d="m179.683594 237.976562s28.167968 33.867188 64.875 26.960938c0 0 2.847656-31.019531-64.875-26.960938zm0 0"/></svg>