<svg height="582pt" viewBox="-18 -18 582 582.66598" width="582pt" xmlns="http://www.w3.org/2000/svg"><path d="m537.011719 546.25h-528.21875c-4.707031 0-8.519531-3.8125-8.519531-8.523438 0-39.089843 13.640624-57.785156 47.089843-64.507812 17.828125-3.582031 32.832031-12.847656 42.25-26.09375 11.492188-16.164062 29.460938-26.464844 48.980469-28.351562l9.390625-32.882813c1.292969-4.527344 6.015625-7.117187 10.53125-5.859375 4.527344 1.296875 7.144531 6.015625 5.851563 10.535156l-11.070313 38.742188c-1.042969 3.660156-4.386719 6.179687-8.191406 6.179687-16.476563 0-32.039063 8.039063-41.609375 21.5-11.9375 16.800781-30.675782 28.488281-52.773438 32.929688-20.222656 4.0625-31.367187 11.597656-33.152344 39.289062h510.667969c-1.789062-27.691406-12.929687-35.226562-33.15625-39.289062-22.09375-4.441407-40.84375-16.128907-52.777343-32.929688-9.566407-13.460937-25.128907-21.5-41.605469-21.5h-8.519531c-3.800782 0-7.144532-2.519531-8.191407-6.179687l-8.46875-29.644532c-1.292969-4.515624 1.324219-9.234374 5.847657-10.53125 4.519531-1.265624 9.246093 1.332032 10.53125 5.855469l6.707031 23.460938h2.09375c21.984375 0 42.726562 10.722656 55.496093 28.675781 9.414063 13.246094 24.417969 22.511719 42.242188 26.09375 33.453125 6.722656 47.097656 25.417969 47.097656 64.507812 0 4.710938-3.816406 8.523438-8.523437 8.523438zm0 0"/><path d="m292.25 486.609375h-51.121094c-1.546875 0-3.0625-.414063-4.386718-1.214844l-62.226563-37.328125c-16.75-10.050781-26.382813-29.121094-24.53125-48.574218l5.804687-60.882813-7.121093-19.945313c-3.679688-10.316406-4.96875-21.53125-3.722657-32.421874l2.304688-20.15625-42-126.085938c-.761719-2.304688-.515625-4.824219.691406-6.933594 1.203125-2.097656 3.253906-3.601562 5.628906-4.097656l33.535157-7.089844v-35.695312c0-2.765625 1.351562-5.367188 3.613281-6.964844l24.179688-17.039062c1.871093-1.316407 4.179687-1.8125 6.425781-1.421876 2.242187.410157 4.230469 1.695313 5.523437 3.585938l17.292969 25.339844 8.851563-9.359375c2.023437-2.140625 5.015624-3.070313 7.902343-2.484375 2.886719.589844 5.265625 2.636718 6.277344 5.394531l15.324219 41.609375 17.667968-74.703125c.082032-.355469.195313-.707031.324219-1.050781l16.117188-42.597656c1.113281-2.933594 3.746093-5.023438 6.859375-5.429688 2.8125-.394531 69.648437-8.664062 104.464844 28.144531 2.128906 2.246094 2.867187 5.464844 1.9375 8.414063-.132813.421875-11.308594 36.539062-9.769532 71.984375l35.753906-37.800781c2.585938-2.714844 6.644532-3.460938 10.007813-1.753907 3.359375 1.679688 5.222656 5.367188 4.574219 9.082031l-33.863282 194.644532 2.160157 17.929687c1.382812 11.523438-.058594 23.355469-4.179688 34.210938l-6.433593 16.945312 5.640624 56.464844c1.953126 19.546875-7.667968 38.699219-24.511718 48.800781l-71.03125 37.5c-1.21875.644532-2.582032.980469-3.964844.980469zm-48.761719-17.039063h46.648438l68.753906-36.285156c10.808594-6.488281 17.210937-19.25 15.917969-32.261718l-5.84375-58.457032c-.128906-1.3125.046875-2.636718.507812-3.867187l7.148438-18.820313c3.148437-8.292968 4.25-17.335937 3.191406-26.140625l-2.304688-19.167969c-.101562-.824218-.082031-1.652343.058594-2.476562l29.234375-168.03125-28.921875 30.582031c-2.203125 2.320313-5.515625 3.199219-8.589844 2.320313-3.070312-.910156-5.378906-3.453125-5.972656-6.597656-6.941406-36.675782 2.886719-78.394532 6.820313-92.75-24.652344-21.945313-67.03125-21.101563-81.480469-20.109376l-14.039062 37.097657-24.050782 101.703125c-.867187 3.65625-4.027344 6.316406-7.78125 6.539062-3.6875.230469-7.207031-2.03125-8.503906-5.554687l-20.351562-55.273438-6.683594 7.0625c-1.773438 1.875-4.265625 2.863281-6.867188 2.636719-2.570312-.207031-4.902344-1.5625-6.363281-3.695312l-18.378906-26.925782-13.492188 9.503906v38.179688c0 4.027344-2.8125 7.503906-6.753906 8.339844l-30.960937 6.550781 39.585937 118.816406c.390625 1.179688.523437 2.429688.382813 3.664063l-2.523438 22.019531c-.949219 8.320313.035156 16.890625 2.847656 24.769531l7.75 21.722656c.425782 1.175782.578125 2.429688.460938 3.671876l-5.984375 62.773437c-1.230469 12.953125 5.183593 25.648437 16.339843 32.347656zm0 0"/><path d="m264.382812 401.402344c-10.898437 0-21.796874-1.332032-32.394531-3.980469l-3.738281-.929687c-4.5625-1.128907-7.347656-5.753907-6.214844-10.324219 1.132813-4.566407 5.757813-7.328125 10.324219-6.214844l3.753906.9375c18.503907 4.640625 38.042969 4.628906 56.53125.003906.46875-.117187.941407-.199219 1.421875-.230469l12.269532-.933593c4.679687-.289063 8.785156 3.152343 9.140624 7.847656.355469 4.695313-3.15625 8.785156-7.847656 9.144531l-11.5625.882813c-10.371094 2.53125-21.03125 3.796875-31.683594 3.796875zm0 0"/><path d="m170.675781 231.023438c-.6875 0-1.378906-.085938-2.078125-.261719-4.5625-1.140625-7.335937-5.765625-6.199218-10.324219l7.828124-31.300781-24.429687-57c-1.855469-4.320313.148437-9.324219 4.472656-11.183594 4.332031-1.882813 9.339844.140625 11.1875 4.476563l25.558594 59.640624c.738281 1.707032.886719 3.605469.433594 5.414063l-8.515625 34.078125c-.96875 3.878906-4.445313 6.460938-8.257813 6.460938zm0 0"/><path d="m289.953125 120.265625c-.285156 0-.570313-.019531-.859375-.042969-4.683594-.476562-8.101562-4.644531-7.628906-9.324218 1.472656-14.703126 9.746094-88.960938 27.996094-107.304688 3.320312-3.332031 8.722656-3.355469 12.046874-.035156 3.335938 3.320312 3.355469 8.710937.035157 12.046875-10.847657 10.90625-19.9375 65.277343-23.117188 96.984375-.449219 4.394531-4.152343 7.675781-8.472656 7.675781zm0 0"/><path d="m281.4375 213.980469c-.40625 0-.8125-.027344-1.21875-.085938-4.65625-.660156-7.894531-4.980469-7.226562-9.640625l8.515624-59.636718c.664063-4.660157 4.972657-7.863282 9.640626-7.230469 4.652343.664062 7.890624 4.984375 7.226562 9.644531l-8.519531 59.636719c-.609375 4.253906-4.25 7.3125-8.417969 7.3125zm0 0"/><path d="m375.128906 179.902344c-4.492187 0-8.253906-3.519532-8.496094-8.054688-.03125-.503906-2.765624-50.542968-5.574218-71.511718-.625-4.664063 2.648437-8.949219 7.3125-9.574219 4.648437-.5625 8.949218 2.652343 9.574218 7.3125 2.902344 21.632812 5.585938 70.765625 5.703126 72.84375.253906 4.699219-3.347657 8.722656-8.046876 8.96875-.15625.015625-.3125.015625-.472656.015625zm0 0"/><path d="m221.785156 291.066406c-6.917968 0-13.007812 4.886719-17.039062 12.375 4.03125 7.480469 10.121094 12.367188 17.039062 12.367188 6.914063 0 13.007813-4.878906 17.039063-12.367188-4.03125-7.488281-10.125-12.375-17.039063-12.375zm0 0"/><path d="m315.503906 291.066406c-6.917968 0-13.007812 4.886719-17.042968 12.375 4.035156 7.480469 10.125 12.367188 17.042968 12.367188 6.910156 0 13.003906-4.878906 17.035156-12.367188-4.03125-7.488281-10.125-12.375-17.035156-12.375zm0 0"/><path d="m272.894531 546.25c-3.816406 0-7.289062-2.578125-8.257812-6.457031l-7.191407-28.78125-126.953124-23.804688-67.011719 57.007813c-3.589844 3.046875-8.960938 2.625-12.011719-.96875-3.054688-3.578125-2.621094-8.960938.96875-12.007813l70.105469-59.636719c1.960937-1.664062 4.597656-2.363281 7.089843-1.878906l136.316407 25.558594c3.273437.605469 5.890625 3.066406 6.695312 6.304688l8.523438 34.078124c1.140625 4.558594-1.636719 9.1875-6.203125 10.328126-.691406.175781-1.382813.257812-2.070313.257812zm0 0"/><path d="m270.960938 546.25c-.6875 0-1.382813-.082031-2.078126-.257812-4.5625-1.140626-7.335937-5.769532-6.195312-10.328126l8.515625-34.078124c.808594-3.238282 3.425781-5.699219 6.699219-6.304688l136.320312-25.558594c2.496094-.492187 5.128906.207032 7.085938 1.878906l70.109375 59.636719c3.582031 3.046875 4.015625 8.429688.96875 12.007813-3.046875 3.59375-8.421875 4.015625-12.011719.96875l-67.015625-57.007813-126.949219 23.804688-7.191406 28.78125c-.972656 3.878906-4.441406 6.457031-8.257812 6.457031zm0 0"/></svg>