<svg height="581pt" viewBox="-18 -22 581.33275 581" width="581pt" xmlns="http://www.w3.org/2000/svg"><path d="m425.78125 272.339844c-4.707031 0-8.515625-3.808594-8.515625-8.515625s3.808594-8.511719 8.515625-8.511719c9.386719 0 17.035156-7.648438 17.035156-17.03125 0-9.390625-7.648437-17.035156-17.035156-17.035156-4.707031 0-8.515625-3.804688-8.515625-8.511719s3.808594-8.519531 8.515625-8.519531c18.789062 0 34.0625 15.277344 34.0625 34.066406 0 18.785156-15.273438 34.058594-34.0625 34.058594zm0 0"/><path d="m119.21875 272.339844c-18.78125 0-34.0625-15.273438-34.0625-34.058594 0-18.789062 15.28125-34.066406 34.0625-34.066406 4.707031 0 8.515625 3.8125 8.515625 8.519531s-3.808594 8.511719-8.515625 8.511719c-9.386719 0-17.027344 7.644531-17.027344 17.035156 0 9.382812 7.640625 17.03125 17.027344 17.03125 4.707031 0 8.515625 3.804688 8.515625 8.511719s-3.808594 8.515625-8.515625 8.515625zm0 0"/><path d="m536.480469 536.328125h-527.964844c-4.707031 0-8.515625-3.808594-8.515625-8.515625v-79.800781c0-17.066407 12.175781-31.738281 28.9375-34.878907l98.796875-19.179687v-15.949219c0-4.707031 3.808594-8.515625 8.515625-8.515625s8.515625 3.808594 8.515625 8.515625v22.972656c0 4.070313-2.894531 7.582032-6.894531 8.355469l-105.734375 20.523438c-8.777344 1.648437-15.105469 9.28125-15.105469 18.15625v71.28125h510.9375v-71.554688c0-8.765625-6.234375-16.382812-14.835938-18.105469l-105.996093-20.445312c-4.011719-.765625-6.90625-4.28125-6.90625-8.363281v-22.773438c0-4.707031 3.8125-8.519531 8.519531-8.519531s8.515625 3.8125 8.515625 8.519531v15.746094l99.152344 19.125c16.589843 3.320313 28.582031 17.964844 28.582031 34.816406v80.074219c0 4.707031-3.8125 8.515625-8.519531 8.515625zm0 0"/><path d="m390.703125 391.5625h-236.40625c-24.035156 0-43.59375-19.558594-43.59375-43.597656v-210.082032c0-4.707031 3.808594-8.511718 8.515625-8.511718s8.515625 3.804687 8.515625 8.511718v210.082032c0 14.648437 11.917969 26.566406 26.5625 26.566406h236.410156c14.640625 0 26.558594-11.917969 26.558594-26.566406v-237.421875c0-4.707031 3.8125-8.511719 8.519531-8.511719 4.707032 0 8.511719 3.804688 8.511719 8.511719v237.421875c0 24.039062-19.558594 43.597656-43.59375 43.597656zm0 0"/><path d="m178.828125 434.136719c-4.707031 0-8.511719-3.808594-8.511719-8.515625v-42.578125c0-4.707031 3.804688-8.511719 8.511719-8.511719s8.515625 3.804688 8.515625 8.511719v42.578125c0 4.707031-3.808594 8.515625-8.515625 8.515625zm0 0"/><path d="m272.5 536.328125c-4.707031 0-8.519531-3.808594-8.519531-8.515625v-25.550781c0-4.707031 3.8125-8.515625 8.519531-8.515625s8.515625 3.808594 8.515625 8.515625v25.550781c0 4.707031-3.808594 8.515625-8.515625 8.515625zm0 0"/><path d="m366.171875 468.203125c-4.707031 0-8.515625-3.808594-8.515625-8.515625v-76.644531c0-4.707031 3.808594-8.511719 8.515625-8.511719s8.519531 3.804688 8.519531 8.511719v76.644531c0 4.707031-3.8125 8.515625-8.519531 8.515625zm0 0"/><path d="m187.84375 161.640625c-1.179688 0-2.363281-.242187-3.476562-.742187-3.070313-1.375-5.042969-4.414063-5.042969-7.777344v-34.058594h-26.300781l-45.15625 40.402344c-2.511719 2.246094-6.101563 2.800781-9.15625 1.433594-3.070313-1.371094-5.039063-4.414063-5.039063-7.777344v-122.816406c0-16.800782 14.828125-30.464844 33.046875-30.464844h237.761719c38.5 0 69.816406 28.429687 69.816406 63.371094v47.332031c0 4.707031-3.808594 8.519531-8.515625 8.519531h-187.09375l-45.164062 40.402344c-1.597657 1.421875-3.625 2.175781-5.679688 2.175781zm-38.070312-59.609375h38.070312c4.703125 0 8.515625 3.804688 8.515625 8.511719v23.535156l33.398437-29.878906c1.5625-1.394531 3.585938-2.167969 5.679688-2.167969h181.828125v-38.820312c0-25.546876-23.675781-46.339844-52.785156-46.339844h-237.761719c-8.828125 0-16.015625 6.023437-16.015625 13.433594v103.773437l33.390625-29.878906c1.558594-1.398438 3.582031-2.167969 5.679688-2.167969zm0 0"/><path d="m332.117188 280.859375c-3.128907 0-6.128907-1.726563-7.625-4.707031l-6.164063-12.328125h-96.921875c-4.707031 0-8.515625-3.804688-8.515625-8.511719s3.808594-8.519531 8.515625-8.519531h102.1875c3.226562 0 6.167969 1.824219 7.617188 4.707031l8.515624 17.03125c2.101563 4.210938.402344 9.324219-3.808593 11.425781-1.222657.609375-2.519531.902344-3.800781.902344zm0 0"/><path d="m374.691406 187.1875h-204.375c-4.707031 0-8.519531-3.8125-8.519531-8.519531s3.8125-8.511719 8.519531-8.511719h204.375c4.707032 0 8.511719 3.804688 8.511719 8.511719s-3.804687 8.519531-8.511719 8.519531zm0 0"/><path d="m208.632812 204.214844-38.316406-25.546875h76.636719zm0 0"/><path d="m336.367188 204.214844-38.320313-25.546875h76.644531zm0 0"/><path d="m272.5 391.5625c-4.707031 0-8.519531-3.8125-8.519531-8.519531v-17.03125c0-4.707031 3.8125-8.515625 8.519531-8.515625s8.515625 3.808594 8.515625 8.515625v17.03125c0 4.707031-3.808594 8.519531-8.515625 8.519531zm0 0"/></svg>