<svg height="581.33341pt" viewBox="-18 -18 581.33341 581.33341" width="581.33341pt" xmlns="http://www.w3.org/2000/svg"><path d="m536.476562 544.925781h-527.960937c-4.707031 0-8.515625-3.8125-8.515625-8.519531v-79.796875c0-17.066406 12.175781-31.738281 28.945312-34.878906l103.527344-20.101563c4.609375-.917968 9.078125 2.121094 9.980469 6.738282.894531 4.617187-2.121094 9.078124-6.742187 9.980468l-103.570313 20.105469c-8.777344 1.644531-15.105469 9.28125-15.105469 18.15625v71.28125h510.929688v-71.554687c0-8.765626-6.238282-16.378907-14.832032-18.097657l-103.054687-19.894531c-4.621094-.886719-7.640625-5.355469-6.75-9.96875.886719-4.617188 5.359375-7.648438 9.972656-6.746094l103.117188 19.902344c16.585937 3.308594 28.582031 17.945312 28.582031 34.804688v80.070312c-.003906 4.707031-3.816406 8.519531-8.523438 8.519531zm0 0"/><path d="m212.894531 544.925781c-2.585937 0-5.144531-1.175781-6.816406-3.410156l-76.640625-102.191406c-1.105469-1.472657-1.707031-3.257813-1.707031-5.105469v-66.773438c0-4.707031 3.816406-8.519531 8.519531-8.519531 4.699219 0 8.515625 3.8125 8.515625 8.519531v63.9375l74.933594 99.917969c2.824219 3.761719 2.0625 9.097657-1.703125 11.917969-1.527344 1.144531-3.320313 1.707031-5.101563 1.707031zm0 0"/><path d="m408.746094 442.734375c-4.703125 0-8.515625-3.808594-8.515625-8.515625v-66.773438c0-4.707031 3.8125-8.519531 8.515625-8.519531s8.519531 3.8125 8.519531 8.519531v66.773438c0 4.707031-3.816406 8.515625-8.519531 8.515625zm0 0"/><path d="m335.613281 451.253906h-126.230469c-2.375 0-4.644531-.988281-6.257812-2.738281l-90.167969-97.652344c-1.453125-1.582031-2.253906-3.644531-2.253906-5.78125v-185.710937c0-87.917969 72.582031-159.4453128 161.792969-159.4453128 89.214844 0 161.796875 71.5273438 161.796875 159.4453128v185.710937c0 2.136719-.808594 4.199219-2.261719 5.78125l-90.160156 97.652344c-1.613282 1.75-3.886719 2.738281-6.257813 2.738281zm-122.5-17.035156h118.765625l85.386719-92.464844v-182.382812c0-78.53125-64.945313-142.410156-144.769531-142.410156-79.820313 0-144.765625 63.878906-144.765625 142.410156v182.382812zm212.664063-89.136719h.082031zm0 0"/><path d="m332.105469 391.640625h-119.214844c-2.96875 0-5.71875-1.542969-7.265625-4.074219l-76.640625-125.304687c-.917969-1.503907-1.351563-3.25-1.230469-5.011719l9.734375-144.359375c.183594-2.707031 1.648438-5.171875 3.949219-6.625l79.871094-50.425781c2.296875-1.457032 5.15625-1.71875 7.675781-.71875 2.523437 1 4.425781 3.144531 5.105469 5.769531l15.789062 60.582031h45.234375l15.785157-60.582031c.6875-2.625 2.585937-4.769531 5.113281-5.769531 2.527343-1 5.382812-.738282 7.671875.71875l79.867187 50.425781c2.300781 1.457031 3.773438 3.917969 3.953125 6.625l9.730469 144.359375c.121094 1.761719-.308594 3.507812-1.226563 5.011719l-76.644531 125.304687c-1.539062 2.53125-4.292969 4.074219-7.257812 4.074219zm-114.445313-17.03125h109.675782l72.730468-118.914063-9.257812-137.339843-66.363282-41.894531-14.511718 55.671874c-.972656 3.753907-4.367188 6.371094-8.238282 6.371094h-58.394531c-3.875 0-7.265625-2.617187-8.238281-6.371094l-14.507812-55.671874-66.371094 41.894531-9.257813 137.339843zm0 0"/><path d="m238.4375 255.390625-68.125-25.546875v-17.027344l68.125 17.027344zm0 0"/><path d="m306.5625 255.390625 68.125-25.546875v-17.027344l-68.125 17.027344zm0 0"/><path d="m332.105469 544.925781h-119.214844c-4.703125 0-8.515625-3.8125-8.515625-8.519531 0-37.5625 30.558594-68.125 68.121094-68.125 37.566406 0 68.125 30.5625 68.125 68.125 0 4.707031-3.808594 8.519531-8.515625 8.519531zm-109.992188-17.035156h100.765625c-4.066406-24.128906-25.105468-42.578125-50.382812-42.578125-25.269532 0-46.3125 18.449219-50.382813 42.578125zm0 0"/><path d="m340.625 408.675781c-2.496094 0-4.972656-1.089843-6.648438-3.195312l-31.507812-39.386719h-59.941406l-31.507813 39.386719c-2.933593 3.65625-8.304687 4.265625-11.960937 1.328125-3.679688-2.941406-4.273438-8.296875-1.332032-11.972656l34.058594-42.574219c1.613282-2.023438 4.066406-3.199219 6.652344-3.199219h68.125c2.582031 0 5.03125 1.175781 6.644531 3.199219l34.066407 42.574219c2.9375 3.675781 2.34375 9.03125-1.335938 11.972656-1.5625 1.257812-3.445312 1.867187-5.3125 1.867187zm0 0"/><path d="m332.101562 544.925781c-1.78125 0-3.574218-.5625-5.101562-1.707031-3.769531-2.820312-4.527344-8.160156-1.703125-11.917969l76.636719-102.1875c2.820312-3.769531 8.152344-4.523437 11.925781-1.707031 3.765625 2.820312 4.523437 8.160156 1.699219 11.917969l-76.636719 102.191406c-1.675781 2.234375-4.234375 3.410156-6.820313 3.410156zm0 0"/></svg>