<svg height="564pt" viewBox="-29 -18 564 564.00077" width="564pt" xmlns="http://www.w3.org/2000/svg"><path d="m112.230469 460.523438c-9.421875 0-17.058594-7.636719-17.058594-17.054688v-153.511719h-8.523437c-9.421876 0-17.058594-7.636719-17.058594-17.054687 0-9.417969 7.636718-17.054688 17.058594-17.054688h25.582031c9.421875 0 17.058593 7.636719 17.058593 17.054688v170.566406c0 9.417969-7.636718 17.054688-17.058593 17.054688zm0 0"/><path d="m237.046875 375.242188h-53.484375c-20.519531 0-37.21875-16.695313-37.21875-37.222657v-65.117187c0-9.417969 7.636719-17.054688 17.054688-17.054688 9.417968 0 17.054687 7.636719 17.054687 17.054688v65.117187c0 1.71875 1.390625 3.109375 3.109375 3.109375h53.484375c9.421875 0 17.058594 7.636719 17.058594 17.054688 0 9.421875-7.636719 17.058594-17.058594 17.058594zm0 0"/><path d="m257.210938 460.523438c-9.417969 0-17.054688-7.636719-17.054688-17.054688v-65.121094c0-1.71875-1.390625-3.105468-3.109375-3.105468h-53.484375c-9.417969 0-17.054688-7.636719-17.054688-17.058594 0-9.417969 7.636719-17.054688 17.054688-17.054688h53.484375c20.523437 0 37.21875 16.699219 37.21875 37.21875v65.121094c0 9.417969-7.636719 17.054688-17.054687 17.054688zm0 0"/><path d="m176.195312 528.75c-97.578124 0-176.964843-79.386719-176.964843-176.957031 0-97.578125 79.386719-176.964844 176.964843-176.964844 20.011719 0 39.648438 3.316406 58.363282 9.851563 4.445312 1.554687 6.785156 6.421874 5.234375 10.871093-1.550781 4.445313-6.410157 6.789063-10.867188 5.238281-16.898437-5.90625-34.648437-8.902343-52.730469-8.902343-88.175781 0-159.90625 71.730469-159.90625 159.90625 0 88.167969 71.730469 159.902343 159.90625 159.902343 88.167969 0 159.902344-71.734374 159.902344-159.902343 0-23.347657-4.914062-45.84375-14.601562-66.855469-1.976563-4.28125-.101563-9.347656 4.175781-11.316406 4.300781-1.980469 9.34375-.09375 11.316406 4.171875 10.722657 23.277343 16.164063 48.167969 16.164063 74 0 97.570312-79.382813 176.957031-176.957032 176.957031zm0 0"/><path d="m359.550781 289.957031c-79.945312 0-144.980469-65.03125-144.980469-144.976562 0-79.945313 65.035157-144.980469 144.980469-144.980469 79.941407 0 144.976563 65.035156 144.976563 144.980469 0 79.945312-65.035156 144.976562-144.976563 144.976562zm0-272.902343c-70.542969 0-127.925781 57.382812-127.925781 127.925781 0 70.539062 57.382812 127.921875 127.925781 127.921875 70.539063 0 127.921875-57.382813 127.921875-127.921875 0-70.542969-57.382812-127.925781-127.921875-127.925781zm0 0"/><path d="m359.550781 187.621094c-20.433593 0-39.160156-7.207032-50.109375-19.265625-3.167968-3.480469-2.910156-8.875.578125-12.039063 3.480469-3.152344 8.878907-2.917968 12.042969.582032 7.652344 8.425781 22.019531 13.667968 37.484375 13.667968 15.292969 0 29.582031-5.15625 37.285156-13.453125 3.1875-3.457031 8.59375-3.644531 12.050781-.441406 3.449219 3.207031 3.648438 8.605469.441407 12.050781-10.984375 11.839844-29.59375 18.898438-49.773438 18.898438zm0 0"/><path d="m299.851562 93.8125c0 9.417969-7.636718 17.054688-17.054687 17.054688s-17.058594-7.636719-17.058594-17.054688 7.640625-17.058594 17.058594-17.058594 17.054687 7.640625 17.054687 17.058594zm0 0"/><path d="m453.363281 93.8125c0 9.417969-7.636719 17.054688-17.0625 17.054688-9.417969 0-17.054687-7.636719-17.054687-17.054688s7.636718-17.058594 17.054687-17.058594c9.425781 0 17.0625 7.640625 17.0625 17.058594zm0 0"/><path d="m257.210938 392.300781c-9.417969 0-17.054688-7.636719-17.054688-17.058593v-59.699219c0-9.417969 7.636719-17.054688 17.054688-17.054688 9.417968 0 17.054687 7.636719 17.054687 17.054688v59.699219c0 9.421874-7.636719 17.058593-17.054687 17.058593zm0 0"/></svg>