<svg height="581pt" viewBox="-18 -22 581.33503 581" width="581pt" xmlns="http://www.w3.org/2000/svg"><path d="m417.269531 255.3125c-2.828125 0-5.644531-.351562-8.386719-1.042969-4.566406-1.144531-7.328124-5.769531-6.179687-10.332031 1.144531-4.546875 5.753906-7.3125 10.335937-6.179688 1.378907.351563 2.808594.527344 4.230469.527344 9.390625 0 17.027344-7.648437 17.027344-17.03125 0-9.390625-7.636719-17.035156-17.027344-17.035156-1.453125 0-2.878906.175781-4.246093.535156-4.539063 1.15625-9.195313-1.574218-10.367188-6.125-1.175781-4.554687 1.566406-9.195312 6.121094-10.375 2.746094-.710937 5.605468-1.066406 8.492187-1.066406 18.777344 0 34.058594 15.277344 34.058594 34.066406 0 18.785156-15.28125 34.058594-34.058594 34.058594zm0 0"/><path d="m127.734375 255.3125c-18.78125 0-34.0625-15.28125-34.0625-34.0625 0-18.785156 15.28125-34.0625 34.0625-34.0625 2.441406 0 4.890625.265625 7.292969.78125 4.601562.988281 7.523437 5.519531 6.53125 10.121094-.996094 4.597656-5.546875 7.53125-10.121094 6.527344-10.566406-2.304688-20.734375 6.023437-20.734375 16.632812 0 9.386719 7.640625 17.027344 17.03125 17.027344 1.171875 0 2.328125-.117188 3.4375-.339844 4.578125-.921875 9.109375 2.03125 10.054687 6.632812.9375 4.605469-2.027343 9.109376-6.632812 10.050782-2.230469.457031-4.535156.691406-6.859375.691406zm0 0"/><path d="m272.5 536.328125c-4.703125 0-8.515625-3.808594-8.515625-8.515625v-25.546875c0-4.707031 3.8125-8.515625 8.515625-8.515625s8.519531 3.808594 8.519531 8.515625v25.546875c0 4.707031-3.816406 8.515625-8.519531 8.515625zm0 0"/><path d="m536.484375 536.328125h-527.96875c-4.707031 0-8.515625-3.808594-8.515625-8.515625v-79.796875c0-17.070313 12.175781-31.738281 28.945312-34.878906l124.335938-19.445313v-28.152344c0-4.707031 3.816406-8.511718 8.515625-8.511718 4.703125 0 8.519531 3.804687 8.519531 8.511718v35.4375c0 4.191407-3.0625 7.761719-7.207031 8.417969l-131.28125 20.523438c-8.464844 1.585937-14.796875 9.222656-14.796875 18.097656v71.28125h510.941406v-71.5625c0-8.757813-6.242187-16.378906-14.84375-18.101563l-131.234375-20.390624c-4.148437-.648438-7.207031-4.214844-7.207031-8.414063v-34.8125c0-4.707031 3.8125-8.515625 8.515625-8.515625s8.511719 3.808594 8.511719 8.515625v27.515625l124.402344 19.335938c16.886718 3.375 28.882812 18.023437 28.882812 34.867187v80.078125c0 4.707031-3.808594 8.515625-8.515625 8.515625zm0 0"/><path d="m272.5 468.203125c-52.351562 0-98.835938-27.21875-118.425781-69.332031-.519531-1.117188-.792969-2.351563-.792969-3.589844v-29.742188c0-4.707031 3.816406-8.511718 8.515625-8.511718 4.703125 0 8.519531 3.804687 8.519531 8.511718v27.808594c17.257813 35.183594 57.136719 57.824219 102.183594 57.824219 45.050781 0 84.933594-22.640625 102.191406-57.824219v-27.332031c0-4.707031 3.808594-8.515625 8.511719-8.515625s8.519531 3.808594 8.519531 8.515625v29.265625c0 1.238281-.273437 2.464844-.796875 3.589844-19.585937 42.113281-66.074219 69.332031-118.425781 69.332031zm0 0"/><path d="m377.964844 374.527344h-210.929688c-21.671875 0-39.300781-17.628906-39.300781-39.296875v-220.859375c0-63.152344 51.375-114.527344 114.53125-114.527344h60.46875c63.152344 0 114.535156 51.375 114.535156 114.527344v220.859375c0 21.667969-17.628906 39.296875-39.304687 39.296875zm-135.699219-357.65625c-53.761719 0-97.496094 43.734375-97.496094 97.5v220.859375c0 12.285156 9.988281 22.269531 22.265625 22.269531h210.929688c12.28125 0 22.269531-9.984375 22.269531-22.269531v-220.859375c0-53.765625-43.738281-97.5-97.5-97.5zm0 0"/><path d="m212.882812 280.859375c-1.277343 0-2.578124-.289063-3.800781-.898437-4.210937-2.105469-5.910156-7.21875-3.808593-11.429688l8.515624-17.027344c1.441407-2.886718 4.390626-4.707031 7.617188-4.707031h34.230469c4.703125 0 8.515625 3.808594 8.515625 8.515625s-3.8125 8.511719-8.515625 8.511719h-28.964844l-6.164063 12.328125c-1.488281 2.984375-4.496093 4.707031-7.625 4.707031zm0 0"/><path d="m332.117188 280.859375c-3.128907 0-6.132813-1.722656-7.625-4.707031l-6.164063-12.328125h-28.796875c-4.703125 0-8.511719-3.804688-8.511719-8.511719s3.808594-8.515625 8.511719-8.515625h34.066406c3.222656 0 6.171875 1.820313 7.613282 4.707031l8.519531 17.027344c2.097656 4.210938.398437 9.324219-3.8125 11.429688-1.222657.609374-2.523438.898437-3.800781.898437zm0 0"/><path d="m374.691406 187.1875h-204.375c-4.707031 0-8.519531-3.808594-8.519531-8.515625s3.8125-8.519531 8.519531-8.519531h204.375c4.703125 0 8.511719 3.8125 8.511719 8.519531s-3.808594 8.515625-8.511719 8.515625zm0 0"/><path d="m208.632812 204.21875-38.316406-25.546875h76.636719zm0 0"/><path d="m336.367188 204.21875-38.320313-25.546875h76.644531zm0 0"/><path d="m272.5 536.328125c-4.703125 0-8.515625-3.808594-8.515625-8.515625v-25.546875c0-4.707031 3.8125-8.515625 8.515625-8.515625s8.519531 3.808594 8.519531 8.515625v25.546875c0 4.707031-3.816406 8.515625-8.519531 8.515625zm0 0"/><path d="m309.109375 272.34375h-73.21875c-3.292969 0-5.96875 2.675781-5.96875 5.96875v39.15625c0 3.292969 2.675781 5.96875 5.96875 5.96875h73.21875c3.300781 0 5.96875-2.675781 5.96875-5.96875v-39.15625c0-3.292969-2.675781-5.96875-5.96875-5.96875zm-53.636719 42.578125c0-9.40625 7.625-17.03125 17.027344-17.03125 9.40625 0 17.03125 7.625 17.03125 17.03125zm0 0"/></svg>