<svg height="564pt" viewBox="-29 -18 564 564.00077" width="564pt" xmlns="http://www.w3.org/2000/svg"><path d="m112.230469 460.523438c-9.421875 0-17.058594-7.636719-17.058594-17.054688v-153.511719h-8.523437c-9.421876 0-17.058594-7.636719-17.058594-17.054687 0-9.417969 7.636718-17.054688 17.058594-17.054688h25.582031c9.421875 0 17.058593 7.636719 17.058593 17.054688v170.566406c0 9.417969-7.636718 17.054688-17.058593 17.054688zm0 0"/><path d="m237.042969 375.242188h-53.476563c-20.523437 0-37.222656-16.695313-37.222656-37.222657v-44.953125c0-20.519531 16.699219-37.21875 37.222656-37.21875h53.476563c20.527343 0 37.222656 16.699219 37.222656 37.21875v44.953125c0 20.527344-16.695313 37.222657-37.222656 37.222657zm-53.476563-85.285157c-1.714844 0-3.113281 1.390625-3.113281 3.109375v44.953125c0 1.71875 1.398437 3.109375 3.113281 3.109375h53.476563c1.714843 0 3.113281-1.390625 3.113281-3.109375v-44.953125c0-1.71875-1.398438-3.109375-3.113281-3.109375zm0 0"/><path d="m237.042969 460.523438h-53.476563c-20.523437 0-37.222656-16.699219-37.222656-37.21875v-44.957032c0-20.519531 16.699219-37.21875 37.222656-37.21875h53.476563c20.527343 0 37.222656 16.699219 37.222656 37.21875v44.957032c0 20.519531-16.695313 37.21875-37.222656 37.21875zm-53.476563-85.28125c-1.714844 0-3.113281 1.386718-3.113281 3.105468v44.957032c0 1.714843 1.398437 3.105468 3.113281 3.105468h53.476563c1.714843 0 3.113281-1.390625 3.113281-3.105468v-44.957032c0-1.71875-1.398438-3.105468-3.113281-3.105468zm0 0"/><path d="m176.195312 528.75c-97.578124 0-176.964843-79.386719-176.964843-176.957031 0-97.578125 79.386719-176.964844 176.964843-176.964844 18.992188 0 37.691407 3 55.585938 8.914063 4.46875 1.472656 6.898438 6.296874 5.425781 10.765624-1.476562 4.472657-6.300781 6.929688-10.773437 5.421876-16.171875-5.339844-33.070313-8.042969-50.238282-8.042969-88.175781 0-159.90625 71.730469-159.90625 159.90625 0 88.167969 71.730469 159.902343 159.90625 159.902343 88.167969 0 159.902344-71.734374 159.902344-159.902343 0-23.316407-4.902344-45.792969-14.570312-66.796875-1.972656-4.28125-.101563-9.347656 4.183594-11.3125 4.273437-1.960938 9.34375-.097656 11.304687 4.183594 10.707031 23.25 16.136719 48.128906 16.136719 73.925781 0 97.570312-79.382813 176.957031-176.957032 176.957031zm0 0"/><path d="m359.550781 289.957031c-79.945312 0-144.980469-65.03125-144.980469-144.976562 0-79.945313 65.035157-144.980469 144.980469-144.980469 79.941407 0 144.976563 65.035156 144.976563 144.980469 0 79.945312-65.035156 144.976562-144.976563 144.976562zm0-272.902343c-70.539062 0-127.925781 57.382812-127.925781 127.925781 0 70.539062 57.386719 127.921875 127.925781 127.921875 70.535157 0 127.921875-57.382813 127.921875-127.921875 0-70.542969-57.386718-127.925781-127.921875-127.925781zm0 0"/><path d="m299.851562 93.8125c0 9.417969-7.636718 17.054688-17.054687 17.054688s-17.058594-7.636719-17.058594-17.054688 7.640625-17.058594 17.058594-17.058594 17.054687 7.640625 17.054687 17.058594zm0 0"/><path d="m453.363281 93.8125c0 9.417969-7.636719 17.054688-17.0625 17.054688-9.417969 0-17.054687-7.636719-17.054687-17.054688s7.636718-17.058594 17.054687-17.058594c9.425781 0 17.0625 7.640625 17.0625 17.058594zm0 0"/><path d="m385.136719 153.507812h-51.171875c-4.707032 0-8.527344-3.8125-8.527344-8.527343 0-4.714844 3.820312-8.527344 8.527344-8.527344h51.171875c4.707031 0 8.523437 3.8125 8.523437 8.527344 0 4.714843-3.816406 8.527343-8.523437 8.527343zm0 0"/></svg>