<svg height="526pt" viewBox="-33 -16 526 526.66488" width="526pt" xmlns="http://www.w3.org/2000/svg"><path d="m373.742188 493.75h-289.441407c-4.699219 0-8.507812-3.804688-8.507812-8.511719v-476.722656c0-4.707031 3.808593-8.515625 8.507812-8.515625h289.441407c4.703124 0 8.511718 3.808594 8.511718 8.515625v476.722656c0 4.707031-3.808594 8.511719-8.511718 8.511719zm-280.925782-17.027344h272.414063v-459.699218h-272.414063zm0 0"/><path d="m84.300781 493.75h-76.613281c-4.699219 0-8.515625-3.804688-8.515625-8.511719v-476.722656c0-4.707031 3.816406-8.515625 8.515625-8.515625h76.613281c4.707031 0 8.515625 3.808594 8.515625 8.515625v476.722656c0 4.707031-3.808594 8.511719-8.515625 8.511719zm-68.101562-17.027344h59.59375v-459.699218h-59.59375zm42.566406-34.046875h-25.539063c-4.699218 0-8.515624-3.8125-8.515624-8.515625v-68.105468c0-4.703126 3.816406-8.511719 8.515624-8.511719h25.539063c4.703125 0 8.511719 3.808593 8.511719 8.511719v68.105468c0 4.703125-3.808594 8.515625-8.511719 8.515625zm-17.027344-17.03125h8.511719v-51.074219h-8.511719zm17.027344-85.128906h-25.539063c-4.699218 0-8.515624-3.808594-8.515624-8.511719v-68.105468c0-4.707032 3.816406-8.507813 8.515624-8.507813h25.539063c4.703125 0 8.511719 3.800781 8.511719 8.507813v68.105468c0 4.703125-3.808594 8.511719-8.511719 8.511719zm-17.027344-17.023437h8.511719v-51.078126h-8.511719zm17.027344-85.128907h-25.539063c-4.699218 0-8.515624-3.808593-8.515624-8.515625v-68.101562c0-4.707032 3.816406-8.515625 8.515624-8.515625h25.539063c4.703125 0 8.511719 3.808593 8.511719 8.515625v68.101562c0 4.707032-3.808594 8.515625-8.511719 8.515625zm-17.027344-17.027343h8.511719v-51.074219h-8.511719zm17.027344-85.128907h-25.539063c-4.699218 0-8.515624-3.808593-8.515624-8.515625v-68.101562c0-4.707032 3.816406-8.511719 8.515624-8.511719h25.539063c4.703125 0 8.511719 3.804687 8.511719 8.511719v68.101562c0 4.707032-3.808594 8.515625-8.511719 8.515625zm-17.027344-17.023437h8.511719v-51.082032h-8.511719zm0 0"/><path d="m450.355469 493.75h-76.613281c-4.699219 0-8.511719-3.804688-8.511719-8.511719v-476.722656c0-4.707031 3.8125-8.515625 8.511719-8.515625h76.613281c4.707031 0 8.515625 3.808594 8.515625 8.515625v476.722656c0 4.707031-3.808594 8.511719-8.515625 8.511719zm-68.101563-17.027344h59.59375v-459.699218h-59.59375zm42.570313-34.046875h-25.539063c-4.703125 0-8.515625-3.8125-8.515625-8.515625v-68.105468c0-4.703126 3.8125-8.511719 8.515625-8.511719h25.539063c4.699219 0 8.507812 3.808593 8.507812 8.511719v68.105468c0 4.703125-3.808593 8.515625-8.507812 8.515625zm-17.03125-17.03125h8.515625v-51.074219h-8.515625zm17.03125-85.128906h-25.539063c-4.703125 0-8.515625-3.808594-8.515625-8.511719v-68.105468c0-4.707032 3.8125-8.507813 8.515625-8.507813h25.539063c4.699219 0 8.507812 3.800781 8.507812 8.507813v68.105468c0 4.703125-3.808593 8.511719-8.507812 8.511719zm-17.03125-17.023437h8.515625v-51.078126h-8.515625zm17.03125-85.128907h-25.539063c-4.703125 0-8.515625-3.808593-8.515625-8.515625v-68.101562c0-4.707032 3.8125-8.515625 8.515625-8.515625h25.539063c4.699219 0 8.507812 3.808593 8.507812 8.515625v68.101562c0 4.707032-3.808593 8.515625-8.507812 8.515625zm-17.03125-17.027343h8.515625v-51.074219h-8.515625zm17.03125-85.128907h-25.539063c-4.703125 0-8.515625-3.808593-8.515625-8.515625v-68.101562c0-4.707032 3.8125-8.511719 8.515625-8.511719h25.539063c4.699219 0 8.507812 3.804687 8.507812 8.511719v68.101562c0 4.707032-3.808593 8.515625-8.507812 8.515625zm-17.03125-17.023437h8.515625v-51.082032h-8.515625zm0 0"/><path d="m322.664062 119.183594h-178.769531c-14.082031 0-25.539062-11.457032-25.539062-25.539063v-85.128906c0-4.707031 3.808593-8.515625 8.515625-8.515625h212.820312c4.699219 0 8.511719 3.808594 8.511719 8.515625v85.128906c0 14.082031-11.457031 25.539063-25.539063 25.539063zm-187.285156-102.160156v76.621093c0 4.695313 3.820313 8.511719 8.515625 8.511719h178.769531c4.691407 0 8.515626-3.816406 8.515626-8.511719v-76.621093zm0 0"/><path d="m339.691406 493.75h-212.820312c-4.707032 0-8.515625-3.804688-8.515625-8.511719v-85.132812c0-14.082031 11.457031-25.535157 25.539062-25.535157h178.769531c14.082032 0 25.539063 11.453126 25.539063 25.535157v85.132812c0 4.707031-3.8125 8.511719-8.511719 8.511719zm-204.3125-17.027344h195.800782v-76.617187c0-4.695313-3.824219-8.511719-8.515626-8.511719h-178.769531c-4.695312 0-8.515625 3.816406-8.515625 8.511719zm0 0"/><path d="m322.664062 357.542969h-178.769531c-14.082031 0-25.539062-11.457031-25.539062-25.539063v-170.257812c0-14.082032 11.457031-25.539063 25.539062-25.539063h178.769531c14.082032 0 25.539063 11.457031 25.539063 25.539063v170.257812c0 14.082032-11.457031 25.539063-25.539063 25.539063zm-178.769531-204.3125c-4.695312 0-8.515625 3.820312-8.515625 8.515625v170.257812c0 4.699219 3.820313 8.511719 8.515625 8.511719h178.769531c4.691407 0 8.515626-3.8125 8.515626-8.511719v-170.257812c0-4.695313-3.824219-8.515625-8.515626-8.515625zm0 0"/><path d="m194.972656 225.59375c0 7.050781-5.71875 12.769531-12.769531 12.769531-7.054687 0-12.769531-5.71875-12.769531-12.769531 0-7.054688 5.714844-12.769531 12.769531-12.769531 7.050781 0 12.769531 5.714843 12.769531 12.769531zm0 0"/><path d="m297.125 225.59375c0 7.050781-5.71875 12.769531-12.765625 12.769531-7.054687 0-12.773437-5.71875-12.773437-12.769531 0-7.054688 5.71875-12.769531 12.773437-12.769531 7.046875 0 12.765625 5.714843 12.765625 12.769531zm0 0"/><path d="m194.972656 446.925781c0 7.054688-5.71875 12.773438-12.769531 12.773438-7.054687 0-12.769531-5.71875-12.769531-12.773438 0-7.046875 5.714844-12.765625 12.769531-12.765625 7.050781 0 12.769531 5.71875 12.769531 12.765625zm0 0"/><path d="m297.125 446.925781c0 7.054688-5.71875 12.773438-12.765625 12.773438-7.054687 0-12.773437-5.71875-12.773437-12.773438 0-7.046875 5.71875-12.765625 12.773437-12.765625 7.046875 0 12.765625 5.71875 12.765625 12.765625zm0 0"/><path d="m233.773438 289.4375c-13.046876 0-25.648438-5.625-34.570313-15.445312-3.164063-3.472657-2.910156-8.859376.566406-12.027344 3.480469-3.160156 8.867188-2.902344 12.027344.574218 5.792969 6.367188 13.597656 9.875 21.976563 9.875 8.714843 0 17.011718-3.929687 22.78125-10.796874 3.019531-3.597657 8.402343-4.054688 11.996093-1.039063 3.601563 3.027344 4.0625 8.394531 1.039063 11.996094-9.007813 10.710937-22.066406 16.863281-35.816406 16.863281zm0 0"/><path d="m233.773438 68.101562c-13.046876 0-25.648438-5.628906-34.570313-15.445312-3.164063-3.476562-2.910156-8.859375.566406-12.027344 3.480469-3.148437 8.867188-2.890625 12.027344.574219 5.792969 6.367187 13.597656 9.875 21.976563 9.875 8.714843 0 17.011718-3.929687 22.78125-10.796875 3.019531-3.597656 8.402343-4.0625 11.996093-1.039062 3.601563 3.023437 4.0625 8.398437 1.039063 11.996093-9.007813 10.710938-22.066406 16.863281-35.816406 16.863281zm0 0"/></svg>