<svg height="581pt" viewBox="-18 -39 581.33503 581" width="581pt" xmlns="http://www.w3.org/2000/svg"><path d="m536.484375 475.554688h-527.96875c-4.707031 0-8.515625-3.804688-8.515625-8.511719v-75.371094c0-16.382813 12.207031-30.445313 29.027344-33.421875l72.257812-12.785156c4.648438-.859375 9.046875 2.265625 9.871094 6.898437.820312 4.625-2.269531 9.050781-6.898438 9.863281l-72.253906 12.789063c-8.679687 1.542969-14.972656 8.546875-14.972656 16.65625v66.851563h510.941406v-67.109376c0-8.011718-6.203125-14.992187-14.75-16.617187l-76.25-14.402344c-4.621094-.871093-7.660156-5.320312-6.785156-9.945312.867188-4.625 5.339844-7.65625 9.945312-6.789063l76.25 14.40625c16.582032 3.136719 28.617188 17.160156 28.617188 33.347656v75.625c0 4.710938-3.808594 8.515626-8.515625 8.515626zm0 0"/><path d="m332.113281 441.496094c-2.3125 0-4.625-.941406-6.300781-2.789063-3.167969-3.484375-2.914062-8.863281.570312-12.03125l90.886719-82.621093v-75.207032c0-9.558594-5.988281-18.265625-14.898437-21.683594-4.386719-1.683593-6.585938-6.609374-4.898438-11.003906 1.679688-4.390625 6.609375-6.578125 10.996094-4.898437 15.449219 5.921875 25.828125 21.023437 25.828125 37.578125v78.984375c0 2.402343-1.011719 4.6875-2.785156 6.296875l-93.671875 85.160156c-1.632813 1.484375-3.683594 2.214844-5.726563 2.214844zm93.667969-93.671875h.082031zm0 0"/><path d="m212.886719 441.496094c-2.039063 0-4.089844-.730469-5.722657-2.214844l-93.675781-85.152344c-1.773437-1.613281-2.785156-3.902344-2.785156-6.304687v-78.976563c0-12.28125 5.492187-23.722656 15.066406-31.40625 3.664063-2.925781 9.035157-2.347656 11.96875 1.316406 2.945313 3.667969 2.355469 9.027344-1.308593 11.972657-5.523438 4.433593-8.695313 11.035156-8.695313 18.117187v75.207032l90.882813 82.621093c3.484374 3.167969 3.738281 8.546875.570312 12.03125-1.675781 1.847657-3.984375 2.789063-6.300781 2.789063zm0 0"/><path d="m272.5 305.246094c-61.023438 0-114.503906-43.96875-144.417969-99.75 3.632813 74.46875 66.796875 133.808594 144.417969 133.808594s140.792969-59.339844 144.417969-133.808594c-29.910157 55.78125-83.390625 99.75-144.417969 99.75zm0 0"/><path d="m397.710938 79.3125c-2.808594 0-5.5625-1.390625-7.183594-3.933594-23.847656-37.363281-67.96875-59.664062-118.027344-59.664062-50.046875 0-94.160156 22.292968-118.007812 59.632812-2.527344 3.964844-7.792969 5.128906-11.757813 2.59375-3.964844-2.527344-5.125-7.789062-2.589844-11.757812 26.988281-42.269532 76.464844-67.5 132.355469-67.5 55.90625 0 105.398438 25.246094 132.382812 67.535156 2.527344 3.96875 1.367188 9.230469-2.597656 11.757812-1.421875.902344-3.007812 1.335938-4.574218 1.335938zm0 0"/><path d="m450.816406 109.382812c-1.183594-21.152343-6.339844-34.027343-14.597656-41.367187 3.882812 13.332031 6.011719 27.546875 6.011719 42.535156 0 58.671875-31.628907 122.597657-79.214844 160.628907h28.707031l25.546875 85.15625 34.058594-25.546876zm0 0"/><path d="m102.769531 110.550781c0-18.710937 3.382813-36.179687 9.328125-52.25-10.203125 5.886719-16.578125 18.707031-17.914062 42.5625l-.511719 246.960938h34.0625l25.546875-76.644531h28.703125c-47.585937-38.03125-79.214844-101.953126-79.214844-160.628907zm0 0"/><path d="m272.5 313.761719c-100.382812 0-178.246094-109.234375-178.246094-203.207031 0-41.820313 15.15625-79.609376 43.824219-109.277344 2.535156-2.617188 6.457031-3.34375 9.769531-1.78125 3.296875 1.5625 5.238282 5.054687 4.8125 8.679687-.976562 8.460938-1.4375 15.613281-1.4375 22.503907 0 84.324218 54.097656 186.175781 121.277344 186.175781 67.1875 0 121.277344-101.851563 121.277344-186.175781 0-6.890626-.457032-14.042969-1.4375-22.503907-.421875-3.625 1.515625-7.117187 4.8125-8.679687 3.300781-1.5625 7.226562-.839844 9.773437 1.78125 28.667969 29.671875 43.824219 67.457031 43.824219 109.277344 0 93.972656-77.867188 203.207031-178.25 203.207031zm-138.296875-280.660157c-15.0625 22.625-22.921875 48.988282-22.921875 77.453126 0 84.324218 71.917969 186.171874 161.21875 186.171874 89.304688 0 161.21875-101.847656 161.21875-186.171874 0-28.464844-7.855469-54.828126-22.921875-77.453126-1.023437 93.414063-61.070313 200.777344-138.296875 200.777344s-137.273438-107.363281-138.296875-200.777344zm0 0"/><path d="m299.078125 475.554688h-53.15625c-11.042969 0-21.308594-4.402344-28.910156-12.417969-7.601563-8.011719-11.472657-18.5-10.886719-29.535157l5.539062-105.269531c.933594-17.722656 15.570313-31.605469 33.316407-31.605469h55.042969c17.746093 0 32.382812 13.882813 33.3125 31.605469l5.535156 105.269531c.585937 11.035157-3.285156 21.523438-10.878906 29.535157-7.601563 8.015625-17.871094 12.417969-28.914063 12.417969zm-54.097656-161.792969c-8.6875 0-15.851563 6.792969-16.308594 15.464843l-5.542969 105.277344c-.328125 6.320313 1.886719 12.320313 6.238282 16.910156 4.351562 4.582032 10.234374 7.109376 16.554687 7.109376h53.15625c6.324219 0 12.203125-2.527344 16.550781-7.109376 4.355469-4.589843 6.574219-10.597656 6.238282-16.910156l-5.535157-105.277344c-.460937-8.671874-7.621093-15.464843-16.308593-15.464843zm0 0"/><path d="m106.445312 501.101562c-7.058593 0-12.773437-5.714843-12.773437-12.769531v-157.539062h25.546875v157.539062c0 7.050781-5.71875 12.769531-12.773438 12.769531zm0 0"/><path d="m149.023438 501.101562c-7.050782 0-12.773438-5.714843-12.773438-12.769531v-114.960937h11.652344c7.671875 0 13.894531 6.222656 13.894531 13.894531v101.066406c0 7.050781-5.71875 12.769531-12.773437 12.769531zm0 0"/><path d="m438.558594 501.101562c7.054687 0 12.769531-5.714843 12.769531-12.769531v-157.539062h-25.546875v157.539062c0 7.050781 5.71875 12.769531 12.777344 12.769531zm0 0"/><path d="m395.980469 501.101562c7.054687 0 12.769531-5.714843 12.769531-12.769531v-114.960937h-11.648438c-7.675781 0-13.898437 6.222656-13.898437 13.894531v101.066406c0 7.050781 5.722656 12.769531 12.777344 12.769531zm0 0"/></svg>