<svg height="581pt" viewBox="-18 -27 581.33275 581" width="581pt" xmlns="http://www.w3.org/2000/svg"><path d="m536.480469 527.5625h-527.964844c-4.707031 0-8.515625-3.8125-8.515625-8.519531v-79.796875c0-17.066406 12.175781-31.734375 28.945312-34.878906l23.425782-4.390626c4.609375-.863281 9.070312 2.171876 9.9375 6.792969.867187 4.621094-2.179688 9.070313-6.804688 9.9375l-23.417968 4.390625c-8.722657 1.636719-15.050782 9.269532-15.050782 18.140625v71.292969h510.933594v-71.558594c0-8.765625-6.234375-16.375-14.832031-18.097656l-24.625-4.933594c-4.609375-.917968-7.601563-5.410156-6.675781-10.015625.921874-4.617187 5.375-7.644531 10.015624-6.679687l24.625 4.929687c16.53125 3.304688 28.523438 17.9375 28.523438 34.796875v80.070313c0 4.707031-3.8125 8.519531-8.519531 8.519531zm0 0"/><path d="m416.105469 401.296875c-.554688 0-1.113281-.050781-1.679688-.167969l-47.027343-9.402344c-4.613282-.925781-7.601563-5.40625-6.679688-10.019531.921875-4.617187 5.386719-7.636719 10.023438-6.679687l47.027343 9.402344c4.609375.925781 7.601563 5.410156 6.675781 10.023437-.804687 4.050781-4.367187 6.84375-8.339843 6.84375zm0 0"/><path d="m133.800781 401.878906c-4.027343 0-7.59375-2.847656-8.363281-6.941406-.867188-4.625 2.171875-9.074219 6.796875-9.941406l42.703125-8.003906c4.640625-.867188 9.074219 2.167968 9.941406 6.792968.863282 4.621094-2.179687 9.070313-6.800781 9.933594l-42.707031 8.011719c-.523438.101562-1.054688.148437-1.570313.148437zm0 0"/><path d="m451.328125 357.246094h-28.339844c-4.390625 0-8.058593-3.34375-8.480469-7.707032l-20.785156-219.144531c-2.230468-55.242187-28.40625-113.773437-95.257812-113.773437h-51.929688c-66.851562 0-93.027344 58.53125-95.230468 113.308594l-20.8125 219.609374c-.414063 4.363282-4.089844 7.707032-8.480469 7.707032h-28.339844c-4.703125 0-8.515625-3.804688-8.515625-8.511719s3.8125-8.519531 8.515625-8.519531h20.597656l20.050781-211.433594c3.136719-78.292969 47.195313-129.1875 112.214844-129.1875h51.929688c65.015625 0 109.078125 50.894531 112.242187 129.65625l20.027344 210.964844h20.59375c4.699219 0 8.515625 3.8125 8.515625 8.519531s-3.816406 8.511719-8.515625 8.511719zm0 0"/><path d="m184.246094 229.515625s18.628906 39.914063 55.878906 42.574219c0 0 10.648438-29.269532-55.878906-42.574219zm0 0"/><path d="m359.972656 229.515625s-18.625 39.914063-55.882812 42.574219c0 0-10.648438-29.269532 55.882812-42.574219zm0 0"/><path d="m317.8125 443.480469c-1.585938 0-3.191406-.105469-4.800781-.304688l-42.089844-4.046875-38.859375 3.867188c-14.941406 2.011718-29.953125-5.492188-35.78125-18.039063l-36.140625-54.929687c-11.882813-14.179688-17.15625-31.558594-14.84375-49.003906l4.382813-33.027344c.3125-2.332032 1.574218-4.429688 3.492187-5.804688 1.914063-1.371094 4.316406-1.878906 6.621094-1.421875l112.707031 22.574219 112.703125-22.570312c2.296875-.457032 4.707031.050781 6.628906 1.425781 1.914063 1.367187 3.175781 3.464843 3.488281 5.800781l4.386719 33.042969c2.3125 17.4375-2.953125 34.808593-14.828125 48.980469l-36.21875 55.105468c-5.21875 11.246094-17.386718 18.351563-30.847656 18.351563zm-46.902344-21.425781c.273438 0 .546875.019531.816406.042968l43.042969 4.140625c.09375.011719.1875.015625.273438.023438 7.914062 1.0625 15.753906-2.679688 18.296875-8.605469.199218-.457031.4375-.898438.710937-1.3125l36.878907-56.101562c.191406-.300782.402343-.582032.632812-.847657 8.953125-10.519531 12.957031-23.34375 11.265625-36.109375l-3.191406-24.023437-105.464844 21.113281c-1.105469.21875-2.238281.21875-3.339844 0l-105.464843-21.113281-3.179688 24.007812c-1.695312 12.765625 2.308594 25.605469 11.28125 36.136719.226562.261719.4375.542969.632812.835938l36.789063 55.929687c.273437.425781.515625.863281.710937 1.332031 2.566407 5.980469 10.535157 9.734375 18.46875 8.578125l40.003907-3.984375c.277343-.023437.554687-.042968.835937-.042968zm0 0"/><path d="m306.566406 348.734375h-68.125c-4.707031 0-8.519531-3.8125-8.519531-8.519531 0-4.707032 3.8125-8.515625 8.519531-8.515625h68.125c4.699219 0 8.511719 3.808593 8.511719 8.515625 0 4.707031-3.8125 8.519531-8.511719 8.519531zm0 0"/><path d="m110.699219 476.464844c-3.375 0-6.46875-2-7.824219-5.164063l-23.332031-54.441406h-45.476563c-3.445312 0-6.550781-2.070313-7.871094-5.257813-1.316406-3.1875-.589843-6.847656 1.847657-9.277343l59.605469-59.613281c1.722656-1.714844 4.113281-2.601563 6.492187-2.476563 2.421875.132813 4.667969 1.289063 6.179687 3.175781l67.832032 84.792969 25.210937 25.210937c2.320313 2.3125 3.097657 5.753907 2.015625 8.839844-1.085937 3.082032-3.84375 5.28125-7.097656 5.648438l-76.636719 8.515625c-.320312.035156-.636719.046875-.945312.046875zm-56.082031-76.636719h30.539062c3.40625 0 6.488281 2.027344 7.824219 5.160156l23.0625 53.800781 52.75-5.851562-13.019531-13.027344c-.222657-.222656-.425782-.457031-.628907-.695312l-62.179687-77.734375zm0 0"/><path d="m434.300781 476.464844c-.3125 0-.628906-.011719-.945312-.046875l-76.636719-8.515625c-3.253906-.367188-6.011719-2.558594-7.097656-5.644532-1.082032-3.085937-.304688-6.53125 2.015625-8.839843l25.210937-25.214844 67.832032-84.789063c1.511718-1.890624 3.757812-3.046874 6.179687-3.179687 2.441406-.140625 4.773437.757813 6.492187 2.480469l59.605469 59.609375c2.4375 2.4375 3.164063 6.09375 1.847657 9.277343-1.316407 3.1875-4.425782 5.257813-7.867188 5.257813h-45.480469l-23.335937 54.441406c-1.347656 3.164063-4.445313 5.164063-7.820313 5.164063zm-58.097656-23.535156 52.753906 5.859374 23.0625-53.800781c1.339844-3.132812 4.417969-5.160156 7.824219-5.160156h30.539062l-38.347656-38.347656-62.183594 77.730469c-.199218.242187-.402343.476562-.625.699218zm7-19.039063h.082031zm0 0"/><path d="m364.953125 527.5625h-193.421875c-3.714844 0-7.003906-2.414062-8.117188-5.957031-1.121093-3.539063.191407-7.410157 3.238282-9.535157l72.984375-51.09375c1.433593-1 3.140625-1.539062 4.882812-1.539062h43.792969c1.679688 0 3.328125.496094 4.726562 1.425781l76.640626 51.097657c3.121093 2.078124 4.511718 5.960937 3.425781 9.554687-1.085938 3.59375-4.40625 6.046875-8.152344 6.046875zm-166.40625-17.03125h138.28125l-51.09375-34.066406h-38.527344zm0 0"/></svg>