<svg height="581pt" viewBox="-18 -22 581.33275 581" width="581pt" xmlns="http://www.w3.org/2000/svg"><path d="m536.480469 536.328125h-527.964844c-4.707031 0-8.515625-3.808594-8.515625-8.515625 0-51.652344 42.023438-93.675781 93.671875-93.675781h49.945313c19.417968 0 35.210937-15.789063 35.210937-35.207031 0-4.707032 3.808594-8.519532 8.515625-8.519532s8.511719 3.8125 8.511719 8.519532c0 28.804687-23.429688 52.238281-52.238281 52.238281h-49.945313c-39.386719 0-71.914063 29.855469-76.164063 68.125h509.988282c-4.25-38.269531-36.78125-68.125-76.164063-68.125h-49.949219c-28.808593 0-52.242187-23.433594-52.242187-52.238281 0-4.707032 3.808594-8.519532 8.515625-8.519532s8.515625 3.8125 8.515625 8.519532c0 19.417968 15.792969 35.207031 35.210937 35.207031h49.945313c51.648437 0 93.671875 42.023437 93.671875 93.675781 0 4.707031-3.8125 8.515625-8.519531 8.515625zm0 0"/><path d="m272.5 451.167969c-78.628906 0-161.796875-122.558594-161.796875-238.433594 0-59.273437 10.886719-104.394531 36.394531-150.878906 22.265625-40.570313 65.632813-62.015625 125.402344-62.015625s103.136719 21.445312 125.402344 62.015625c25.507812 46.484375 36.394531 91.605469 36.394531 150.878906 0 115.875-83.167969 238.433594-161.796875 238.433594zm0-434.296875c-53.9375 0-91.101562 17.886718-110.46875 53.179687-24.042969 43.796875-34.296875 86.476563-34.296875 142.683594 0 105.527344 75.769531 221.402344 144.765625 221.402344s144.765625-115.875 144.765625-221.402344c0-56.207031-10.25-98.886719-34.292969-142.683594-19.367187-35.292969-56.53125-53.179687-110.472656-53.179687zm0 0"/><path d="m331.550781 158.15625c-45.085937 32.980469-51.992187 132.980469-50.535156 139.734375 1.734375 8.078125 84.996094-8.140625 103.917969-50.179687 35.832031-79.628907-.492188-128.246094-53.382813-89.554688zm32.960938 71.140625c-5.191407 15.027344-16.140625 27.378906-30.4375 34.335937l-35.828125 17.429688 29.386718-50.164062c4.40625-7.519532 11.617188-12.980469 20.046876-15.183594l23.652343-6.171875zm0 0"/><path d="m158.941406 247.710938c18.921875 42.039062 102.175782 58.257812 103.914063 50.179687 1.453125-6.753906-5.445313-106.753906-50.535157-139.734375-52.890624-38.691406-89.210937 9.925781-53.378906 89.554688zm13.601563-38.167969 23.644531 6.171875c8.429688 2.203125 15.640625 7.664062 20.046875 15.183594l29.386719 50.164062-35.824219-17.429688c-14.296875-6.957031-25.242187-19.308593-30.433594-34.335937zm0 0"/><path d="m289.117188 348.984375h-32.832032c-3.699218 0-6.980468-2.386719-8.109375-5.917969l-10.144531-31.574218c-1.125-3.484376.117188-7.292969 3.0625-9.460938l26.566406-19.515625c2.992188-2.210937 7.085938-2.210937 10.078125 0l26.5625 19.515625c2.949219 2.171875 4.1875 5.976562 3.066407 9.460938l-10.148438 31.574218c-1.125 3.53125-4.40625 5.917969-8.101562 5.917969zm-26.621094-17.035156h20.40625l6.378906-19.824219-16.582031-12.179688-16.582031 12.179688zm0 0"/><path d="m204.375 408.589844c-1.964844 0-3.933594-.671875-5.539062-2.050782-3.578126-3.0625-3.992188-8.433593-.921876-12l51.089844-59.613281c3.066406-3.582031 8.449219-3.972656 12-.921875 3.578125 3.0625 3.992188 8.429688.925782 12.003906l-51.09375 59.605469c-1.679688 1.96875-4.0625 2.976563-6.460938 2.976563zm0 0"/><path d="m153.28125 348.984375c-3.476562 0-6.746094-2.148437-8.003906-5.609375-1.609375-4.425781.675781-9.300781 5.09375-10.910156l93.671875-34.058594c4.449219-1.609375 9.308593.660156 10.910156 5.085938 1.613281 4.425781-.671875 9.308593-5.09375 10.914062l-93.664063 34.0625c-.964843.347656-1.949218.515625-2.914062.515625zm0 0"/><path d="m340.625 408.589844c-2.394531 0-4.78125-1.007813-6.460938-2.976563l-51.09375-59.605469c-3.066406-3.566406-2.652343-8.941406.925782-12.003906 3.566406-3.050781 8.945312-2.660156 12 .925782l51.09375 59.609374c3.066406 3.566407 2.652344 8.941407-.925782 12-1.605468 1.378907-3.574218 2.050782-5.539062 2.050782zm0 0"/><path d="m391.71875 348.984375c-.964844 0-1.949219-.167969-2.90625-.515625l-93.675781-34.0625c-4.414063-1.605469-6.703125-6.488281-5.089844-10.914062 1.601563-4.414063 6.46875-6.683594 10.910156-5.085938l93.671875 34.058594c4.414063 1.609375 6.699219 6.484375 5.089844 10.910156-1.253906 3.460938-4.523438 5.609375-8 5.609375zm0 0"/><path d="m272.5 297.890625c-4.707031 0-8.519531-3.8125-8.519531-8.519531v-281.011719c0-4.707031 3.8125-8.519531 8.519531-8.519531s8.515625 3.8125 8.515625 8.519531v281.011719c0 4.707031-3.808594 8.519531-8.515625 8.519531zm0 0"/><path d="m272.5 400.078125c-1.058594 0-2.128906-.195313-3.15625-.609375l-42.578125-17.03125c-4.371094-1.746094-6.496094-6.703125-4.75-11.070312 1.746094-4.378907 6.738281-6.492188 11.070313-4.746094l42.574218 17.03125c4.367188 1.746094 6.496094 6.707031 4.746094 11.070312-1.328125 3.332032-4.53125 5.355469-7.90625 5.355469zm0 0"/><path d="m272.5 400.078125c-3.378906 0-6.578125-2.023437-7.910156-5.359375-1.742188-4.367188.386718-9.320312 4.746094-11.066406l42.578124-17.03125c4.332032-1.738282 9.328126.367187 11.070313 4.746094 1.746094 4.367187-.382813 9.324218-4.746094 11.066406l-42.582031 17.035156c-1.027344.414062-2.097656.609375-3.15625.609375zm0 0"/><path d="m315.066406 383.042969c-1.859375 0-3.742187-.605469-5.308594-1.859375-3.671874-2.945313-4.269531-8.300782-1.332031-11.976563l34.058594-42.578125c2.949219-3.652344 8.300781-4.265625 11.980469-1.332031 3.667968 2.945313 4.265625 8.300781 1.328125 11.976563l-34.058594 42.578124c-1.691406 2.097657-4.164063 3.191407-6.667969 3.191407zm0 0"/><path d="m221.414062 374.53125c-2.597656 0-5.144531-1.175781-6.816406-3.410156l-25.546875-34.066406c-2.828125-3.757813-2.066406-9.097657 1.703125-11.917969 3.757813-2.824219 9.097656-2.070313 11.921875 1.707031l25.542969 34.0625c2.828125 3.757812 2.0625 9.097656-1.707031 11.917969-1.53125 1.148437-3.320313 1.707031-5.097657 1.707031zm0 0"/><path d="m374.679688 161.640625c-1.859376 0-3.742188-.609375-5.316407-1.863281-3.664062-2.949219-4.261719-8.296875-1.328125-11.976563l34.0625-42.578125c2.953125-3.648437 8.300782-4.269531 11.972656-1.328125 3.667969 2.941407 4.269532 8.296875 1.332032 11.96875l-34.0625 42.582031c-1.691406 2.097657-4.15625 3.195313-6.660156 3.195313zm0 0"/><path d="m170.320312 161.640625c-2.503906 0-4.972656-1.09375-6.660156-3.195313l-34.0625-42.582031c-2.9375-3.671875-2.335937-9.027343 1.332032-11.96875 3.671874-2.941406 9.027343-2.339843 11.972656 1.328125l34.0625 42.578125c2.933594 3.679688 2.339844 9.027344-1.328125 11.976563-1.574219 1.253906-3.449219 1.863281-5.316407 1.863281zm0 0"/></svg>