<svg height="581pt" viewBox="-44 -18 581 581.33275" width="581pt" xmlns="http://www.w3.org/2000/svg"><path d="m79.273438 411.128906c-.261719 0-.527344-.011718-.792969-.035156l-25.589844-2.378906c-.035156 0-.074219 0-.109375 0-9.070312 0-18.304688-4.375-24.570312-11.976563-6.296876-7.628906-8.824219-17.574219-6.949219-27.292969.058593-.304687.132812-.601562.222656-.90625l38.515625-123.730468c1.390625-4.492188 6.164062-7.003906 10.660156-5.609375 4.488282 1.398437 7.003906 6.175781 5.605469 10.660156l-38.363281 123.246094c-.757813 4.570312.480468 9.210937 3.445312 12.800781 3.050782 3.695312 7.542969 5.8125 12.332032 5.8125l26.375 2.414062c4.683593.4375 8.128906 4.589844 7.695312 9.269532-.414062 4.417968-4.125 7.726562-8.476562 7.726562zm0 0"/><path d="m407.167969 409.949219c-4.347657 0-8.054688-3.3125-8.472657-7.730469-.429687-4.679688 3.011719-8.828125 7.691407-9.269531l12.875-1.195313c5.578125-.035156 10.070312-2.152344 13.121093-5.847656 2.964844-3.589844 4.203126-8.230469 3.445313-12.800781l-39.710937-127.574219c-1.394532-4.488281 1.113281-9.265625 5.609374-10.664062 4.503907-1.386719 9.261719 1.125 10.660157 5.609374l39.859375 128.0625c.089844.304688.164062.601563.222656.90625 1.882812 9.71875-.648438 19.664063-6.945312 27.292969-6.292969 7.636719-15.585938 12.011719-25.472657 12.011719l-12.085937 1.164062c-.261719.023438-.527344.035157-.796875.035157zm0 0"/><path d="m483.820312 545h-476.875c-4.707031 0-8.515624-3.8125-8.515624-8.519531 0-77.09375 54.816406-143.855469 130.347656-158.742188 4.605468-.894531 9.085937 2.097657 10.003906 6.710938.90625 4.613281-2.097656 9.09375-6.714844 10.003906-64.773437 12.765625-112.515625 68.183594-116.359375 133.515625h459.347657c-4.234376-71.007812-60.890626-129.859375-132.472657-135.753906-4.695312-.386719-8.179687-4.496094-7.792969-9.1875.390626-4.6875 4.371094-8.03125 9.183594-7.792969 83.199219 6.855469 148.359375 77.679687 148.359375 161.246094 0 4.707031-3.804687 8.519531-8.511719 8.519531zm0 0"/><path d="m304.992188 545h-136.25c-4.707032 0-8.515626-3.8125-8.515626-8.519531v-111.949219c0-4.707031 3.808594-8.511719 8.515626-8.511719 4.707031 0 8.511718 3.804688 8.511718 8.511719v103.4375h119.222656v-106.441406c0-4.707032 3.808594-8.519532 8.515626-8.519532 4.707031 0 8.511718 3.8125 8.511718 8.519532v114.953125c0 4.707031-3.804687 8.519531-8.511718 8.519531zm0 0"/><path d="m198.0625 412.632812c-4.324219 0-8.027344-3.273437-8.464844-7.667968-.46875-4.679688 2.941406-8.855469 7.625-9.324219l38.792969-3.882813c.5625-.046874 1.128906-.046874 1.695313 0l36.464843 3.652344c4.683594.464844 8.09375 4.640625 7.628907 9.324219-.464844 4.679687-4.589844 8.113281-9.324219 7.625l-35.613281-3.566406-37.949219 3.800781c-.292969.023438-.574219.039062-.855469.039062zm0 0"/><path d="m338.449219 373.070312c-1.625 0-3.261719-.460937-4.71875-1.425781-3.917969-2.613281-4.972657-7.894531-2.363281-11.8125l62.324218-93.488281c1.304688-1.953125.769532-4.597656-1.1875-5.902344-1.964844-1.300781-4.601562-.769531-5.898437 1.183594l-58.652344 87.976562c-2.613281 3.90625-7.882813 4.953126-11.8125 2.355469-3.917969-2.609375-4.96875-7.886719-2.359375-11.804687l58.652344-87.976563c3.160156-4.730469 7.96875-7.953125 13.539062-9.0625 5.597656-1.113281 11.269532.003907 15.980469 3.15625 4.738281 3.15625 7.953125 7.96875 9.070313 13.535157 1.121093 5.582031-.011719 11.253906-3.164063 15.988281l-62.316406 93.488281c-1.640625 2.460938-4.339844 3.789062-7.09375 3.789062zm0 0"/><path d="m133.570312 370.496094c-2.75 0-5.453124-1.332032-7.09375-3.792969l-60.605468-90.910156c-3.148438-4.730469-4.285156-10.402344-3.15625-15.980469 1.109375-5.574219 4.328125-10.378906 9.0625-13.542969 9.414062-6.296875 23.21875-3.542969 29.523437 5.90625l60.472657 90.710938c2.613281 3.917969 1.554687 9.195312-2.363282 11.808593-3.925781 2.59375-9.203125 1.546876-11.804687-2.363281l-60.476563-90.707031c-1.257812-1.898438-3.988281-2.453125-5.894531-1.183594-1.964844 1.304688-2.5 3.949219-1.195313 5.902344l60.613282 90.910156c2.609375 3.917969 1.554687 9.199219-2.363282 11.8125-1.457031.964844-3.09375 1.429688-4.71875 1.429688zm0 0"/><path d="m407.175781 281.015625c-3.300781 0-6.386719-1.929687-7.78125-5.054687l-31.808593-71.585938h-261.4375l-31.808594 71.585938c-1.683594 3.765624-5.789063 5.800781-9.8125 4.8125-4.003906-.980469-6.726563-4.6875-6.472656-8.804688l8.515624-136.019531c-.019531-72.175781 59.785157-135.949219 127.949219-135.949219h84.691407c68.164062 0 127.964843 63.773438 127.964843 136.484375l8.5 135.484375c.257813 4.117188-2.472656 7.824219-6.464843 8.804688-.683594.164062-1.371094.242187-2.035157.242187zm-212.65625-263.984375c-59.089843 0-110.9375 55.820312-110.9375 119.453125l-5.578125 89.28125 14.828125-33.367187c1.375-3.074219 4.414063-5.054688 7.785157-5.054688h272.5c3.367187 0 6.414062 1.980469 7.78125 5.054688l14.820312 33.347656-5.558594-88.730469c-.011718-64.164063-51.859375-119.984375-110.949218-119.984375zm0 0"/><path d="m356.082031 161.796875h-238.433593l-17.03125 34.058594h272.5zm0 0"/><path d="m373.117188 204.375h-272.5c-2.953126 0-5.691407-1.53125-7.246094-4.039062-1.554688-2.511719-1.695313-5.648438-.375-8.285157l17.035156-34.0625c1.449219-2.886719 4.386719-4.707031 7.617188-4.707031h238.433593c3.230469 0 6.175781 1.820312 7.621094 4.707031l17.03125 34.0625c1.320313 2.636719 1.179687 5.769531-.375 8.285157-1.554687 2.507812-4.289063 4.039062-7.242187 4.039062zm-258.71875-17.03125h244.9375l-8.515626-17.027344h-227.910156zm0 0"/><path d="m262.410156 468.355469h-51.089844c-4.707031 0-8.519531-3.804688-8.519531-8.511719s3.8125-8.515625 8.519531-8.515625h51.089844c4.707032 0 8.515625 3.808594 8.515625 8.515625s-3.808593 8.511719-8.515625 8.511719zm0 0"/><path d="m262.410156 493.90625h-51.089844c-4.707031 0-8.519531-3.808594-8.519531-8.515625s3.8125-8.515625 8.519531-8.515625h51.089844c4.707032 0 8.515625 3.808594 8.515625 8.515625s-3.808593 8.515625-8.515625 8.515625zm0 0"/><path d="m304.992188 425.78125c-23.476563 0-42.582032-19.101562-42.582032-42.578125s19.105469-42.578125 42.582032-42.578125c23.472656 0 42.578124 19.101562 42.578124 42.578125s-19.105468 42.578125-42.578124 42.578125zm0-68.125c-14.085938 0-25.546876 11.457031-25.546876 25.546875 0 14.085937 11.460938 25.546875 25.546876 25.546875 14.085937 0 25.542968-11.460938 25.542968-25.546875 0-14.089844-11.457031-25.546875-25.542968-25.546875zm0 0"/><path d="m168.742188 425.78125c-23.476563 0-42.582032-19.101562-42.582032-42.578125s19.105469-42.578125 42.582032-42.578125c23.472656 0 42.578124 19.101562 42.578124 42.578125s-19.105468 42.578125-42.578124 42.578125zm0-68.125c-14.085938 0-25.546876 11.457031-25.546876 25.546875 0 14.085937 11.460938 25.546875 25.546876 25.546875 14.085937 0 25.542968-11.460938 25.542968-25.546875 0-14.089844-11.457031-25.546875-25.542968-25.546875zm0 0"/></svg>