<svg height="581pt" viewBox="-44 -18 581 581.33275" width="581pt" xmlns="http://www.w3.org/2000/svg"><path d="m483.820312 545h-476.875c-4.707031 0-8.515624-3.8125-8.515624-8.519531 0-68.1875 43.117187-129.425781 107.285156-152.375 4.449218-1.601563 9.296875.730469 10.886718 5.144531 1.585938 4.433594-.726562 9.304688-5.152343 10.882812-54.726563 19.585938-92.335938 70.289063-95.742188 127.835938h459.347657c-3.402344-57.535156-41.007813-108.242188-95.726563-127.824219-4.421875-1.582031-6.738281-6.460937-5.148437-10.886719 1.589843-4.433593 6.472656-6.742187 10.886718-5.148437 64.15625 22.960937 107.265625 84.195313 107.265625 152.371094 0 4.707031-3.804687 8.519531-8.511719 8.519531zm0 0"/><path d="m313.503906 545h-136.25c-4.707031 0-8.511718-3.8125-8.511718-8.519531v-102.183594c0-4.707031 3.804687-8.515625 8.511718-8.515625 4.707032 0 8.519532 3.808594 8.519532 8.515625v93.671875h119.21875v-93.671875c0-4.707031 3.804687-8.515625 8.511718-8.515625 4.707032 0 8.519532 3.808594 8.519532 8.515625v102.183594c0 4.707031-3.8125 8.519531-8.519532 8.519531zm0 0"/><path d="m245.378906 451.328125c-16.414062 0-31.082031-9.171875-38.285156-23.929687-2.058594-4.226563-.304688-9.328126 3.917969-11.386719 4.261719-2.074219 9.332031-.308594 11.382812 3.914062 4.328125 8.863281 13.132813 14.371094 22.992188 14.371094 9.871093 0 18.957031-5.777344 23.148437-14.71875 1.996094-4.25 7.035156-6.097656 11.324219-4.09375 4.257813 1.996094 6.085937 7.070313 4.09375 11.328125-6.988281 14.890625-22.132813 24.515625-38.574219 24.515625zm0 0"/><path d="m161.707031 442.816406c-21.605469 0-42.179687-12.308594-53.425781-33.257812l-56.980469-106.082032c-14.335937-26.703124-10.011719-60.316406 10.527344-81.746093l23.441406-24.457031c3.253907-3.382813 8.644531-3.492188 12.039063-.246094 3.398437 3.25 3.515625 8.640625.253906 12.039062l-23.449219 24.457032c-15.238281 15.898437-18.535156 41.9375-7.8125 61.898437l56.980469 106.078125c10.210938 19.03125 30.769531 28.300781 49.984375 22.574219l55.664063-16.621094c10.757812-3.230469 22.128906-3.230469 32.90625 0l55.660156 16.621094c19.203125 5.730469 39.761718-3.542969 49.980468-22.570313l56.984376-106.09375c10.714843-19.953125 7.421874-45.988281-7.820313-61.886718l-21.539063-22.464844c-3.257812-3.394532-3.140624-8.789063.25-12.039063 3.402344-3.25 8.78125-3.148437 12.039063.25l21.539063 22.460938c20.542968 21.429687 24.871093 55.042969 10.527343 81.738281l-56.980469 106.09375c-14.082031 26.230469-42.808593 38.914062-69.855468 30.832031l-55.664063-16.628906c-7.570312-2.257813-15.578125-2.257813-23.144531 0l-55.675781 16.628906c-5.453125 1.625-10.976563 2.421875-16.429688 2.421875zm0 0"/><path d="m193.929688 367.351562c-14.460938 0-28.21875-8.199218-35.71875-22.160156l-35.023438-65.21875c-9.480469-17.652344-6.605469-39.886718 6.992188-54.074218 3.261718-3.386719 8.640624-3.496094 12.039062-.25 3.394531 3.25 3.511719 8.640624.25 12.039062-8.414062 8.777344-10.21875 23.171875-4.28125 34.230469l35.027344 65.207031c5.535156 10.3125 16.574218 15.34375 26.894531 12.289062l34.21875-10.222656c7.21875-2.15625 14.878906-2.15625 22.113281 0l34.210938 10.222656c10.308594 3.0625 21.355468-1.976562 26.890625-12.289062l35.03125-65.214844c5.933593-11.050781 4.132812-25.445312-4.28125-34.222656-3.261719-3.398438-3.144531-8.789062.246093-12.039062 3.402344-3.238282 8.78125-3.136719 12.039063.25 13.601563 14.1875 16.476563 36.421874 6.992187 54.070312l-35.023437 65.222656c-9.402344 17.507813-28.652344 25.960938-46.765625 20.542969l-34.222656-10.222656c-4.042969-1.214844-8.328125-1.214844-12.351563 0l-34.226562 10.222656c-3.664063 1.09375-7.382813 1.617187-11.050781 1.617187zm0 0"/><path d="m83.582031 178.828125v8.515625c0 28.21875 42.832031 51.097656 85.160157 51.097656 21.847656 0 39.265624-6.117187 51.015624-15.90625 7.246094-6.039062 16.1875-9.644531 25.621094-9.644531 9.441406 0 18.375 3.605469 25.625 9.644531 11.753906 9.789063 29.164063 15.90625 51.019532 15.90625 42.324218 0 85.152343-22.878906 85.152343-51.097656v-8.515625zm0 0"/><path d="m322.023438 246.953125c-22.902344 0-42.433594-6.179687-56.464844-17.875-12.0625-10.042969-28.292969-10.042969-40.351563 0-14.039062 11.695313-33.5625 17.875-56.464843 17.875-44.308594 0-93.671876-24.480469-93.671876-59.609375v-8.515625c0-4.707031 3.804688-8.511719 8.511719-8.511719h323.59375c4.707031 0 8.519531 3.804688 8.519531 8.511719v8.515625c0 35.128906-49.367187 59.609375-93.671874 59.609375zm-76.644532-42.578125c11.039063 0 22.074219 4.128906 31.070313 11.617188 10.789062 8.984374 26.96875 13.929687 45.574219 13.929687 39.390624 0 76.640624-20.6875 76.640624-42.578125h-306.5625c0 21.890625 37.246094 42.578125 76.640626 42.578125 18.597656 0 34.785156-4.945313 45.570312-13.929687 9-7.488282 20.03125-11.617188 31.066406-11.617188zm0 0"/><path d="m407.175781 195.855469h-323.59375c-4.707031 0-8.511719-3.804688-8.511719-8.511719v-59.378906c0-70.558594 57.40625-127.964844 127.964844-127.964844h84.6875c70.566406 0 127.972656 57.40625 127.972656 127.964844v59.378906c0 4.707031-3.8125 8.511719-8.519531 8.511719zm-315.074219-17.027344h306.5625v-50.863281c0-61.171875-49.765624-110.933594-110.933593-110.933594h-84.695313c-61.171875 0-110.933594 49.761719-110.933594 110.933594zm0 0"/><path d="m407.175781 161.796875h-323.59375c-4.707031 0-8.511719-3.808594-8.511719-8.515625s3.804688-8.515625 8.511719-8.515625h323.59375c4.707031 0 8.519531 3.808594 8.519531 8.515625s-3.8125 8.515625-8.519531 8.515625zm0 0"/><path d="m356.082031 391.71875c0 9.40625-7.625 17.03125-17.03125 17.03125-9.402343 0-17.027343-7.625-17.027343-17.03125 0-9.410156 7.625-17.027344 17.027343-17.027344 9.40625 0 17.03125 7.617188 17.03125 17.027344zm0 0"/><path d="m109.128906 298.046875h-25.546875c-4.707031 0-8.511719-3.808594-8.511719-8.515625s3.804688-8.515625 8.511719-8.515625h25.546875c4.707032 0 8.519532 3.808594 8.519532 8.515625s-3.8125 8.515625-8.519532 8.515625zm0 0"/><path d="m126.160156 323.59375h-25.542968c-4.707032 0-8.515626-3.808594-8.515626-8.515625s3.808594-8.511719 8.515626-8.511719h25.542968c4.707032 0 8.515625 3.804688 8.515625 8.511719s-3.808593 8.515625-8.515625 8.515625zm0 0"/><path d="m407.175781 298.046875h-25.546875c-4.707031 0-8.511718-3.808594-8.511718-8.515625s3.804687-8.515625 8.511718-8.515625h25.546875c4.707031 0 8.519531 3.808594 8.519531 8.515625s-3.8125 8.515625-8.519531 8.515625zm0 0"/><path d="m390.148438 323.59375h-25.546876c-4.707031 0-8.519531-3.808594-8.519531-8.515625s3.8125-8.511719 8.519531-8.511719h25.546876c4.707031 0 8.515624 3.804688 8.515624 8.511719s-3.808593 8.515625-8.515624 8.515625zm0 0"/><path d="m100.617188 510.9375c-14.085938 0-25.546876-11.457031-25.546876-25.546875 0-14.085937 11.460938-25.546875 25.546876-25.546875 14.085937 0 25.542968 11.460938 25.542968 25.546875 0 14.089844-11.457031 25.546875-25.542968 25.546875zm0-34.0625c-4.703126 0-8.515626 3.816406-8.515626 8.515625s3.8125 8.515625 8.515626 8.515625c4.699218 0 8.511718-3.816406 8.511718-8.515625s-3.8125-8.515625-8.511718-8.515625zm0 0"/></svg>