<svg height="581pt" viewBox="-44 -18 581 581.33275" width="581pt" xmlns="http://www.w3.org/2000/svg"><path d="m483.820312 545h-476.875c-4.707031 0-8.515624-3.8125-8.515624-8.519531 0-66.632813 41.804687-127.378907 104.023437-151.171875 4.398437-1.671875 9.3125.503906 10.996094 4.90625 1.679687 4.390625-.519531 9.3125-4.910157 10.992187-53.011718 20.273438-89.460937 70.535157-92.824218 126.761719h459.339844c-3.402344-57.535156-41.007813-108.242188-95.726563-127.824219-4.421875-1.582031-6.738281-6.460937-5.148437-10.886719 1.589843-4.433593 6.480468-6.742187 10.886718-5.148437 64.15625 22.960937 107.265625 84.195313 107.265625 152.371094 0 4.707031-3.804687 8.519531-8.511719 8.519531zm0 0"/><path d="m313.503906 545h-136.25c-4.707031 0-8.511718-3.8125-8.511718-8.519531v-102.183594c0-4.707031 3.804687-8.515625 8.511718-8.515625 4.707032 0 8.519532 3.808594 8.519532 8.515625v93.671875h119.21875v-93.671875c0-4.707031 3.804687-8.515625 8.511718-8.515625 4.707032 0 8.519532 3.808594 8.519532 8.515625v102.183594c0 4.707031-3.8125 8.519531-8.519532 8.519531zm0 0"/><path d="m161.707031 442.816406c-21.605469 0-42.179687-12.308594-53.425781-33.257812l-56.980469-106.082032c-14.335937-26.703124-10.011719-60.316406 10.527344-81.746093l13.242187-13.8125v-79.953125c0-70.558594 57.40625-127.964844 127.964844-127.964844h84.6875c70.566406 0 127.972656 57.40625 127.972656 127.964844v79.953125l13.238282 13.8125c20.539062 21.429687 24.867187 55.042969 10.523437 81.738281l-56.980469 106.09375c-14.074218 26.230469-42.785156 38.921875-69.855468 30.832031l-55.664063-16.628906c-7.566406-2.257813-15.574219-2.257813-23.140625 0l-55.675781 16.628906c-5.457031 1.625-10.980469 2.421875-16.433594 2.421875zm41.328125-425.785156c-61.171875 0-110.933594 49.761719-110.933594 110.933594v83.378906c0 2.191406-.847656 4.304688-2.371093 5.894531l-15.609375 16.285157c-15.242188 15.898437-18.535156 41.929687-7.816406 61.890624l56.980468 106.085938c10.214844 19.03125 30.785156 28.292969 49.980469 22.574219l55.667969-16.625c10.761718-3.226563 22.128906-3.226563 32.90625 0l55.660156 16.625c19.203125 5.730469 39.761719-3.542969 49.980469-22.570313l56.980469-106.097656c10.71875-19.957031 7.425781-45.988281-7.816407-61.886719l-15.605469-16.28125c-1.527343-1.589843-2.375-3.703125-2.375-5.894531v-83.378906c0-61.171875-49.765624-110.933594-110.933593-110.933594zm0 0"/><path d="m324.023438 303.046875c-11.542969 0-23.109376-3.46875-32.953126-10.320313l-22.933593-15.976562c-13.621094-9.488281-31.90625-9.464844-45.515625 0l-22.9375 15.976562c-18 12.535157-41.8125 13.753907-60.679688 3.085938-4.09375-2.320312-5.53125-7.511719-3.210937-11.613281 2.316406-4.089844 7.5-5.519531 11.605469-3.210938 13.175781 7.46875 29.882812 6.585938 42.554687-2.242187l22.9375-15.96875c19.417969-13.53125 45.539063-13.539063 64.976563 0l22.929687 15.972656c12.675781 8.816406 29.382813 9.699219 42.574219 2.234375 4.105468-2.304687 9.277344-.875 11.605468 3.210937 2.320313 4.085938.882813 9.285157-3.210937 11.605469-8.558594 4.847657-18.136719 7.246094-27.742187 7.246094zm0 0"/><path d="m283.703125 391.71875c0-28.21875-17.15625-68.125-38.324219-68.125-21.160156 0-38.316406 39.90625-38.316406 68.125s17.15625 34.0625 38.316406 34.0625c21.167969 0 38.324219-5.84375 38.324219-34.0625zm0 0"/><path d="m245.378906 434.296875c-11.582031 0-46.835937 0-46.835937-42.578125 0-30.511719 18.679687-76.640625 46.835937-76.640625 28.160156 0 46.835938 46.128906 46.835938 76.640625 0 42.578125-35.253906 42.578125-46.835938 42.578125zm0-102.191406c-13.371094 0-29.800781 32.867187-29.800781 59.613281 0 18.859375 7.796875 25.546875 29.800781 25.546875 22.007813 0 29.808594-6.6875 29.808594-25.546875 0-26.746094-16.4375-59.613281-29.808594-59.613281zm0 0"/><path d="m407.175781 161.796875h-323.59375c-4.707031 0-8.511719-3.808594-8.511719-8.515625v-34.0625c0-4.707031 3.804688-8.515625 8.511719-8.515625h323.59375c4.707031 0 8.519531 3.808594 8.519531 8.515625v34.0625c0 4.707031-3.8125 8.515625-8.519531 8.515625zm-315.074219-17.03125h306.5625v-17.03125h-306.5625zm0 0"/><path d="m356.082031 387.460938c0 11.757812-9.53125 21.289062-21.289062 21.289062-11.757813 0-21.289063-9.53125-21.289063-21.289062 0-11.757813 9.53125-21.289063 21.289063-21.289063 11.757812 0 21.289062 9.53125 21.289062 21.289063zm0 0"/><path d="m177.253906 387.460938c0 11.757812-9.53125 21.289062-21.289062 21.289062-11.757813 0-21.289063-9.53125-21.289063-21.289062 0-11.757813 9.53125-21.289063 21.289063-21.289063 11.757812 0 21.289062 9.53125 21.289062 21.289063zm0 0"/><path d="m100.617188 510.9375c-14.085938 0-25.546876-11.457031-25.546876-25.546875 0-14.085937 11.460938-25.546875 25.546876-25.546875 14.085937 0 25.542968 11.460938 25.542968 25.546875 0 14.089844-11.457031 25.546875-25.542968 25.546875zm0-34.0625c-4.703126 0-8.515626 3.816406-8.515626 8.515625s3.8125 8.515625 8.515626 8.515625c4.699218 0 8.511718-3.816406 8.511718-8.515625s-3.8125-8.515625-8.511718-8.515625zm0 0"/><path d="m126.550781 170.316406c-7.0625 11.855469-8.902343 34.085938-8.902343 44.492188 0 22.769531 35.519531 12.414062 62.265624 12.414062 26.753907 0 48.4375-18.457031 48.4375-41.226562 0-5.5625-1.3125-10.847656-3.652343-15.6875h-98.148438zm0 0"/><path d="m364.214844 170.316406c7.0625 11.855469 8.902344 34.085938 8.902344 44.492188 0 22.769531-35.527344 12.414062-62.273438 12.414062s-48.433594-18.457031-48.433594-41.226562c0-5.554688 1.3125-10.847656 3.648438-15.679688zm0 0"/></svg>