<svg height="581pt" viewBox="-18 -18 581.33275 581" width="581pt" xmlns="http://www.w3.org/2000/svg"><path d="m155.3125 415.457031c-4.027344 0-7.59375-2.851562-8.367188-6.941406-.863281-4.625 2.179688-9.074219 6.800782-9.941406l22.304687-4.179688c4.644531-.882812 9.070313 2.171875 9.9375 6.792969.871094 4.621094-2.175781 9.070312-6.796875 9.9375l-22.300781 4.1875c-.53125.097656-1.0625.144531-1.578125.144531zm0 0"/><path d="m536.480469 545.171875h-527.964844c-4.707031 0-8.515625-3.808594-8.515625-8.515625v-26.035156c0-48.214844 34.402344-89.660156 81.789062-98.554688 4.621094-.871094 9.078126 2.171875 9.9375 6.792969.867188 4.625-2.175781 9.074219-6.796874 9.941406-39.339844 7.378907-67.898438 41.796875-67.898438 81.816407v17.527343h510.9375v-18.453125c0-39.539062-28.144531-73.867187-66.914062-81.625-4.609376-.925781-7.601563-5.40625-6.683594-10.019531.925781-4.617187 5.390625-7.648437 10.023437-6.683594 46.707031 9.351563 80.605469 50.695313 80.605469 98.328125v26.964844c0 4.707031-3.8125 8.515625-8.519531 8.515625zm0 0"/><path d="m388.207031 413.328125c-.554687 0-1.117187-.046875-1.683593-.164063l-20.042969-4.011718c-4.609375-.921875-7.597657-5.402344-6.675781-10.019532.914062-4.613281 5.382812-7.625 10.015624-6.679687l20.046876 4.011719c4.609374.925781 7.601562 5.402344 6.679687 10.023437-.808594 4.046875-4.363281 6.839844-8.339844 6.839844zm0 0"/><path d="m398.25 363.464844-1.726562 34.484375"/><path d="m396.535156 406.472656c-.148437 0-.289062 0-.433594-.011718-4.699218-.242188-8.3125-4.234376-8.082031-8.929688l1.730469-34.484375c.230469-4.703125 4.375-8.257813 8.929688-8.082031 4.695312.238281 8.3125 4.226562 8.078124 8.925781l-1.730468 34.488281c-.222656 4.554688-3.984375 8.09375-8.492188 8.09375zm0 0"/><path d="m148.476562 397.949219-1.84375-36.847657"/><path d="m148.464844 406.472656c-4.507813 0-8.269532-3.539062-8.492188-8.09375l-1.84375-36.851562c-.238281-4.699219 3.382813-8.6875 8.082032-8.925782 4.640624-.199218 8.695312 3.378907 8.925781 8.082032l1.839843 36.847656c.234376 4.695312-3.378906 8.6875-8.078124 8.929688-.144532.011718-.285157.011718-.433594.011718zm0 0"/><path d="m221.40625 502.597656h-76.640625c-3.40625 0-6.488281-2.035156-7.824219-5.167968l-23.335937-54.445313h-45.480469c-3.441406 0-6.550781-2.070313-7.863281-5.253906-1.320313-3.1875-.589844-6.847657 1.839843-9.28125l59.613282-59.609375c1.714844-1.722656 4.074218-2.609375 6.488281-2.480469 2.421875.132813 4.664063 1.292969 6.179687 3.179687l68.125 85.152344c.058594.078125.113282.140625.160157.21875l25.550781 34.0625c1.9375 2.578125 2.25 6.03125.808594 8.917969-1.449219 2.886719-4.390625 4.707031-7.621094 4.707031zm-71.027344-17.035156h53.996094l-15.246094-20.332031-62.101562-77.621094-38.34375 38.34375h30.535156c3.40625 0 6.488281 2.027344 7.828125 5.164063zm0 0"/><path d="m400.230469 502.597656h-76.636719c-3.230469 0-6.171875-1.824218-7.613281-4.707031-1.449219-2.890625-1.132813-6.339844.800781-8.917969l25.550781-34.066406c.046875-.074219.101563-.136719.160157-.214844l68.125-85.152344c1.515624-1.890624 3.761718-3.046874 6.175781-3.179687 2.4375-.148437 4.78125.757813 6.492187 2.476563l59.613282 59.613281c2.433593 2.433593 3.160156 6.09375 1.839843 9.277343-1.316406 3.1875-4.417969 5.257813-7.863281 5.257813h-45.480469l-23.332031 54.445313c-1.339844 3.132812-4.417969 5.167968-7.832031 5.167968zm-59.605469-17.035156h53.992188l23.335937-54.445312c1.339844-3.136719 4.421875-5.164063 7.828125-5.164063h30.535156l-38.34375-38.34375-62.101562 77.621094zm0 0"/><path d="m355.15625 545.171875h-165.308594c-2.171875 0-4.265625-.832031-5.84375-2.328125l-45.082031-42.578125c-2.535156-2.394531-3.359375-6.09375-2.066406-9.328125 1.285156-3.246094 4.421875-5.375 7.910156-5.375h255.464844c3.496093 0 6.628906 2.128906 7.914062 5.375 1.292969 3.234375.472657 6.933594-2.066406 9.328125l-45.082031 42.578125c-1.578125 1.496094-3.667969 2.328125-5.839844 2.328125zm-161.925781-17.027344h158.539062l27.046875-25.546875h-212.632812zm0 0"/><path d="m413.679688 232.765625c-.738282 0-1.496094-.09375-2.246094-.300781-4.539063-1.238282-7.214844-5.921875-5.972656-10.460938l28.074218-102.828125c3.109375-11.390625-3.785156-23.289062-16.039062-27.679687l-203.351563-73.304688-90.019531 62.703125c-.359375.253907-.738281.476563-1.132812.667969-10.355469 5.050781-15.726563 15.339844-13.363282 25.609375l25.898438 112.652344c1.054687 4.582031-1.804688 9.144531-6.390625 10.203125-4.597657 1.074218-9.152344-1.808594-10.210938-6.398438l-25.898437-112.644531c-4.058594-17.65625 4.921875-35.816406 21.875-44.414063l93.117187-64.867187c2.277344-1.578125 5.164063-1.964844 7.761719-1.023437l207.480469 74.796874c20.691406 7.414063 32.183593 28.140626 26.707031 48.191407l-28.078125 102.828125c-1.03125 3.78125-4.460937 6.269531-8.210937 6.269531zm0 0"/><path d="m417.265625 281.1875c-4.699219 0-8.515625-3.808594-8.515625-8.515625s3.816406-8.515625 8.515625-8.515625c9.390625 0 17.03125-7.640625 17.03125-17.03125 0-9.386719-7.640625-17.027344-17.03125-17.027344-4.699219 0-8.515625-3.8125-8.515625-8.519531s3.816406-8.515625 8.515625-8.515625c18.78125 0 34.0625 15.28125 34.0625 34.0625 0 18.785156-15.28125 34.0625-34.0625 34.0625zm0 0"/><path d="m127.734375 281.1875c-18.78125 0-34.0625-15.277344-34.0625-34.0625 0-18.78125 15.28125-34.0625 34.0625-34.0625 1.851563 0 3.671875.148438 5.445313.433594 4.644531.753906 7.792968 5.140625 7.035156 9.777344-.753906 4.644531-5.140625 7.800781-9.773438 7.035156-.882812-.148438-1.789062-.210938-2.707031-.210938-9.390625 0-17.03125 7.640625-17.03125 17.027344 0 9.390625 7.640625 17.03125 17.03125 17.03125 4.703125 0 8.515625 3.808594 8.515625 8.515625s-3.8125 8.515625-8.515625 8.515625zm0 0"/><path d="m327.429688 435.53125c-1.816407 0-3.648438-.089844-5.492188-.289062l-51.347656-4.054688-47.523438 3.886719c-17.390625 1.972656-34.210937-5.167969-41.140625-17.429688l-43.878906-54.929687c-14.445313-14.179688-20.914063-31.667969-18.238281-49.34375l8.46875-194.359375c.117187-2.632813 1.453125-5.082031 3.621094-6.589844 2.164062-1.53125 4.90625-1.964844 7.4375-1.160156l46.078124 14.457031c4.488282 1.402344 6.984376 6.183594 5.574219 10.667969-1.402343 4.492187-6.195312 6.976562-10.667969 5.578125l-35.507812-11.136719-8.011719 183.753906c-.011719.324219-.042969.660157-.097656.980469-1.992187 12.367188 2.835937 24.898438 13.589844 35.304688.257812.246093.5.519531.734375.808593l44.675781 55.921875c.339844.433594.640625.890625.898437 1.378906 2.886719 5.546876 12.972657 10.519532 24.8125 9.140626l48.46875-3.964844c.464844-.035156.910157-.035156 1.363282 0l52.265625 4.132812c11.992187 1.308594 21.960937-3.660156 24.816406-9.140625.253906-.488281.554687-.945312.898437-1.378906l44.78125-56.101563c.230469-.28125.472657-.550781.738282-.808593 10.738281-10.394531 15.558594-22.921875 13.566406-35.273438-.054688-.324219-.089844-.65625-.105469-.984375l-8.058593-184.820312-153.046876 32.007812c-1.417968.3125-2.898437.226563-4.292968-.207031l-27.746094-8.710937c-4.488281-1.402344-6.988281-6.1875-5.578125-10.679688s6.199219-6.980469 10.671875-5.570312l25.636719 8.042968 160.6875-33.605468c2.441406-.523438 4.988281.085937 6.964843 1.605468 1.976563 1.539063 3.171876 3.859375 3.285157 6.351563l8.46875 194.363281c2.679687 17.683594-3.769531 35.152344-18.207031 49.332031l-43.992188 55.097657c-6.148438 10.867187-20.179688 17.726562-35.570312 17.726562zm0 0"/><path d="m315.078125 332.28125h-85.15625c-4.703125 0-8.515625-3.804688-8.515625-8.511719s3.8125-8.519531 8.515625-8.519531h85.15625c4.703125 0 8.515625 3.8125 8.515625 8.519531s-3.8125 8.511719-8.515625 8.511719zm0 0"/><path d="m218.203125 207.675781c-21.757813 0-41.683594-14.59375-47.484375-36.597656-6.890625-26.179687 8.804688-53.09375 34.980469-59.976563 4.558593-1.195312 9.207031 1.523438 10.402343 6.066407 1.199219 4.546875-1.519531 9.203125-6.070312 10.402343-8.257812 2.179688-15.195312 7.460938-19.515625 14.867188-4.320313 7.402344-5.5 16.03125-3.320313 24.300781 2.171876 8.261719 7.449219 15.199219 14.855469 19.511719 7.410157 4.328125 16.046875 5.503906 24.308594 3.328125 1.292969-.339844 2.378906-1.164063 3.050781-2.316406.679688-1.160157.859375-2.507813.515625-3.800781-.339843-1.296876-1.164062-2.378907-2.316406-3.054688-1.160156-.675781-2.515625-.847656-3.796875-.511719-11.753906 3.097657-23.835938-3.953125-26.933594-15.710937-1.496094-5.691406-.683594-11.621094 2.28125-16.707032 2.972656-5.09375 7.738282-8.71875 13.425782-10.214843l32.699218-8.605469c4.546875-1.207031 9.207032 1.519531 10.402344 6.0625 1.195312 4.546875-1.523438 9.203125-6.070312 10.402344l-32.699219 8.605468c-1.289063.339844-2.367188 1.164063-3.042969 2.324219-.675781 1.164063-.859375 2.507813-.519531 3.800781.703125 2.664063 3.453125 4.238282 6.121093 3.578126 5.691407-1.515626 11.625-.695313 16.710938 2.265624 5.089844 2.972657 8.714844 7.738282 10.214844 13.421876 1.496094 5.695312.6875 11.636718-2.277344 16.722656-2.972656 5.089844-7.738281 8.71875-13.433594 10.203125-4.171875 1.097656-8.359375 1.632812-12.488281 1.632812zm0 0"/><path d="m340.625 242.867188c0 7.054687-5.722656 12.777343-12.773438 12.777343-7.054687 0-12.773437-5.722656-12.773437-12.777343 0-7.054688 5.71875-12.769532 12.773437-12.769532 7.050782 0 12.773438 5.714844 12.773438 12.769532zm0 0"/><path d="m229.921875 242.867188c0 7.054687-5.71875 12.777343-12.777344 12.777343-7.050781 0-12.769531-5.722656-12.769531-12.777343 0-7.054688 5.71875-12.769532 12.769531-12.769532 7.058594 0 12.777344 5.714844 12.777344 12.769532zm0 0"/></svg>