<svg height="573pt" viewBox="-82 -18 573 573.33081" width="573pt" xmlns="http://www.w3.org/2000/svg"><path d="m362.773438 366.867188c-4.710938 0-8.527344-3.820313-8.527344-8.535157v-187.695312c0-84.675781-68.894532-153.574219-153.574219-153.574219-84.675781 0-153.570313 68.898438-153.570313 153.574219v120.523437c0 32.339844 26.304688 58.644532 58.636719 58.644532h18.152344c4.710937 0 8.527344 3.8125 8.527344 8.527343 0 4.714844-3.816407 8.535157-8.527344 8.535157h-18.152344c-41.742187 0-75.699219-33.960938-75.699219-75.707032v-120.523437c0-94.09375 76.546876-170.636719 170.632813-170.636719 94.089844 0 170.636719 76.542969 170.636719 170.636719v187.695312c0 4.714844-3.824219 8.535157-8.535156 8.535157zm0 0"/><path d="m330.582031 247.359375c-4.496093 0-8.257812-3.511719-8.511719-8.054687-.257812-4.703126 3.339844-8.730469 8.042969-8.984376 13.535157-.761718 24.132813-11.988281 24.132813-25.558593 0-14.113281-11.480469-25.597657-25.59375-25.597657-4.714844 0-8.535156-3.8125-8.535156-8.527343 0-4.714844 3.820312-8.53125 8.535156-8.53125 23.515625 0 42.65625 19.136719 42.65625 42.65625 0 22.617187-17.675782 41.324219-40.242188 42.585937-.164062.007813-.320312.011719-.484375.011719zm0 0"/><path d="m69.246094 247.242188c-.289063 0-.578125-.011719-.863282-.039063-21.859374-2.199219-38.34375-20.449219-38.34375-42.441406 0-23.519531 19.136719-42.65625 42.65625-42.65625 4.710938 0 8.535157 3.816406 8.535157 8.53125 0 4.714843-3.824219 8.527343-8.535157 8.527343-14.113281 0-25.59375 11.484376-25.59375 25.597657 0 13.199219 9.878907 24.144531 22.988282 25.464843 4.683594.472657 8.105468 4.65625 7.636718 9.347657-.449218 4.390625-4.15625 7.667969-8.480468 7.667969zm0 0"/><path d="m396.90625 537.496094h-392.464844c-4.710937 0-8.53125-3.8125-8.53125-8.527344v-55.554688c0-36.042968 29.601563-66.152343 70.390625-71.589843 4.640625-.554688 8.964844 2.660156 9.585938 7.332031.628906 4.667969-2.65625 8.960938-7.328125 9.585938-31.691406 4.222656-55.585938 27.722656-55.585938 54.671874v47.019532h375.398438v-54.339844c0-16.386719-9.886719-31.5-26.445313-40.417969-4.144531-2.238281-5.699219-7.414062-3.464843-11.5625 2.238281-4.140625 7.410156-5.6875 11.554687-3.46875 22.175781 11.953125 35.417969 32.679688 35.417969 55.449219v62.875c0 4.714844-3.816406 8.527344-8.527344 8.527344zm0 0"/><path d="m244.828125 537.496094c-1.421875 0-2.867187-.355469-4.1875-1.097656-4.105469-2.3125-5.550781-7.523438-3.234375-11.628907l16.902344-29.929687h-107.273438l16.898438 29.929687c2.320312 4.105469.875 9.316407-3.230469 11.628907-4.097656 2.300781-9.308594.863281-11.625-3.230469l-24.085937-42.660157c-1.492188-2.640624-1.472657-5.882812.054687-8.496093 1.53125-2.625 4.339844-4.234375 7.371094-4.234375h136.507812c3.03125 0 5.839844 1.609375 7.367188 4.234375 1.53125 2.613281 1.550781 5.855469.058593 8.496093l-24.09375 42.660157c-1.5625 2.777343-4.453124 4.328125-7.429687 4.328125zm0 0"/><path d="m166.546875 494.839844h-34.128906c-4.0625 0-7.566407-2.875-8.363281-6.855469l-7.773438-38.855469-56.351562-32.199218c-3.234376-1.851563-4.894532-5.582032-4.105469-9.222657.792969-3.640625 3.859375-6.339843 7.566406-6.683593l93.851563-8.53125c4.671874-.484376 8.792968 2.980468 9.261718 7.648437l8.53125 85.316406c.234375 2.402344-.546875 4.792969-2.167968 6.574219-1.613282 1.792969-3.910157 2.808594-6.320313 2.808594zm-27.132813-17.0625h17.707032l-6.757813-67.523438-58.429687 5.308594 36.183594 20.679688c2.140624 1.226562 3.652343 3.320312 4.132812 5.734374zm0 0"/><path d="m268.925781 494.839844h-34.125c-2.410156 0-4.707031-1.015625-6.328125-2.808594-1.621094-1.78125-2.402344-4.171875-2.167968-6.570312l8.535156-85.316407c.46875-4.667969 4.585937-8.148437 9.261718-7.648437l37.394532 3.398437c4.691406.421875 8.148437 4.574219 7.722656 9.273438-.425781 4.691406-4.59375 8.160156-9.265625 7.722656l-28.972656-2.628906-6.753907 67.515625h17.707032l7.15625-35.800782c.488281-2.414062 1.992187-4.507812 4.136718-5.734374l18.582032-10.613282c4.105468-2.34375 9.308594-.917968 11.636718 3.171875 2.339844 4.09375.917969 9.304688-3.171874 11.640625l-15.214844 8.6875-7.765625 38.851563c-.796875 3.984375-4.300781 6.859375-8.367188 6.859375zm0 0"/><path d="m200.671875 452.179688c-23.515625 0-42.660156-19.136719-42.660156-42.65625v-30.203126c0-4.71875 3.824219-8.53125 8.535156-8.53125s8.527344 3.8125 8.527344 8.53125v30.203126c0 14.113281 11.484375 25.597656 25.597656 25.597656s25.59375-11.484375 25.59375-25.597656v-30.210938c0-4.714844 3.824219-8.53125 8.535156-8.53125 4.710938 0 8.527344 3.816406 8.527344 8.53125v30.210938c0 23.519531-19.136719 42.65625-42.65625 42.65625zm0 0"/><path d="m362.773438 469.242188c-51.746094 0-93.847657-42.09375-93.847657-93.84375v-12.917969c0-4.714844 3.820313-8.53125 8.53125-8.53125 4.710938 0 8.535157 3.816406 8.535157 8.53125v12.917969c0 39.457031 29.910156 72.050781 68.253906 76.308593v-110.4375c0-4.714843 3.816406-8.535156 8.527344-8.535156 4.710937 0 8.535156 3.820313 8.535156 8.535156v119.445313c0 4.714844-3.824219 8.527344-8.535156 8.527344zm0 0"/><path d="m200.671875 392.460938c-75.269531 0-136.507813-61.238282-136.507813-136.507813v-145.042969c0-4.714844 3.820313-8.527344 8.53125-8.527344 4.710938 0 8.535157 3.8125 8.535157 8.527344v145.042969c0 65.863281 53.578125 119.445313 119.441406 119.445313 65.867187 0 119.445313-53.582032 119.445313-119.445313v-84.308594c0-28.785156-23.414063-52.199219-52.191407-52.199219h-65.128906c-4.714844 0-8.53125-3.816406-8.53125-8.535156 0-4.714844 3.816406-8.527344 8.53125-8.527344h65.128906c38.183594 0 69.253907 31.070313 69.253907 69.261719v84.308594c0 75.269531-61.238282 136.507813-136.507813 136.507813zm0 0"/><path d="m140.949219 191.964844c0 7.066406-5.730469 12.796875-12.796875 12.796875s-12.796875-5.730469-12.796875-12.796875 5.730469-12.800782 12.796875-12.800782 12.796875 5.734376 12.796875 12.800782zm0 0"/><path d="m285.992188 191.964844c0 7.066406-5.730469 12.796875-12.800782 12.796875-7.070312 0-12.792968-5.730469-12.792968-12.796875s5.722656-12.800782 12.792968-12.800782c7.070313 0 12.800782 5.734376 12.800782 12.800782zm0 0"/><path d="m209.203125 281.550781h-17.058594c-9.429687 0-17.070312-7.640625-17.070312-17.070312 0-9.421875 7.640625-17.0625 17.070312-17.0625h17.058594c9.425781 0 17.0625 7.640625 17.0625 17.0625 0 9.429687-7.636719 17.070312-17.0625 17.070312zm0 0"/><path d="m234.800781 273.015625h-68.253906c-4.710937 0-8.535156-3.816406-8.535156-8.535156 0-4.714844 3.824219-8.527344 8.535156-8.527344h68.253906c4.710938 0 8.527344 3.8125 8.527344 8.527344 0 4.71875-3.816406 8.535156-8.527344 8.535156zm0 0"/><path d="m136.683594 153.570312c-40.664063 0-72.519532-18.738281-72.519532-42.660156 0-8.410156 3.886719-16.453125 11.238282-23.261718 3.457031-3.214844 8.84375-3.007813 12.058594.460937 3.203124 3.457031 2.992187 8.855469-.464844 12.058594-3.828125 3.546875-5.765625 7.160156-5.765625 10.742187 0 12.109375 22.773437 25.597656 55.453125 25.597656 32.679687 0 55.460937-13.488281 55.460937-25.597656 0-4.480468-3.152343-8.320312-5.785156-10.761718-3.464844-3.195313-3.679687-8.589844-.484375-12.054688 3.195312-3.453125 8.585938-3.675781 12.050781-.476562 7.378907 6.808593 11.277344 14.863281 11.277344 23.292968 0 23.921875-31.851563 42.660156-72.519531 42.660156zm0 0"/><path d="m81.230469 537.496094c-4.714844 0-8.535157-3.8125-8.535157-8.527344v-34.128906c0-4.714844 3.820313-8.527344 8.535157-8.527344 4.710937 0 8.527343 3.8125 8.527343 8.527344v34.128906c0 4.714844-3.816406 8.527344-8.527343 8.527344zm0 0"/><path d="m328.652344 537.496094c-4.714844 0-8.535156-3.8125-8.535156-8.527344v-34.128906c0-4.714844 3.820312-8.527344 8.535156-8.527344 4.710937 0 8.527344 3.8125 8.527344 8.527344v34.128906c0 4.714844-3.816407 8.527344-8.527344 8.527344zm0 0"/></svg>