<svg height="581pt" viewBox="-18 -22 581.33275 581" width="581pt" xmlns="http://www.w3.org/2000/svg"><path d="m153.644531 406.929688c-4.015625 0-7.589843-2.855469-8.355469-6.945313-.871093-4.621094 2.171876-9.070313 6.792969-9.9375l23.417969-4.390625c4.703125-.863281 9.082031 2.175781 9.941406 6.796875.871094 4.617187-2.175781 9.074219-6.792968 9.933594l-23.417969 4.390625c-.539063.097656-1.070313.152344-1.585938.152344zm0 0"/><path d="m536.480469 536.328125h-527.964844c-4.707031 0-8.515625-3.808594-8.515625-8.515625v-26.035156c0-48.222656 34.394531-89.667969 81.789062-98.554688 4.695313-.847656 9.082032 2.175782 9.9375 6.792969.875 4.621094-2.171874 9.070313-6.796874 9.933594-39.339844 7.386719-67.898438 41.796875-67.898438 81.828125v17.515625h510.9375v-18.453125c0-39.53125-28.144531-73.859375-66.921875-81.621094-4.601563-.921875-7.601563-5.402344-6.675781-10.019531.914062-4.617188 5.414062-7.625 10.019531-6.679688 46.703125 9.351563 80.609375 50.695313 80.609375 98.320313v26.972656c0 4.707031-3.8125 8.515625-8.519531 8.515625zm0 0"/><path d="m389.449219 404.730469c-.554688 0-1.109375-.046875-1.679688-.164063l-20.765625-4.15625c-4.613281-.925781-7.601562-5.414062-6.679687-10.019531.925781-4.617187 5.410156-7.625 10.023437-6.679687l20.761719 4.15625c4.621094.925781 7.601563 5.414062 6.679687 10.023437-.808593 4.050781-4.363281 6.839844-8.339843 6.839844zm0 0"/><path d="m148.566406 399.570312c-4.503906 0-8.265625-3.535156-8.5-8.09375l-1.828125-36.582031c-.234375-4.699219 3.386719-8.6875 8.082031-8.933593 4.640626-.269532 8.6875 3.378906 8.933594 8.085937l1.828125 36.582031c.234375 4.699219-3.386719 8.691406-8.085937 8.933594-.140625.007812-.285156.007812-.429688.007812zm0 0"/><path d="m313.363281 493.746094h-73.648437c-4.707032 0-8.511719-3.804688-8.511719-8.511719s3.804687-8.519531 8.511719-8.519531h73.648437c4.707031 0 8.515625 3.8125 8.515625 8.519531s-3.808594 8.511719-8.515625 8.511719zm0 0"/><path d="m396.4375 399.570312c-.140625 0-.292969 0-.433594-.007812-4.699218-.242188-8.320312-4.234375-8.085937-8.933594l1.753906-35.082031c.238281-4.703125 4.144531-8.457031 8.933594-8.082031 4.695312.238281 8.3125 4.226562 8.082031 8.929687l-1.753906 35.082031c-.234375 4.558594-3.988282 8.09375-8.496094 8.09375zm0 0"/><path d="m150.640625 493.746094h-5.875c-3.410156 0-6.488281-2.027344-7.824219-5.164063l-23.335937-54.445312h-45.480469c-3.441406 0-6.554688-2.070313-7.863281-5.253907-1.328125-3.183593-.589844-6.84375 1.839843-9.28125l59.613282-59.609374c1.707031-1.722657 4.09375-2.613282 6.496094-2.476563 2.410156.132813 4.664062 1.285156 6.175781 3.175781l68.125 85.15625 12.933593 17.25c2.828126 3.757813 2.0625 9.097656-1.707031 11.917969s-9.09375 2.0625-11.917969-1.707031l-12.773437-17.035156-62.019531-77.507813-38.34375 38.34375h30.535156c3.410156 0 6.488281 2.027344 7.828125 5.164063l23.59375 54.441406c4.707031 0 8.511719 3.8125 8.511719 8.519531s-3.804688 8.511719-8.511719 8.511719zm0 0"/><path d="m134.097656 215.183594c-.5625 0-1.117187-.046875-1.683594-.164063-7.382812-1.480469-13.460937-6.535156-16.273437-13.535156l-14.5-36.269531c-.800781-1.988282-2.695313-3.273438-4.835937-3.273438-10.953126 0-20.273438-8.03125-21.96875-18.78125l-31.519532-113.3125c-2.308594-8.308594 1.023438-17.003906 8.308594-21.648437 7.269531-4.628907 16.582031-3.972657 23.125 1.640625l45.199219 38.742187h46.710937c4.707032 0 8.511719 3.8125 8.511719 8.519531 0 4.707032-3.804687 8.511719-8.511719 8.511719h-49.863281c-2.027344 0-4-.722656-5.539063-2.050781l-47.582031-40.789062c-.914062-.785157-1.894531-.847657-2.902343-.207032-1.015626.644532-1.367188 1.554688-1.039063 2.714844l31.65625 113.847656c.113281.398438.195313.808594.246094 1.210938.320312 2.601562 2.550781 4.566406 5.167969 4.566406 9.140624 0 17.25 5.492188 20.652343 13.980469l14.5 36.265625c.65625 1.636718 2.082031 2.816406 3.800781 3.167968 4.613282.921876 7.601563 5.414063 6.679688 10.019532-.808594 4.054687-4.367188 6.84375-8.339844 6.84375zm0 0"/><path d="m410.835938 215.195312c-3.992188 0-7.558594-2.820312-8.347657-6.886718-.902343-4.613282 2.109375-9.089844 6.722657-9.988282 1.742187-.339843 3.167968-1.53125 3.835937-3.175781l14.496094-36.25c3.402343-8.496093 11.511719-13.984375 20.652343-13.984375 2.617188 0 4.84375-1.964844 5.167969-4.566406.050781-.40625.132813-.816406.246094-1.210938l31.65625-113.839843c.320313-1.167969-.023437-2.082031-1.039063-2.71875-1.015624-.648438-1.996093-.582031-2.902343.207031l-47.585938 40.78125c-1.535156 1.328125-3.511719 2.050781-5.535156 2.050781h-48.917969c-4.707031 0-8.511718-3.804687-8.511718-8.511719 0-4.707031 3.804687-8.519531 8.511718-8.519531h45.761719l45.199219-38.730469c6.550781-5.625 15.847656-6.28125 23.128906-1.648437 7.28125 4.640625 10.617188 13.335937 8.300781 21.652344l-31.511719 113.304687c-1.695312 10.75-11.015624 18.777344-21.96875 18.777344-2.140624 0-4.035156 1.285156-4.835937 3.28125l-14.5 36.25c-2.828125 7.046875-8.945313 12.117188-16.382813 13.566406-.550781.109375-1.101562.160156-1.640624.160156zm0 0"/><path d="m401.027344 491.902344c-1.125 0-2.261719-.21875-3.351563-.691406-4.328125-1.855469-6.332031-6.859376-4.480469-11.175782l24.757813-57.761718c1.339844-3.136719 4.414063-5.164063 7.828125-5.164063h30.535156l-38.34375-38.347656-62.179687 77.734375-14.136719 18.839844c-2.820312 3.777343-8.160156 4.523437-11.917969 1.707031-3.769531-2.816407-4.53125-8.15625-1.703125-11.917969l14.296875-19.058594 68.277344-85.375c1.515625-1.890625 3.769531-3.042968 6.179687-3.175781 2.394532-.152344 4.78125.753906 6.496094 2.476563l59.605469 59.609374c2.4375 2.4375 3.167969 6.097657 1.847656 9.28125-1.308593 3.183594-4.417969 5.253907-7.863281 5.253907h-45.480469l-22.542969 52.601562c-1.382812 3.238281-4.527343 5.164063-7.824218 5.164063zm0 0"/><path d="m417.265625 272.339844c-4.707031 0-8.515625-3.808594-8.515625-8.515625s3.808594-8.511719 8.515625-8.511719c9.386719 0 17.03125-7.648438 17.03125-17.03125 0-9.390625-7.644531-17.035156-17.03125-17.035156-.839844 0-1.667969.058594-2.480469.183594-4.601562.722656-8.988281-2.457032-9.71875-7.109376-.722656-4.652343 2.460938-8.996093 7.109375-9.71875 1.65625-.257812 3.351563-.386718 5.089844-.386718 18.785156 0 34.066406 15.277344 34.066406 34.066406 0 18.785156-15.28125 34.058594-34.066406 34.058594zm0 0"/><path d="m127.734375 272.339844c-18.785156 0-34.0625-15.273438-34.0625-34.058594 0-18.789062 15.277344-34.066406 34.0625-34.066406 2.324219 0 4.621094.234375 6.863281.695312 4.605469.933594 7.578125 5.445313 6.628906 10.050782-.941406 4.597656-5.410156 7.550781-10.058593 6.625-1.105469-.222657-2.261719-.339844-3.433594-.339844-9.386719 0-17.03125 7.644531-17.03125 17.035156 0 9.382812 7.644531 17.03125 17.03125 17.03125 4.703125 0 8.515625 3.804688 8.515625 8.511719s-3.8125 8.515625-8.515625 8.515625zm0 0"/><path d="m411.230469 221.246094c-4.480469 0-8.226563-3.492188-8.492188-8.015625l-2.511719-42.566407c-.28125-4.695312 3.300782-8.726562 8-9 4.6875-.226562 8.714844 3.308594 8.996094 8l2.515625 42.566407c.28125 4.695312-3.304687 8.722656-8 9-.167969.011719-.34375.015625-.507812.015625zm0 0"/><path d="m327.429688 426.6875c-1.816407 0-3.644532-.09375-5.492188-.292969l-51.359375-4.058593-47.515625 3.894531c-17.269531 1.96875-34.210938-5.175781-41.140625-17.429688l-43.863281-54.929687c-14.476563-14.203125-20.9375-31.714844-18.238282-49.421875l7.859376-133.074219c.273437-4.691406 4.238281-8.332031 9-8 4.695312.269531 8.28125 4.304688 8 9l-7.882813 133.484375c-.019531.292969-.050781.574219-.09375.859375-1.996094 12.355469 2.835937 24.894531 13.597656 35.300781.253907.25.507813.523438.734375.804688l44.660156 55.929687c.34375.429688.648438.886719.902344 1.378906 2.886719 5.542969 12.972656 10.519532 24.820313 9.140626l48.46875-3.964844c.441406-.035156.90625-.035156 1.367187 0l52.261719 4.128906c11.992187 1.347656 21.953125-3.65625 24.816406-9.140625.25-.492187.546875-.945313.898438-1.378906l44.777343-56.101563c.226563-.285156.480469-.558594.738282-.804687 10.734375-10.390625 15.558594-22.921875 13.570312-35.277344-.042968-.285156-.074218-.566406-.09375-.855469l-5.476562-92.648437c-.289063-4.691407 3.300781-8.726563 7.996094-9 4.738281-.332031 8.726562 3.308593 9 8l5.457031 92.230469c2.695312 17.703124-3.761719 35.210937-18.214844 49.398437l-43.984375 55.101563c-6.144531 10.867187-20.171875 17.726562-35.570312 17.726562zm0 0"/><path d="m306.566406 323.4375h-68.125c-4.707031 0-8.519531-3.8125-8.519531-8.519531s3.8125-8.511719 8.519531-8.511719h68.125c4.707032 0 8.511719 3.804688 8.511719 8.511719s-3.804687 8.519531-8.511719 8.519531zm0 0"/><path d="m340.625 234.023438c0 7.054687-5.722656 12.769531-12.773438 12.769531-7.054687 0-12.773437-5.714844-12.773437-12.769531 0-7.054688 5.71875-12.777344 12.773437-12.777344 7.050782 0 12.773438 5.722656 12.773438 12.777344zm0 0"/><path d="m229.921875 234.023438c0 7.054687-5.71875 12.769531-12.777344 12.769531-7.050781 0-12.769531-5.714844-12.769531-12.769531 0-7.054688 5.71875-12.777344 12.769531-12.777344 7.058594 0 12.777344 5.722656 12.777344 12.777344zm0 0"/><path d="m417.265625 536.328125h-119.21875c-4.707031 0-8.515625-3.808594-8.515625-8.515625 0-37.566406 30.558594-68.125 68.125-68.125s68.125 30.558594 68.125 68.125c0 4.707031-3.808594 8.515625-8.515625 8.515625zm-109.996094-17.035156h100.773438c-4.0625-24.128907-25.113281-42.578125-50.386719-42.578125-25.269531 0-46.320312 18.449218-50.386719 42.578125zm0 0"/><path d="m255.46875 536.328125h-119.21875c-4.707031 0-8.515625-3.808594-8.515625-8.515625 0-37.566406 30.558594-68.125 68.121094-68.125 37.570312 0 68.125 30.558594 68.125 68.125 0 4.707031-3.804688 8.515625-8.511719 8.515625zm-109.996094-17.035156h100.773438c-4.0625-24.128907-25.113282-42.578125-50.390625-42.578125-25.269531 0-46.316407 18.449218-50.382813 42.578125zm0 0"/><path d="m408.75 178.667969h-106.378906c-4.707032 0-8.515625-3.804688-8.515625-8.511719s3.808593-8.515625 8.515625-8.515625h97.859375v-17.03125c0-60.277344-42.765625-112.875-101.695313-125.078125-4.59375-.953125-7.558594-5.460938-6.609375-10.066406.945313-4.597656 5.472657-7.550782 10.066407-6.613282 66.792968 13.828126 115.273437 73.445313 115.273437 141.757813v25.546875c0 4.707031-3.808594 8.511719-8.515625 8.511719zm0 0"/><path d="m242.386719 178.667969h-106.136719c-4.707031 0-8.515625-3.804688-8.515625-8.511719v-25.546875c0-67.851563 48.082031-127.386719 114.335937-141.558594 4.585938-1.019531 9.117188 1.9375 10.105469 6.546875.988281 4.597656-1.945312 9.121094-6.542969 10.105469-58.449218 12.503906-100.867187 65.035156-100.867187 124.90625v17.03125h97.621094c4.707031 0 8.515625 3.808594 8.515625 8.515625s-3.808594 8.511719-8.515625 8.511719zm0 0"/><path d="m281.015625 195.699219h-17.035156c-14.085938 0-25.539063-11.457031-25.539063-25.542969v-161.796875c0-4.707031 3.804688-8.519531 8.511719-8.519531h51.09375c4.707031 0 8.519531 3.8125 8.519531 8.519531v161.796875c0 14.085938-11.460937 25.542969-25.550781 25.542969zm-25.546875-178.828125v153.285156c0 4.699219 3.816406 8.511719 8.511719 8.511719h17.035156c4.699219 0 8.515625-3.8125 8.515625-8.511719v-153.285156zm0 0"/></svg>