<svg height="581pt" viewBox="-18 -118 581.33275 581" width="581pt" xmlns="http://www.w3.org/2000/svg"><path d="m510.992188 76.886719c-4.199219 0-7.847657-3.101563-8.425782-7.386719l-4.714844-35.117188c-11.730468-1.886718-21.902343-10.722656-26.367187-22.972656l-436.234375 58.613282c-4.6875.628906-8.953125-2.636719-9.574219-7.316407-.625-4.65625 2.640625-8.945312 7.300781-9.570312l443.769532-59.625c4.667968-.609375 8.941406 2.644531 9.578125 7.304687 1.402343 10.402344 9.484375 17.882813 17.867187 16.796875 4.695313-.582031 8.949219 2.644531 9.574219 7.3125l5.6875 42.320313c.621094 4.65625-2.648437 8.945312-7.308594 9.570312-.386719.046875-.769531.070313-1.152343.070313zm0 0"/><path d="m459.84375 337.679688h-374.6875c-4.703125 0-8.515625-3.8125-8.515625-8.519532v-263.980468c0-4.707032 3.8125-8.519532 8.515625-8.519532h374.6875c4.703125 0 8.511719 3.8125 8.511719 8.519532v263.980468c0 4.707032-3.808594 8.519532-8.511719 8.519532zm-366.171875-17.03125h357.65625v-246.953126h-357.65625zm0 0"/><path d="m85.15625 337.679688h-51.089844c-4.707031 0-8.519531-3.8125-8.519531-8.519532 0-11.472656-7.640625-20.808594-17.03125-20.808594-4.707031 0-8.515625-3.8125-8.515625-8.519531v-205.320312c0-4.707031 3.808594-8.515625 8.515625-8.515625 9.390625 0 17.03125-9.34375 17.03125-20.816406 0-4.707032 3.8125-8.511719 8.519531-8.511719h51.089844c4.699219 0 8.515625 3.804687 8.515625 8.511719v263.984374c0 4.703126-3.816406 8.515626-8.515625 8.515626zm-43.445312-17.03125h34.929687v-246.953126h-34.929687c-2.855469 13.726563-12.445313 24.621094-24.679688 28.132813v190.6875c12.234375 3.511719 21.824219 14.402344 24.679688 28.132813zm0 0"/><path d="m510.9375 337.679688h-51.09375c-4.703125 0-8.515625-3.8125-8.515625-8.519532v-263.980468c0-4.707032 3.8125-8.519532 8.515625-8.519532h51.09375c4.703125 0 8.515625 3.8125 8.515625 8.519532 0 11.472656 7.640625 20.816406 17.027344 20.816406 4.707031 0 8.519531 3.804687 8.519531 8.511718v205.324219c0 4.707031-3.8125 8.511719-8.519531 8.511719-9.386719 0-17.027344 9.34375-17.027344 20.816406 0 4.707032-3.8125 8.519532-8.515625 8.519532zm-42.582031-17.03125h34.933593c2.855469-13.730469 12.445313-24.621094 24.679688-28.132813v-190.6875c-12.234375-3.511719-21.824219-14.40625-24.679688-28.132813h-34.933593zm0 0"/><path d="m336.367188 124.785156h-17.03125c-4.703126 0-8.515626-3.804687-8.515626-8.511718 0-4.707032 3.8125-8.515626 8.515626-8.515626h17.03125c4.699218 0 8.515624 3.808594 8.515624 8.515626 0 4.707031-3.816406 8.511718-8.515624 8.511718zm0 0"/><path d="m455.585938 124.785156h-29.804688c-4.703125 0-8.515625-3.804687-8.515625-8.511718 0-4.707032 3.8125-8.515626 8.515625-8.515626h29.804688c4.703124 0 8.515624 3.808594 8.515624 8.515626 0 4.707031-3.8125 8.511718-8.515624 8.511718zm-59.609376 0h-29.804687c-4.703125 0-8.515625-3.804687-8.515625-8.511718 0-4.707032 3.8125-8.515626 8.515625-8.515626h29.804687c4.703126 0 8.515626 3.808594 8.515626 8.515626 0 4.707031-3.8125 8.511718-8.515626 8.511718zm0 0"/><path d="m502.421875 124.785156h-17.03125c-4.699219 0-8.515625-3.804687-8.515625-8.511718 0-4.707032 3.816406-8.515626 8.515625-8.515626h17.03125c4.703125 0 8.515625 3.808594 8.515625 8.515626 0 4.707031-3.8125 8.511718-8.515625 8.511718zm0 0"/><path d="m59.609375 124.785156h-17.03125c-4.703125 0-8.511719-3.804687-8.511719-8.511718 0-4.707032 3.808594-8.515626 8.511719-8.515626h17.03125c4.707031 0 8.515625 3.808594 8.515625 8.515626 0 4.707031-3.808594 8.511718-8.515625 8.511718zm0 0"/><path d="m144.765625 124.785156h-42.574219c-4.707031 0-8.519531-3.804687-8.519531-8.511718 0-4.707032 3.8125-8.515626 8.519531-8.515626h42.574219c4.703125 0 8.515625 3.808594 8.515625 8.515626 0 4.707031-3.8125 8.511718-8.515625 8.511718zm0 0"/><path d="m204.371094 124.785156h-17.03125c-4.703125 0-8.515625-3.804687-8.515625-8.511718 0-4.707032 3.8125-8.515626 8.515625-8.515626h17.03125c4.699218 0 8.515625 3.808594 8.515625 8.515626 0 4.707031-3.816407 8.511718-8.515625 8.511718zm0 0"/><path d="m377.214844 286.582031h-17.035156c-4.703126 0-8.511719-3.804687-8.511719-8.511719 0-4.707031 3.808593-8.515624 8.511719-8.515624h17.035156c4.699218 0 8.511718 3.808593 8.511718 8.515624 0 4.707032-3.8125 8.511719-8.511718 8.511719zm0 0"/><path d="m449.328125 286.582031h-36.058594c-4.699219 0-8.515625-3.804687-8.515625-8.511719 0-4.707031 3.816406-8.515624 8.515625-8.515624h36.058594c4.707031 0 8.519531 3.808593 8.519531 8.515624 0 4.707032-3.8125 8.511719-8.519531 8.511719zm0 0"/><path d="m502.421875 286.582031h-17.03125c-4.699219 0-8.515625-3.804687-8.515625-8.511719 0-4.707031 3.816406-8.515624 8.515625-8.515624h17.03125c4.703125 0 8.515625 3.808593 8.515625 8.515624 0 4.707032-3.8125 8.511719-8.515625 8.511719zm0 0"/><path d="m59.609375 286.582031h-17.03125c-4.703125 0-8.511719-3.804687-8.511719-8.511719 0-4.707031 3.808594-8.515624 8.511719-8.515624h17.03125c4.707031 0 8.515625 3.808593 8.515625 8.515624 0 4.707032-3.808594 8.511719-8.515625 8.511719zm0 0"/><path d="m122.152344 286.582031h-31.273438c-4.699218 0-8.515625-3.804687-8.515625-8.511719 0-4.707031 3.816407-8.515624 8.515625-8.515624h31.273438c4.703125 0 8.511718 3.808593 8.511718 8.515624 0 4.707032-3.808593 8.511719-8.511718 8.511719zm0 0"/><path d="m170.457031 286.582031h-17.03125c-4.703125 0-8.515625-3.804687-8.515625-8.511719 0-4.707031 3.8125-8.515624 8.515625-8.515624h17.03125c4.703125 0 8.515625 3.808593 8.515625 8.515624 0 4.707032-3.8125 8.511719-8.515625 8.511719zm0 0"/><path d="m224.167969 300.90625c-7.742188 0-15.484375-2.453125-22.238281-7.359375-13.519532-9.8125-18.910157-26.429687-13.75-42.316406l3.664062-11.273438c2.789062-8.605469-.25-17.957031-7.5625-23.265625l-9.59375-6.980468c-13.515625-9.8125-18.914062-26.417969-13.753906-42.308594 5.167968-15.882813 19.296875-26.15625 36-26.15625h11.851562c9.046875 0 17.003906-5.777344 19.796875-14.378906l3.664063-11.277344c5.164062-15.882813 19.292968-26.144532 35.996094-26.144532 16.703124 0 30.832031 10.261719 35.992187 26.15625v-.011718l3.664063 11.273437c2.792968 8.605469 10.75 14.382813 19.800781 14.382813h11.851562c16.707031 0 30.832031 10.273437 35.996094 26.15625 5.160156 15.890625-.234375 32.496094-13.75 42.320312l-9.589844 6.957032c-7.320312 5.328124-10.355469 14.671874-7.5625 23.28125l3.664063 11.277343c5.160156 15.882813-.238282 32.5-13.75 42.308594-13.515625 9.8125-30.980469 9.824219-44.492188-.003906l-9.585937-6.953125c-7.324219-5.34375-17.15625-5.34375-24.464844-.011719l-9.605469 6.96875c-6.757812 4.90625-14.496094 7.359375-22.242187 7.359375zm-27.234375-142.628906c-11.152344 0-17.542969 7.433594-19.796875 14.386718-2.261719 6.953126-1.460938 16.722657 7.5625 23.269532l9.589843 6.976562c13.304688 9.664063 18.832032 26.664063 13.75 42.304688l-3.664062 11.273437c-3.445312 10.609375 1.648438 18.984375 7.558594 23.277344 5.914062 4.308594 15.441406 6.546875 24.46875 0l9.601562-6.96875c13.304688-9.660156 31.183594-9.671875 44.484375.011719l9.585938 6.953125c9.019531 6.558593 18.550781 4.296875 24.476562.003906 5.910157-4.285156 11.007813-12.664063 7.554688-23.277344l-3.65625-11.273437c-5.082031-15.640625.441406-32.640625 13.75-42.316406l9.582031-6.957032c9.027344-6.554687 9.824219-16.324218 7.570312-23.277344-2.257812-6.953124-8.648437-14.386718-19.800781-14.386718h-11.851562c-16.457031 0-30.917969-10.511719-35.996094-26.152344l-3.664063-11.261719v-.007812c-3.445312-10.605469-12.484374-14.378907-19.796874-14.378907-7.308594 0-16.347657 3.773438-19.800782 14.378907l-3.65625 11.273437c-5.078125 15.636719-19.546875 26.148438-36 26.148438zm0 0"/><path d="m229.921875 180.140625c0 7.054687-5.71875 12.769531-12.777344 12.769531-7.050781 0-12.769531-5.714844-12.769531-12.769531s5.71875-12.773437 12.769531-12.773437c7.058594 0 12.777344 5.71875 12.777344 12.773437zm0 0"/><path d="m332.105469 180.140625c0 7.054687-5.714844 12.769531-12.769531 12.769531-7.054688 0-12.769532-5.714844-12.769532-12.769531s5.714844-12.773437 12.769532-12.773437c7.054687 0 12.769531 5.71875 12.769531 12.773437zm0 0"/><path d="m268.738281 244.007812c-13.050781 0-25.660156-5.628906-34.585937-15.453124-3.164063-3.472657-2.910156-8.863282.574218-12.03125 3.472657-3.160157 8.863282-2.902344 12.027344.574218 5.792969 6.371094 13.601563 9.878906 21.984375 9.878906 8.710938 0 17.015625-3.933593 22.789063-10.796874 3.027344-3.597657 8.394531-4.058594 12-1.042969 3.597656 3.03125 4.0625 8.398437 1.039062 12-9.015625 10.71875-22.078125 16.871093-35.828125 16.871093zm0 0"/></svg>