<svg height="581pt" viewBox="-112 -18 581 581.33275" width="581pt" xmlns="http://www.w3.org/2000/svg"><path d="m172.679688 238.441406c-96.847657 0-159.425782-39.554687-159.425782-100.769531 0-77.527344 85.703125-137.671875 159.425782-137.671875 73.730468 0 159.4375 60.144531 159.4375 137.671875 0 61.214844-62.585938 100.769531-159.4375 100.769531zm0-221.410156c-80.191407 0-142.398438 64.847656-142.398438 120.640625 0 61.804687 76.710938 83.734375 142.398438 83.734375 65.691406 0 142.402343-21.929688 142.402343-83.734375 0-55.792969-62.207031-120.640625-142.402343-120.640625zm0 0"/><path d="m172.679688 272.855469c-24.523438 0-47.464844-5.476563-67.703126-10.3125-23.949218-5.703125-44.648437-10.640625-57.167968-3.550781-4.078125 2.328124-9.28125.902343-11.605469-3.191407s-.890625-9.285156 3.191406-11.605469c18.34375-10.429687 42.070313-4.765624 69.539063 1.789063 19.324218 4.613281 41.226562 9.839844 63.746094 9.839844 22.519531 0 44.421874-5.226563 63.746093-9.835938 27.433594-6.554687 51.132813-12.207031 69.449219-1.835937 4.09375 2.3125 5.535156 7.507812 3.226562 11.601562-2.320312 4.089844-7.503906 5.539063-11.605468 3.21875-12.496094-7.058594-33.179688-2.136718-57.113282 3.582032-20.238281 4.832031-43.175781 10.300781-67.703124 10.300781zm0 0"/><path d="m172.679688 545c-59.148438 0-107.191407-30.402344-135.269532-85.625-2.128906-4.1875-.460937-9.308594 3.734375-11.449219 4.195313-2.105469 9.320313-.457031 11.449219 3.734375 25.027344 49.207032 67.671875 76.308594 120.085938 76.308594 53.324218 0 96.378906-27.914062 121.242187-78.621094 2.078125-4.222656 7.164063-5.992187 11.402344-3.890625 4.222656 2.070313 5.964843 7.167969 3.894531 11.394531-27.476562 56.011719-77.242188 88.148438-136.539062 88.148438zm0 0"/><path d="m130.105469 323.59375c0 9.40625-7.628907 17.03125-17.03125 17.03125-9.410157 0-17.03125-7.625-17.03125-17.03125 0-9.410156 7.621093-17.027344 17.03125-17.027344 9.402343 0 17.03125 7.617188 17.03125 17.027344zm0 0"/><path d="m27.917969 493.90625c-9.15625 0-18.066407-5.523438-26.511719-72.167969-4.585938-36.1875-7.550781-81.394531-7.550781-115.171875 0-42.566406 4.726562-55.847656 11.808593-62.679687 6.214844-5.988281 13.714844-5.738281 19.183594-5.523438 1 .03125 2.027344.078125 3.070313.078125 30.53125 0 34.0625 53.460938 34.0625 93.664063 0 1.625-1.46875 161.800781-34.0625 161.800781zm-6.535157-238.585938c-2.253906 0-3.25.199219-3.890624.820313-2.472657 2.378906-6.609376 12.089844-6.609376 50.425781 0 61.320313 8.882813 142.324219 17.457032 165.765625 7.476562-18.6875 16.609375-78.5625 16.609375-140.226562 0-72.945313-14.191407-76.636719-17.03125-76.636719-1.25 0-2.484375-.042969-3.6875-.082031-1.128907-.042969-2.066407-.066407-2.847657-.066407zm0 0"/><path d="m317.449219 493.90625c-32.597657 0-34.066407-160.175781-34.066407-161.800781 0-40.203125 3.535157-93.664063 34.066407-93.664063 1.039062 0 2.066406-.046875 3.0625-.078125 5.472656-.214843 12.972656-.464843 19.1875 5.523438 7.085937 6.832031 11.808593 20.113281 11.808593 62.679687 0 33.777344-2.960937 78.984375-7.546874 115.171875-8.449219 66.644531-17.363282 72.167969-26.511719 72.167969zm2.621093-16.222656h.085938zm3.90625-222.363282c-.777343 0-1.714843.023438-2.839843.066407-1.207031.039062-2.4375.082031-3.6875.082031-2.847657 0-17.03125 3.691406-17.03125 76.636719 0 61.664062 9.132812 121.539062 16.613281 140.226562 8.566406-23.441406 17.449219-104.445312 17.449219-165.765625 0-38.335937-4.140625-48.046875-6.605469-50.425781-.640625-.621094-1.636719-.820313-3.898438-.820313zm0 0"/><path d="m172.679688 50.503906c-61.136719 0-110.699219 42.21875-110.699219 80.167969 0 37.945313 49.5625 57.257813 110.699219 57.257813 61.144531 0 110.703124-19.3125 110.703124-57.257813 0-37.949219-49.558593-80.167969-110.703124-80.167969zm-13.835938 90.203125c-4.777344 10.585938-21.515625 13.351563-37.390625 6.191407-15.875-7.167969-24.867187-21.558594-20.09375-32.140626 4.78125-10.578124 21.523437-13.347656 37.394531-6.183593 15.875 7.167969 24.867188 21.550781 20.089844 32.132812zm65.0625 6.191407c-15.867188 7.160156-32.609375 4.394531-37.386719-6.191407-4.78125-10.582031 4.214844-24.964843 20.089844-32.132812 15.875-7.164063 32.617187-4.394531 37.394531 6.1875 4.773438 10.578125-4.222656 24.96875-20.097656 32.136719zm0 0"/><path d="m172.679688 196.445312c-72.421876 0-119.21875-25.820312-119.21875-65.773437 0-49.945313 64.089843-88.683594 119.21875-88.683594 55.132812 0 119.222656 38.738281 119.222656 88.683594 0 39.953125-46.792969 65.773437-119.222656 65.773437zm0-137.425781c-56.605469 0-102.183594 39.195313-102.183594 71.652344 0 33.667969 51.320312 48.746094 102.183594 48.746094 50.867187 0 102.191406-15.078125 102.191406-48.746094 0-32.457031-45.578125-71.652344-102.191406-71.652344zm33.652343 100.375c-2.269531 0-4.507812-.175781-6.664062-.535156-9.820313-1.621094-17.4375-6.96875-20.910157-14.652344-3.46875-7.675781-2.433593-16.921875 2.84375-25.363281 4.675782-7.480469 12.308594-13.882812 21.503907-18.027344 9.199219-4.140625 19.042969-5.648437 27.753906-4.210937 9.816406 1.621093 17.429687 6.96875 20.90625 14.652343 3.46875 7.675782 2.429687 16.921876-2.847656 25.363282-4.671875 7.480468-12.308594 13.882812-21.5 18.03125-6.917969 3.121094-14.195313 4.742187-21.085938 4.742187zm17.882813-46.289062c-4.472656 0-9.425782 1.113281-14.097656 3.230469-6.074219 2.742187-11.207032 6.953124-14.078126 11.542968-1.039062 1.671875-3.296874 5.910156-1.757812 9.332032 1.546875 3.414062 6.222656 4.53125 8.167969 4.84375 5.324219.910156 11.878906-.171876 17.957031-2.921876 6.074219-2.742187 11.207031-6.945312 14.074219-11.535156 1.042969-1.671875 3.300781-5.917968 1.761719-9.332031-1.546876-3.421875-6.222657-4.539063-8.164063-4.847656-1.230469-.210938-2.527344-.3125-3.863281-.3125zm-85.183594 46.289062c-6.890625 0-14.171875-1.617187-21.078125-4.742187-9.195313-4.148438-16.832031-10.550782-21.507813-18.03125-5.277343-8.441406-6.3125-17.6875-2.84375-25.363282 3.46875-7.683593 11.085938-13.03125 20.90625-14.652343 8.710938-1.445313 18.554688.042969 27.75 4.210937 9.191407 4.144532 16.828126 10.546875 21.507813 18.027344 5.277344 8.441406 6.308594 17.6875 2.835937 25.363281-3.464843 7.695313-11.085937 13.03125-20.898437 14.652344-2.164063.359375-4.398437.535156-6.671875.535156zm-17.878906-46.289062c-1.339844 0-2.632813.101562-3.863282.3125-1.941406.308593-6.617187 1.425781-8.164062 4.847656-1.542969 3.414063.71875 7.660156 1.761719 9.332031 2.871093 4.589844 8 8.792969 14.078125 11.535156 6.070312 2.75 12.613281 3.832032 17.953125 2.921876 1.945312-.3125 6.621093-1.429688 8.164062-4.84375h.003907c1.539062-3.421876-.714844-7.660157-1.765626-9.332032-2.863281-4.589844-7.996093-8.800781-14.070312-11.542968-4.671875-2.117188-9.628906-3.230469-14.097656-3.230469zm0 0"/></svg>