<svg height="568pt" viewBox="-29 -18 568 568.0022" width="568pt" xmlns="http://www.w3.org/2000/svg"><path d="m395.15625 294.109375h-276.703125c-4.703125 0-8.515625-3.808594-8.515625-8.515625s3.8125-8.511719 8.515625-8.511719h276.703125c4.699219 0 8.515625 3.804688 8.515625 8.511719s-3.816406 8.515625-8.515625 8.515625zm0 0"/><path d="m450.496094 464.390625h-391.640625c-4.699219 0-8.515625-3.808594-8.515625-8.515625v-68.109375c0-4.707031 3.816406-8.519531 8.515625-8.519531 4.703125 0 8.511719 3.8125 8.511719 8.519531v59.59375h374.613281v-59.59375c0-4.707031 3.808593-8.519531 8.515625-8.519531 4.703125 0 8.511718 3.8125 8.511718 8.519531v68.109375c0 4.707031-3.808593 8.515625-8.511718 8.515625zm0 0"/><path d="m186.5625 498.445312h-127.707031c-4.699219 0-8.515625-3.804687-8.515625-8.511718v-34.058594c0-4.707031 3.816406-8.515625 8.515625-8.515625h127.707031c4.703125 0 8.515625 3.808594 8.515625 8.515625v34.058594c0 4.707031-3.8125 8.511718-8.515625 8.511718zm-119.195312-17.027343h110.679687v-17.027344h-110.679687zm0 0"/><path d="m152.507812 532.503906h-59.597656c-23.472656 0-42.570312-19.105468-42.570312-42.570312 0-4.707032 3.816406-8.515625 8.515625-8.515625h127.707031c4.703125 0 8.515625 3.808593 8.515625 8.515625 0 23.472656-19.101563 42.570312-42.570313 42.570312zm-83.679687-34.058594c3.511719 9.90625 12.984375 17.023438 24.082031 17.023438h59.597656c11.097657 0 20.570313-7.117188 24.082032-17.023438zm0 0"/><path d="m450.496094 498.445312h-127.710938c-4.699218 0-8.511718-3.804687-8.511718-8.511718v-34.058594c0-4.707031 3.8125-8.515625 8.511718-8.515625h127.710938c4.703125 0 8.511718 3.808594 8.511718 8.515625v34.058594c0 4.707031-3.808593 8.511718-8.511718 8.511718zm-119.195313-17.027343h110.679688v-17.027344h-110.679688zm0 0"/><path d="m416.4375 532.503906h-59.59375c-23.472656 0-42.570312-19.105468-42.570312-42.570312 0-4.707032 3.8125-8.515625 8.511718-8.515625h127.710938c4.703125 0 8.511718 3.808593 8.511718 8.515625 0 23.472656-19.097656 42.570312-42.570312 42.570312zm-83.679688-34.058594c3.511719 9.90625 12.988282 17.023438 24.085938 17.023438h59.59375c11.097656 0 20.570312-7.117188 24.082031-17.023438zm0 0"/><path d="m450.496094 277.082031c-4.707032 0-8.515625-3.808593-8.515625-8.515625v-85.136718h-374.613281v81.207031c0 4.707031-3.808594 8.511719-8.511719 8.511719-4.699219 0-8.515625-3.804688-8.515625-8.511719v-89.722657c0-4.707031 3.816406-8.511718 8.515625-8.511718h391.640625c4.703125 0 8.511718 3.804687 8.511718 8.511718v93.652344c0 4.707032-3.808593 8.515625-8.511718 8.515625zm0 0"/><path d="m254.675781 294.109375h-102.167969c-4.703124 0-8.515624-3.808594-8.515624-8.515625v-85.136719c0-4.707031 3.8125-8.511719 8.515624-8.511719h102.167969c4.699219 0 8.515625 3.804688 8.515625 8.511719v85.136719c0 4.707031-3.816406 8.515625-8.515625 8.515625zm-93.65625-17.027344h85.140625v-68.109375h-85.140625zm0 0"/><path d="m254.675781 200.457031h102.167969v85.136719h-102.167969zm0 0"/><path d="m356.84375 294.109375h-102.167969c-4.703125 0-8.515625-3.808594-8.515625-8.515625v-85.136719c0-4.707031 3.8125-8.511719 8.515625-8.511719h102.167969c4.699219 0 8.511719 3.804688 8.511719 8.511719v85.136719c0 4.707031-3.8125 8.515625-8.511719 8.515625zm-93.652344-17.027344h85.136719v-68.109375h-85.136719zm0 0"/><path d="m220.621094 243.023438c0 9.410156-7.625 17.035156-17.03125 17.035156-9.402344 0-17.027344-7.625-17.027344-17.035156 0-9.402344 7.625-17.023438 17.027344-17.023438 9.40625 0 17.03125 7.621094 17.03125 17.023438zm0 0"/><path d="m441.980469 208.972656h-383.125c-4.699219 0-8.515625-3.808594-8.515625-8.515625s3.816406-8.511719 8.515625-8.511719h383.125c4.703125 0 8.515625 3.804688 8.515625 8.511719s-3.8125 8.515625-8.515625 8.515625zm0 0"/><path d="m109.9375 319.652344h-102.167969c-4.699219 0-8.515625-3.808594-8.515625-8.515625v-42.570313c0-4.703125 3.816406-8.507812 8.515625-8.507812h102.167969c4.703125 0 8.515625 3.804687 8.515625 8.507812v42.570313c0 4.707031-3.8125 8.515625-8.515625 8.515625zm-93.652344-17.027344h85.140625v-25.542969h-85.140625zm0 0"/><path d="m109.9375 362.222656h-102.167969c-4.699219 0-8.515625-3.8125-8.515625-8.515625v-42.570312c0-4.707031 3.816406-8.511719 8.515625-8.511719h102.167969c4.703125 0 8.515625 3.804688 8.515625 8.511719v42.570312c0 4.703125-3.8125 8.515625-8.515625 8.515625zm-93.652344-17.027344h85.140625v-25.542968h-85.140625zm0 0"/><path d="m75.882812 396.28125h-34.058593c-4.699219 0-8.511719-3.8125-8.511719-8.515625v-34.058594c0-4.707031 3.8125-8.511719 8.511719-8.511719h34.058593c4.699219 0 8.515626 3.804688 8.515626 8.511719v34.058594c0 4.703125-3.816407 8.515625-8.515626 8.515625zm-25.542968-17.035156h17.027344v-17.023438h-17.027344zm0 0"/><path d="m501.578125 319.652344h-102.164063c-4.703124 0-8.515624-3.808594-8.515624-8.515625v-42.570313c0-4.703125 3.8125-8.507812 8.515624-8.507812h102.164063c4.699219 0 8.515625 3.804687 8.515625 8.507812v42.570313c0 4.707031-3.816406 8.515625-8.515625 8.515625zm-93.65625-17.027344h85.144531v-25.542969h-85.144531zm0 0"/><path d="m501.578125 362.222656h-102.164063c-4.703124 0-8.515624-3.8125-8.515624-8.515625v-42.570312c0-4.707031 3.8125-8.511719 8.515624-8.511719h102.164063c4.699219 0 8.515625 3.804688 8.515625 8.511719v42.570312c0 4.703125-3.816406 8.515625-8.515625 8.515625zm-93.65625-17.027344h85.144531v-25.542968h-85.144531zm0 0"/><path d="m229.132812 47.207031h51.082032v42.570313h-51.082032zm0 0"/><path d="m280.214844 98.292969h-51.082032c-4.703124 0-8.511718-3.8125-8.511718-8.515625v-42.570313c0-4.707031 3.808594-8.515625 8.511718-8.515625h51.082032c4.703125 0 8.515625 3.808594 8.515625 8.515625v42.570313c0 4.703125-3.8125 8.515625-8.515625 8.515625zm-42.566406-17.03125h34.050781v-25.539063h-34.050781zm0 0"/><path d="m467.523438 396.28125h-34.058594c-4.699219 0-8.511719-3.8125-8.511719-8.515625v-34.058594c0-4.707031 3.8125-8.511719 8.511719-8.511719h34.058594c4.703124 0 8.511718 3.804688 8.511718 8.511719v34.058594c0 4.703125-3.808594 8.515625-8.511718 8.515625zm-25.542969-17.035156h17.027343v-17.023438h-17.027343zm0 0"/><path d="m393.625 142.34375c-5.363281 0-10.8125-.78125-16.199219-2.4375l-65.113281-19.984375h.003906c-14.136718-4.332031-25.738281-13.910156-32.664062-26.96875-6.929688-13.058594-8.359375-28.027344-4.023438-42.164063l13.738282-44.761718c1.382812-4.503906 6.136718-7.03125 10.632812-5.648438l109.886719 33.707032c14.128906 4.332031 25.726562 13.910156 32.660156 26.972656 6.921875 13.054687 8.355469 28.027344 4.019531 42.164062-7.296875 23.78125-29.265625 39.121094-52.941406 39.121094zm-90.476562-123.1875-11.238282 36.625c-6.195312 20.203125 5.195313 41.671875 25.394532 47.863281h.003906l65.117187 19.980469c20.191407 6.234375 41.667969-5.203125 47.863281-25.390625 6.191407-20.203125-5.199218-41.671875-25.394531-47.867187zm0 0"/><path d="m115.722656 142.34375c-23.675781 0-45.636718-15.332031-52.941406-39.121094-4.335938-14.136718-2.902344-29.109375 4.023438-42.164062 6.929687-13.0625 18.523437-22.640625 32.660156-26.972656l109.878906-33.707032c4.5-1.386718 9.265625 1.144532 10.640625 5.648438l13.730469 44.761718c4.335937 14.136719 2.910156 29.105469-4.019532 42.164063-6.929687 13.058594-18.527343 22.636719-32.664062 26.96875l-65.109375 19.984375c-5.382813 1.652344-10.839844 2.4375-16.199219 2.4375zm90.476563-123.1875-101.738281 31.210938c-20.199219 6.195312-31.59375 27.664062-25.398438 47.867187 6.1875 20.1875 27.667969 31.613281 47.859375 25.390625l65.121094-19.980469h.003906c20.195313-6.191406 31.585937-27.660156 25.394531-47.863281zm0 0"/><path d="m297.242188 183.429688h-85.136719c-4.703125 0-8.515625-3.808594-8.515625-8.515626v-34.054687c0-4.703125 3.8125-8.515625 8.515625-8.515625h85.136719c4.703124 0 8.515624 3.8125 8.515624 8.515625v34.054687c0 4.707032-3.8125 8.515626-8.515624 8.515626zm-76.621094-17.027344h68.109375v-17.03125h-68.109375zm0 0"/><path d="m280.214844 149.371094h-51.082032c-4.703124 0-8.511718-3.804688-8.511718-8.511719v-59.597656c0-4.707031 3.808594-8.511719 8.511718-8.511719h51.082032c4.703125 0 8.515625 3.804688 8.515625 8.511719v59.597656c0 4.707031-3.8125 8.511719-8.515625 8.511719zm-42.566406-17.027344h34.050781v-42.566406h-34.050781zm0 0"/><path d="m365.355469 115.320312c-21.125 0-38.3125-17.1875-38.3125-38.3125 0-21.128906 17.1875-38.316406 38.3125-38.316406 21.128906 0 38.316406 17.1875 38.316406 38.316406 0 21.125-17.1875 38.3125-38.316406 38.3125zm0-59.597656c-11.738281 0-21.285157 9.542969-21.285157 21.285156 0 11.742188 9.546876 21.285157 21.285157 21.285157 11.734375 0 21.285156-9.542969 21.285156-21.285157 0-11.742187-9.550781-21.285156-21.285156-21.285156zm0 0"/><path d="m148.25 115.320312c-21.128906 0-38.3125-17.1875-38.3125-38.3125 0-21.128906 17.183594-38.316406 38.3125-38.316406s38.3125 17.1875 38.3125 38.316406c0 21.125-17.183594 38.3125-38.3125 38.3125zm0-59.597656c-11.734375 0-21.28125 9.542969-21.28125 21.285156 0 11.742188 9.546875 21.285157 21.28125 21.285157 11.738281 0 21.285156-9.542969 21.285156-21.285157 0-11.742187-9.546875-21.285156-21.285156-21.285156zm0 0"/><path d="m152.507812 68.492188c0 7.054687-5.71875 12.769531-12.773437 12.769531s-12.765625-5.714844-12.765625-12.769531c0-7.054688 5.710938-12.769532 12.765625-12.769532s12.773437 5.714844 12.773437 12.769532zm0 0"/><path d="m365.355469 68.492188c0 7.054687-5.714844 12.769531-12.769531 12.769531-7.054688 0-12.773438-5.714844-12.773438-12.769531 0-7.054688 5.71875-12.769532 12.773438-12.769532 7.054687 0 12.769531 5.714844 12.769531 12.769532zm0 0"/></svg>