<svg height="581pt" viewBox="-18 -18 581.33275 581" width="581pt" xmlns="http://www.w3.org/2000/svg"><path d="m536.480469 544.621094h-527.964844c-4.707031 0-8.515625-3.808594-8.515625-8.515625v-102.183594c0-4.105469 2.917969-7.617187 6.949219-8.367187l134.21875-25.164063c4.628906-.855469 9.066406 2.167969 9.933593 6.792969.867188 4.625-2.179687 9.074218-6.800781 9.9375l-127.269531 23.863281v86.609375h510.9375v-86.695312l-127.375-25.476563c-4.609375-.925781-7.601562-5.402344-6.679688-10.015625.917969-4.621094 5.382813-7.625 10.019532-6.679688l134.21875 26.84375c3.980468.796876 6.847656 4.292969 6.847656 8.34375v102.191407c0 4.707031-3.8125 8.515625-8.519531 8.515625zm0 0"/><path d="m408.738281 501.0625c-4.082031 0-7.683593-2.945312-8.390625-7.101562l-12.960937-77.03125c-.777344-4.644532 2.351562-9.03125 6.984375-9.8125 4.648437-.71875 9.03125 2.351562 9.8125 6.984374l12.964844 77.035157c.777343 4.636719-2.351563 9.027343-6.984376 9.808593-.480468.078126-.957031.117188-1.425781.117188zm0 0"/><path d="m136.257812 501.0625c-.464843 0-.945312-.039062-1.421874-.117188-4.636719-.78125-7.761719-5.171874-6.988282-9.808593l12.96875-77.035157c.785156-4.632812 5.128906-7.703124 9.8125-6.984374 4.632813.78125 7.761719 5.171874 6.984375 9.8125l-12.964843 77.03125c-.703126 4.15625-4.304688 7.101562-8.390626 7.101562zm0 0"/><path d="m406.097656 255.097656c-.179687 0-.359375-.003906-.539062-.015625-4.699219-.292969-8.265625-4.332031-7.96875-9.027343l2.660156-42.585938c-.019531-79.695312-52.546875-135.71875-127.75-135.71875-75.207031 0-127.734375 56.023438-127.734375 136.246094l2.453125 38.992187c.296875 4.703125-3.273438 8.742188-7.96875 9.035157-4.695312.257812-8.734375-3.269532-9.027344-7.96875l-2.472656-39.527344c-.015625-90.769532 59.515625-153.808594 144.75-153.808594s144.765625 63.03125 144.765625 153.277344l-2.679687 43.121094c-.28125 4.515624-4.027344 7.980468-8.488282 7.980468zm0 0"/><path d="m333.964844 493.769531c-1.59375 0-3.203125-.074219-4.820313-.242187l-113.082031-.191406c-17.0625 1.941406-33.234375-5.679688-39.492188-18.4375l-31.519531-54.515626c-13.441406-14.210937-19.363281-31.640624-16.699219-49.214843l4.957032-49.621094c.238281-2.355469 1.441406-4.507813 3.332031-5.941406 1.878906-1.4375 4.28125-2.011719 6.605469-1.601563l129.253906 22.644532 129.253906-22.644532c2.316406-.410156 4.71875.164063 6.609375 1.601563 1.886719 1.433593 3.089844 3.585937 3.328125 5.941406l5.011719 50.070313c2.609375 17.125-3.308594 34.546874-16.722656 48.746093l-31.902344 55.203125c-5.359375 10.988282-19.019531 18.203125-34.113281 18.203125zm-118.378906-17.460937h.011718l114.023438.1875c.3125 0 .628906.019531.9375.050781 9.796875 1.164063 19.449218-2.753906 22.5-8.992187l32.6875-56.597657c.351562-.617187.777344-1.171875 1.269531-1.679687 10.148437-10.433594 14.6875-23.0625 12.796875-35.535156l-4.152344-41.378907-121.6875 21.324219c-.964844.164062-1.976562.164062-2.941406 0l-121.6875-21.324219-4.09375 40.929688c-1.949219 12.921875 2.601562 25.558593 12.765625 35.992187.488281.5.910156 1.066406 1.265625 1.679688l32.3125 55.929687c3.355469 6.804688 13.101562 10.640625 22.980469 9.472657.332031-.042969.671875-.058594 1.011719-.058594zm0 0"/><path d="m127.203125 246.574219 145.296875 34.066406 144.5-29.804687v80.894531l-144.5 17.035156-136.25-25.546875zm0 0"/><path d="m326.136719 374.3125h-107.277344c-3.296875 0-5.96875 2.671875-5.96875 5.96875v13.605469c0 3.296875 2.675781 5.972656 5.96875 5.972656h107.277344c3.300781 0 5.96875-2.675781 5.96875-5.972656v-13.605469c0-3.296875-2.667969-5.96875-5.96875-5.96875zm-19.570313 17.03125h-68.125v-8.519531h68.125zm0 0"/><path d="m144.765625 229.546875 136.25 93.671875-140.921875 18.117188-65.484375-102.558594-8.945313-146.703125 24.34375-91.9843752 1.929688 7.6601562c6.144531 51.460938 15.957031 110.925781 29.371094 160.984375zm0 0"/><path d="m406.289062 229.546875-136.25 93.671875 140.921876 18.117188 65.484374-102.558594 8.945313-146.703125-24.335937-91.9843752-1.929688 7.6601562c-6.144531 51.460938-15.964844 110.925781-29.378906 160.984375zm0 0"/><path d="m246.953125 323.21875-42.578125-42.578125h-31.9375l9.734375 14.59375c7.398437 11.101563 18.910156 18.808594 31.992187 21.425781zm0 0"/><path d="m300.175781 323.21875 42.578125-42.578125h31.9375l-9.734375 14.59375c-7.398437 11.101563-18.910156 18.808594-31.992187 21.425781zm0 0"/><path d="m93.671875 536.105469-51.09375-102.183594 51.09375-17.03125zm0 0"/><path d="m459.84375 536.105469 51.09375-102.183594-51.09375-17.03125zm0 0"/></svg>