<svg height="573pt" viewBox="-82 -18 573 573.33081" width="573pt" xmlns="http://www.w3.org/2000/svg"><path d="m362.773438 366.867188c-4.714844 0-8.527344-3.820313-8.527344-8.535157v-187.695312c0-84.675781-68.898438-153.574219-153.574219-153.574219-84.671875 0-153.570313 68.898438-153.570313 153.574219v187.695312c0 4.714844-3.816406 8.535157-8.535156 8.535157-4.714844 0-8.527344-3.820313-8.527344-8.535157v-187.695312c0-94.09375 76.542969-170.636719 170.632813-170.636719 94.09375 0 170.636719 76.542969 170.636719 170.636719v187.695312c0 4.714844-3.816406 8.535157-8.535156 8.535157zm0 0"/><path d="m328.652344 247.417969c-4.71875 0-8.535156-3.8125-8.535156-8.527344s3.816406-8.53125 8.535156-8.53125c14.113281 0 25.59375-11.484375 25.59375-25.597656s-11.480469-25.597657-25.59375-25.597657c-4.71875 0-8.535156-3.8125-8.535156-8.527343 0-4.714844 3.816406-8.53125 8.535156-8.53125 23.515625 0 42.65625 19.136719 42.65625 42.65625s-19.140625 42.65625-42.65625 42.65625zm0 0"/><path d="m72.695312 247.417969c-23.519531 0-42.65625-19.136719-42.65625-42.65625s19.136719-42.65625 42.65625-42.65625c4.71875 0 8.535157 3.816406 8.535157 8.53125 0 4.714843-3.816407 8.527343-8.535157 8.527343-14.113281 0-25.59375 11.484376-25.59375 25.597657s11.480469 25.597656 25.59375 25.597656c4.71875 0 8.535157 3.816406 8.535157 8.53125s-3.816407 8.527344-8.535157 8.527344zm0 0"/><path d="m396.90625 537.496094h-392.464844c-4.714844 0-8.53125-3.8125-8.53125-8.527344v-55.554688c0-23.933593 13.511719-46.277343 36.144532-59.78125 4.0625-2.425781 9.296874-1.09375 11.699218 2.949219 2.414063 4.046875 1.085938 9.289063-2.957031 11.699219-17.425781 10.398438-27.824219 27.269531-27.824219 45.132812v47.019532h375.398438v-54.339844c0-16.117188-9.640625-31.101562-25.785156-40.066406-4.117188-2.28125-5.609376-7.472656-3.320313-11.597656 2.292969-4.117188 7.484375-5.625 11.597656-3.316407 21.648438 12.015625 34.570313 32.570313 34.570313 54.980469v62.875c0 4.714844-3.8125 8.527344-8.527344 8.527344zm0 0"/><path d="m166.546875 418.058594h-47.851563c-4.71875 0-8.53125-3.820313-8.53125-8.535156 0-4.714844 3.8125-8.535157 8.53125-8.535157h39.316407v-21.328125c0-4.714844 3.820312-8.527344 8.535156-8.527344s8.527344 3.8125 8.527344 8.527344v29.863282c0 4.714843-3.8125 8.535156-8.527344 8.535156zm0 0"/><path d="m282.300781 418.058594h-47.5c-4.714843 0-8.535156-3.820313-8.535156-8.535156v-28.769532c0-4.714844 3.820313-8.53125 8.535156-8.53125 4.714844 0 8.527344 3.816406 8.527344 8.53125v20.234375h38.972656c4.714844 0 8.53125 3.820313 8.53125 8.535157 0 4.714843-3.820312 8.535156-8.53125 8.535156zm0 0"/><path d="m38.566406 469.242188c-4.714844 0-8.527344-3.8125-8.527344-8.527344v-119.445313c0-4.714843 3.8125-8.535156 8.527344-8.535156 4.71875 0 8.535156 3.820313 8.535156 8.535156v110.4375c38.34375-4.257812 68.253907-36.851562 68.253907-76.308593v-22.324219c0-4.714844 3.816406-8.527344 8.535156-8.527344 4.714844 0 8.527344 3.8125 8.527344 8.527344v22.324219c0 51.75-42.097657 93.84375-93.851563 93.84375zm0 0"/><path d="m362.773438 469.242188c-51.746094 0-93.847657-42.09375-93.847657-93.84375v-21.964844c0-4.714844 3.816407-8.53125 8.53125-8.53125 4.71875 0 8.535157 3.816406 8.535157 8.53125v21.964844c0 39.457031 29.90625 72.050781 68.253906 76.308593v-110.4375c0-4.714843 3.8125-8.535156 8.527344-8.535156 4.71875 0 8.535156 3.820313 8.535156 8.535156v119.445313c0 4.714844-3.816406 8.527344-8.535156 8.527344zm0 0"/><path d="m200.671875 392.460938c-63.128906 0-136.507813-70.8125-136.507813-162.101563v-76.789063c0-4.714843 3.816407-8.527343 8.53125-8.527343h255.957032c4.714844 0 8.527344 3.8125 8.527344 8.527343v76.789063c0 91.289063-73.375 162.101563-136.507813 162.101563zm-119.441406-230.355469v68.253906c0 65.695313 53.277343 145.039063 119.441406 145.039063s119.445313-79.34375 119.445313-145.039063v-68.253906zm0 0"/><path d="m140.949219 191.964844c0 7.066406-5.730469 12.796875-12.796875 12.796875s-12.796875-5.730469-12.796875-12.796875 5.730469-12.800782 12.796875-12.800782 12.796875 5.734376 12.796875 12.800782zm0 0"/><path d="m285.992188 191.964844c0 7.066406-5.730469 12.796875-12.800782 12.796875-7.070312 0-12.792968-5.730469-12.792968-12.796875s5.722656-12.800782 12.792968-12.800782c7.070313 0 12.800782 5.734376 12.800782 12.800782zm0 0"/><path d="m209.203125 281.550781h-17.058594c-9.429687 0-17.070312-7.640625-17.070312-17.070312 0-9.421875 7.640625-17.0625 17.070312-17.0625h17.058594c9.425781 0 17.0625 7.640625 17.0625 17.0625 0 9.429687-7.636719 17.070312-17.0625 17.070312zm0 0"/><path d="m234.800781 273.015625h-68.253906c-4.714844 0-8.535156-3.816406-8.535156-8.535156 0-4.714844 3.820312-8.527344 8.535156-8.527344h68.253906c4.714844 0 8.527344 3.8125 8.527344 8.527344 0 4.71875-3.8125 8.535156-8.527344 8.535156zm0 0"/><path d="m92.234375 537.496094c-2.691406 0-5.222656-1.273438-6.839844-3.421875-1.609375-2.167969-2.109375-4.953125-1.332031-7.535157 8.539062-28.710937 35.441406-48.765624 65.421875-48.765624 29.9375 0 56.820313 20.011718 65.394531 48.660156.773438 2.578125.28125 5.375-1.324218 7.535156-1.609376 2.167969-4.148438 3.441406-6.839844 3.441406l-114.46875.085938zm57.25-42.660156c-18.433594 0-35.304687 10.09375-44.328125 25.589843l88.613281-.074219c-9.039062-15.445312-25.890625-25.515624-44.285156-25.515624zm0 0"/><path d="m203.144531 537.496094c-2.6875 0-5.222656-1.273438-6.835937-3.421875-1.609375-2.167969-2.109375-4.953125-1.335938-7.535157 8.539063-28.710937 35.445313-48.765624 65.425782-48.765624 29.933593 0 56.820312 20.011718 65.390624 48.660156.777344 2.578125.285157 5.375-1.324218 7.535156-1.609375 2.167969-4.148438 3.441406-6.835938 3.441406l-114.472656.085938zm57.253907-42.660156c-18.4375 0-35.308594 10.09375-44.328126 25.589843l88.609376-.074219c-9.035157-15.445312-25.886719-25.515624-44.28125-25.515624zm0 0"/><path d="m328.652344 162.105469h-255.957032c-4.714843 0-8.53125-3.820313-8.53125-8.535157v-42.660156c0-4.066406 2.875-7.566406 6.859376-8.359375l127.972656-25.597656c1.105468-.21875 2.25-.21875 3.351562 0l127.976563 25.597656c3.980469.792969 6.855469 4.292969 6.855469 8.359375v42.660156c0 4.714844-3.8125 8.535157-8.527344 8.535157zm-247.421875-17.0625h238.886719v-27.140625l-119.445313-23.886719-119.441406 23.886719zm0 0"/></svg>